<svg width="12" height="12" viewBox="0 0 12 12" fill="none" xmlns="http://www.w3.org/2000/svg">
<path d="M12 7.78125C12 8.04014 11.7901 8.25 11.5312 8.25C11.2724 8.25 11.0625 8.04014 11.0625 7.78125V2.8125C11.0625 2.29556 10.6419 1.875 10.125 1.875H9.51562V2.34375C9.51562 2.60264 9.30577 2.8125 9.04688 2.8125C8.78798 2.8125 8.57812 2.60264 8.57812 2.34375V1.875H6.44531V2.34375C6.44531 2.60264 6.23545 2.8125 5.97656 2.8125C5.71767 2.8125 5.50781 2.60264 5.50781 2.34375V1.875H3.39844V2.34375C3.39844 2.60264 3.18858 2.8125 2.92969 2.8125C2.6708 2.8125 2.46094 2.60264 2.46094 2.34375V1.875H1.875C1.35806 1.875 0.9375 2.29556 0.9375 2.8125V10.125C0.9375 10.6419 1.35806 11.0625 1.875 11.0625H10.125C10.6419 11.0625 11.0625 10.6419 11.0625 10.125C11.0625 9.86611 11.2724 9.65625 11.5312 9.65625C11.7901 9.65625 12 9.86611 12 10.125C12 11.1589 11.1589 12 10.125 12H1.875C0.841125 12 0 11.1589 0 10.125V2.8125C0 1.77863 0.841125 0.9375 1.875 0.9375H2.46094V0.46875C2.46094 0.209859 2.6708 0 2.92969 0C3.18858 0 3.39844 0.209859 3.39844 0.46875V0.9375H5.50781V0.46875C5.50781 0.209859 5.71767 0 5.97656 0C6.23545 0 6.44531 0.209859 6.44531 0.46875V0.9375H8.57812V0.46875C8.57812 0.209859 8.78798 0 9.04688 0C9.30577 0 9.51562 0.209859 9.51562 0.46875V0.9375H10.125C11.1589 0.9375 12 1.77863 12 2.8125V7.78125Z" fill="#0F0F0F"/>
<path d="M3.39844 4.92188C3.39844 5.18076 3.18857 5.39062 2.92969 5.39062C2.6708 5.39062 2.46094 5.18076 2.46094 4.92188C2.46094 4.66299 2.6708 4.45312 2.92969 4.45312C3.18857 4.45312 3.39844 4.66299 3.39844 4.92188Z" fill="#0F0F0F"/>
<path d="M7.00781 5.39062C7.2667 5.39062 7.47656 5.18076 7.47656 4.92188C7.47656 4.66299 7.2667 4.45312 7.00781 4.45312C6.74893 4.45312 6.53906 4.66299 6.53906 4.92188C6.53906 5.18076 6.74893 5.39062 7.00781 5.39062Z" fill="#0F0F0F"/>
<path d="M9.51562 4.92188C9.51562 5.18076 9.30576 5.39062 9.04688 5.39062C8.78799 5.39062 8.57812 5.18076 8.57812 4.92188C8.57812 4.66299 8.78799 4.45312 9.04688 4.45312C9.30576 4.45312 9.51562 4.66299 9.51562 4.92188Z" fill="#0F0F0F"/>
<path d="M2.92969 7.42969C3.18857 7.42969 3.39844 7.21982 3.39844 6.96094C3.39844 6.70205 3.18857 6.49219 2.92969 6.49219C2.6708 6.49219 2.46094 6.70205 2.46094 6.96094C2.46094 7.21982 2.6708 7.42969 2.92969 7.42969Z" fill="#0F0F0F"/>
<path d="M3.39844 9C3.39844 9.25888 3.18857 9.46875 2.92969 9.46875C2.6708 9.46875 2.46094 9.25888 2.46094 9C2.46094 8.74112 2.6708 8.53125 2.92969 8.53125C3.18857 8.53125 3.39844 8.74112 3.39844 9Z" fill="#0F0F0F"/>
<path d="M4.96875 5.39062C5.22763 5.39062 5.4375 5.18076 5.4375 4.92188C5.4375 4.66299 5.22763 4.45312 4.96875 4.45312C4.70987 4.45312 4.5 4.66299 4.5 4.92188C4.5 5.18076 4.70987 5.39062 4.96875 5.39062Z" fill="#0F0F0F"/>
<path d="M5.4375 6.96094C5.4375 7.21982 5.22763 7.42969 4.96875 7.42969C4.70987 7.42969 4.5 7.21982 4.5 6.96094C4.5 6.70205 4.70987 6.49219 4.96875 6.49219C5.22763 6.49219 5.4375 6.70205 5.4375 6.96094Z" fill="#0F0F0F"/>
<path d="M4.96875 9.46875C5.22763 9.46875 5.4375 9.25888 5.4375 9C5.4375 8.74112 5.22763 8.53125 4.96875 8.53125C4.70987 8.53125 4.5 8.74112 4.5 9C4.5 9.25888 4.70987 9.46875 4.96875 9.46875Z" fill="#0F0F0F"/>
<path d="M7.47656 6.96094C7.47656 7.21982 7.2667 7.42969 7.00781 7.42969C6.74893 7.42969 6.53906 7.21982 6.53906 6.96094C6.53906 6.70205 6.74893 6.49219 7.00781 6.49219C7.2667 6.49219 7.47656 6.70205 7.47656 6.96094Z" fill="#0F0F0F"/>
<path d="M9.04688 7.42969C9.30576 7.42969 9.51562 7.21982 9.51562 6.96094C9.51562 6.70205 9.30576 6.49219 9.04688 6.49219C8.78799 6.49219 8.57812 6.70205 8.57812 6.96094C8.57812 7.21982 8.78799 7.42969 9.04688 7.42969Z" fill="#0F0F0F"/>
<path d="M7.47656 9C7.47656 9.25888 7.2667 9.46875 7.00781 9.46875C6.74893 9.46875 6.53906 9.25888 6.53906 9C6.53906 8.74112 6.74893 8.53125 7.00781 8.53125C7.2667 8.53125 7.47656 8.74112 7.47656 9Z" fill="#0F0F0F"/>
</svg>
