<svg width="10" height="5" viewBox="0 0 10 5" fill="none" xmlns="http://www.w3.org/2000/svg">
<path d="M9.70703 1.57365L6.64989 4.39044C6.2055 4.78168 5.61458 5 5 5C4.38542 5 3.7945 4.78168 3.35011 4.39044L0.292968 1.57365C0.105384 1.40077 0 1.1663 0 0.921821C0 0.677339 0.105384 0.44287 0.292968 0.269995C0.480553 0.0971203 0.734972 0 1.00026 0C1.26554 0 1.51996 0.0971203 1.70754 0.269995L4.76468 3.08741C4.82719 3.14499 4.91195 3.17734 5.00033 3.17734C5.08872 3.17734 5.17348 3.14499 5.23598 3.08741L8.29245 0.269995C8.48004 0.0971203 8.73446 0 8.99974 0C9.26503 0 9.51945 0.0971203 9.70703 0.269995C9.89462 0.44287 10 0.677339 10 0.921821C10 1.1663 9.89462 1.40077 9.70703 1.57365Z" fill="#717A98"/>
</svg>
