<svg width="16" height="12" viewBox="0 0 16 12" fill="none" xmlns="http://www.w3.org/2000/svg">
<path fill-rule="evenodd" clip-rule="evenodd" d="M14.4531 7.31641C14.7551 7.31641 15 7.07155 15 6.76954V3.18749C15 1.98133 14.0187 1 12.8125 1H3.18749C1.98133 1 1 1.98133 1 3.18749V9.5039C1 10.7101 1.98133 11.6914 3.18749 11.6914H12.8125C14.0187 11.6914 15 10.7101 15 9.5039C15 9.20189 14.7551 8.95703 14.4531 8.95703C14.151 8.95703 13.9063 9.20189 13.9063 9.5039C13.9063 10.107 13.4156 10.5976 12.8125 10.5976H3.18749C2.58439 10.5976 2.09374 10.107 2.09374 9.5039V3.30339L6.84483 6.2578C7.20105 6.47928 7.60051 6.59009 8 6.59009C8.39946 6.59009 8.79881 6.47928 9.15517 6.2578L13.9063 3.30339V6.76954C13.9063 7.07155 14.151 7.31641 14.4531 7.31641ZM8.57824 5.32894C8.22188 5.55043 7.77929 5.55043 7.42307 5.32894L2.55078 2.29924C2.73033 2.17 2.95051 2.09375 3.18816 2.09375H12.8132C13.0508 2.09375 13.271 2.17 13.4506 2.29924L8.57824 5.32894Z" fill="#0F0F0F"/>
<path d="M2.09374 3.30339L2.22576 3.09109L1.84374 2.85354V3.30339H2.09374ZM6.84483 6.2578L6.71282 6.4701L6.71283 6.47011L6.84483 6.2578ZM9.15517 6.2578L9.28713 6.47013L9.28718 6.4701L9.15517 6.2578ZM13.9063 3.30339H14.1563V2.85354L13.7742 3.09109L13.9063 3.30339ZM8.57824 5.32894L8.71021 5.54128L8.71025 5.54125L8.57824 5.32894ZM7.42307 5.32894L7.29106 5.54125L7.29107 5.54125L7.42307 5.32894ZM2.55078 2.29924L2.40473 2.09633L2.10175 2.31441L2.41877 2.51154L2.55078 2.29924ZM13.4506 2.29924L13.5826 2.51154L13.8996 2.31439L13.5966 2.09632L13.4506 2.29924ZM14.4531 7.56641C14.8932 7.56641 15.25 7.20962 15.25 6.76954H14.75C14.75 6.93348 14.6171 7.06641 14.4531 7.06641V7.56641ZM15.25 6.76954V3.18749H14.75V6.76954H15.25ZM15.25 3.18749C15.25 1.84326 14.1567 0.75 12.8125 0.75V1.25C13.8806 1.25 14.75 2.1194 14.75 3.18749H15.25ZM12.8125 0.75H3.18749V1.25H12.8125V0.75ZM3.18749 0.75C1.84326 0.75 0.75 1.84326 0.75 3.18749H1.25C1.25 2.1194 2.1194 1.25 3.18749 1.25V0.75ZM0.75 3.18749V9.5039H1.25V3.18749H0.75ZM0.75 9.5039C0.75 10.8481 1.84326 11.9414 3.18749 11.9414V11.4414C2.1194 11.4414 1.25 10.572 1.25 9.5039H0.75ZM3.18749 11.9414H12.8125V11.4414H3.18749V11.9414ZM12.8125 11.9414C14.1567 11.9414 15.25 10.8481 15.25 9.5039H14.75C14.75 10.572 13.8806 11.4414 12.8125 11.4414V11.9414ZM15.25 9.5039C15.25 9.06382 14.8932 8.70703 14.4531 8.70703V9.20703C14.6171 9.20703 14.75 9.33996 14.75 9.5039H15.25ZM14.4531 8.70703C14.0129 8.70703 13.6563 9.06386 13.6563 9.5039H14.1563C14.1563 9.33992 14.2891 9.20703 14.4531 9.20703V8.70703ZM13.6563 9.5039C13.6563 9.96892 13.2775 10.3476 12.8125 10.3476V10.8476C13.5536 10.8476 14.1563 10.2451 14.1563 9.5039H13.6563ZM12.8125 10.3476H3.18749V10.8476H12.8125V10.3476ZM3.18749 10.3476C2.72246 10.3476 2.34374 9.96893 2.34374 9.5039H1.84374C1.84374 10.2451 2.44632 10.8476 3.18749 10.8476V10.3476ZM2.34374 9.5039V3.30339H1.84374V9.5039H2.34374ZM1.96173 3.51569L6.71282 6.4701L6.97685 6.0455L2.22576 3.09109L1.96173 3.51569ZM6.71283 6.47011C7.10881 6.71632 7.55402 6.84009 8 6.84009V6.34009C7.647 6.34009 7.2933 6.24225 6.97684 6.04549L6.71283 6.47011ZM8 6.84009C8.44597 6.84009 8.89106 6.7163 9.28713 6.47013L9.0232 6.04547C8.70656 6.24227 8.35294 6.34009 8 6.34009V6.84009ZM9.28718 6.4701L14.0383 3.51569L13.7742 3.09109L9.02315 6.0455L9.28718 6.4701ZM13.6563 3.30339V6.76954H14.1563V3.30339H13.6563ZM13.6563 6.76954C13.6563 7.20958 14.0129 7.56641 14.4531 7.56641V7.06641C14.2891 7.06641 14.1563 6.93352 14.1563 6.76954H13.6563ZM8.44627 5.11661C8.17071 5.28788 7.83045 5.28785 7.55508 5.11664L7.29107 5.54125C7.72813 5.813 8.27305 5.81297 8.71021 5.54128L8.44627 5.11661ZM7.55509 5.11664L2.6828 2.08694L2.41877 2.51154L7.29106 5.54125L7.55509 5.11664ZM2.69683 2.50214C2.83541 2.4024 3.00483 2.34375 3.18816 2.34375V1.84375C2.89619 1.84375 2.62525 1.93761 2.40473 2.09633L2.69683 2.50214ZM3.18816 2.34375H12.8132V1.84375H3.18816V2.34375ZM12.8132 2.34375C12.9965 2.34375 13.1659 2.40239 13.3045 2.50216L13.5966 2.09632C13.3761 1.93762 13.1052 1.84375 12.8132 1.84375V2.34375ZM13.3185 2.08693L8.44622 5.11664L8.71025 5.54125L13.5826 2.51154L13.3185 2.08693Z" fill="#0F0F0F"/>
</svg>
