<svg width="21" height="21" viewBox="0 0 21 21" fill="none" xmlns="http://www.w3.org/2000/svg">
<circle cx="10.5" cy="10.5" r="9.5" fill="#D7FFD8" stroke="#29B12F"/>
<path fill-rule="evenodd" clip-rule="evenodd" d="M11.0977 15.4185C11.0978 15.7396 10.8347 16 10.5103 16C10.2062 15.9999 9.95615 15.7711 9.92601 15.478L9.92297 15.4185L9.92306 6.50278L7.00268 9.39393C6.77335 9.62097 6.40132 9.62097 6.17202 9.39396C5.95534 9.17944 5.94341 8.83912 6.13595 8.61071L6.17205 8.57161L9.26448 5.51013C9.93242 4.84887 11.0076 4.83047 11.6982 5.45499L11.7564 5.5101L14.828 8.55095C15.0573 8.77796 15.0574 9.14616 14.828 9.3733C14.6113 9.58779 14.2675 9.59962 14.0368 9.40903L13.9973 9.3733L11.0977 6.50267L11.0977 15.4185Z" fill="#29B12F"/>
</svg>
