<svg width="14" height="14" viewBox="0 0 14 14" fill="none" xmlns="http://www.w3.org/2000/svg">
<g clip-path="url(#clip0_1453_30)">
<path d="M7.00069 9.33326C7.27232 9.33378 7.54032 9.27108 7.78351 9.15009L8.95019 8.56676C9.54483 8.2715 9.91994 7.66384 9.91736 6.99994V5.26919C9.91942 4.60586 9.54437 3.99899 8.95019 3.70411L7.78351 3.12079C7.29059 2.87579 6.71137 2.87579 6.21844 3.12079L5.05176 3.70411C4.45737 3.99883 4.08207 4.60575 4.08401 5.26919V6.99994C4.08188 7.66343 4.4569 8.27052 5.05119 8.56561L6.21787 9.14894C6.46095 9.27032 6.72897 9.33343 7.00069 9.33326ZM5.25069 6.99994V5.26919C5.25162 5.20969 5.26165 5.15065 5.28044 5.09419L6.55212 5.73001C6.83452 5.87116 7.16688 5.87116 7.44929 5.73001L8.72097 5.09419C8.73975 5.15065 8.74979 5.20969 8.75072 5.26919V6.99994C8.75165 7.22126 8.62649 7.42382 8.42814 7.52201L7.26147 8.10534C7.09697 8.18674 6.90389 8.18674 6.73939 8.10534L5.57272 7.52201C5.37456 7.42366 5.24965 7.22115 5.25069 6.99994ZM11.084 12.8333H9.50376L11.5378 10.9538C14.0438 8.44793 14.0438 4.38514 11.538 1.87922C9.03214 -0.626696 4.96938 -0.626723 2.46346 1.87908C-0.0424573 4.38489 -0.0425122 8.44773 2.46332 10.9536C2.46882 10.9591 4.49762 12.8333 4.49762 12.8333H2.91737C2.5952 12.8333 2.33404 13.0944 2.33404 13.4166C2.33404 13.7387 2.5952 13.9999 2.91737 13.9999H11.084C11.4062 13.9999 11.6674 13.7387 11.6674 13.4166C11.6674 13.0944 11.4062 12.8333 11.084 12.8333ZM3.28837 2.70426C5.33412 0.649327 8.65838 0.641889 10.7133 2.68764C12.7683 4.73339 12.7757 8.05765 10.7299 10.1126L8.40536 12.2598C7.61196 13.0077 6.37192 13.0033 5.58379 12.2499L3.28837 10.1289C1.24128 8.07734 1.2413 4.75587 3.28837 2.70426Z" fill="black"/>
</g>
<defs>
<clipPath id="clip0_1453_30">
<rect width="14" height="14" fill="white"/>
</clipPath>
</defs>
</svg>
