<svg width="12" height="16" viewBox="0 0 12 16" fill="none" xmlns="http://www.w3.org/2000/svg">
<path fill-rule="evenodd" clip-rule="evenodd" d="M6.00007 1C7.46795 1 8.84846 1.58225 9.88707 2.63969C10.9255 3.69683 11.4983 5.10301 11.5 6.59891C11.499 7.68986 11.202 8.7123 10.5922 9.72579C10.2498 10.2947 9.84112 10.8165 9.39812 11.3341L9.32185 11.4228L9.24494 11.5114C9.2192 11.541 9.19336 11.5705 9.16743 11.6001L9.08935 11.6888L9.01075 11.7777L8.93165 11.8667L8.81215 12.0005L8.49283 12.3572L8.3736 12.4907L8.29409 12.5802L8.21462 12.67L8.13524 12.7602L8.056 12.8508L7.97695 12.9419C7.49022 13.5049 7.01763 14.0954 6.6146 14.7452C6.51839 14.9003 6.35257 14.9957 6.17332 14.9999L6.16108 15H5.83906C5.655 15 5.48377 14.9039 5.38554 14.7452C4.97161 14.0779 4.48425 13.4731 3.98362 12.8963L3.90447 12.8055L3.82515 12.7151L3.74572 12.6251L3.66622 12.5354L3.54698 12.4016L3.34867 12.1801L3.18795 12.0005L3.06846 11.8667L2.98937 11.7777L2.91076 11.6888L2.83269 11.6001C2.30108 10.9941 1.80903 10.3922 1.40798 9.72579C0.798144 8.7123 0.50104 7.68986 0.5 6.60011C0.50171 5.10301 1.07459 3.69697 2.11303 2.63969C3.15164 1.58225 4.53202 1 6.00007 1ZM5.99915 2.09375C3.56104 2.09375 1.57515 4.1153 1.57227 6.60011C1.57398 8.34112 2.49504 9.57787 3.65436 10.8969L3.73377 10.9869C3.74706 11.002 3.76038 11.017 3.77373 11.0321L3.85416 11.1226L4.01681 11.3048L4.27298 11.5908L4.3617 11.6901L4.45051 11.7897L4.53936 11.8898L4.62819 11.9905L4.71694 12.0916C5.16039 12.5991 5.59865 13.1295 5.99915 13.713C6.39956 13.1295 6.83779 12.5991 7.28126 12.0916L7.37001 11.9905L7.45885 11.8898C7.47366 11.8731 7.48847 11.8564 7.50328 11.8397L7.63654 11.6901L7.81385 11.4919L7.98145 11.3048L8.10366 11.168L8.1844 11.0773C8.19781 11.0622 8.21118 11.0471 8.22453 11.0321L8.30429 10.9419C9.48217 9.6059 10.4243 8.36077 10.4259 6.59892C10.4231 4.1153 8.43725 2.09375 5.99915 2.09375ZM6.00018 3.1875C7.84941 3.1875 9.35388 4.72076 9.35388 6.60545C9.35388 6.94004 9.30646 7.27076 9.21293 7.58852C9.12778 7.87785 8.82869 8.04191 8.5448 7.95527C8.26437 7.86955 8.10372 7.57108 8.18191 7.28494L8.18492 7.27435C8.24847 7.0586 8.2807 6.8335 8.2807 6.60545C8.2807 5.32386 7.25769 4.28124 6.00018 4.28124C4.74268 4.28124 3.71967 5.32386 3.71967 6.60545C3.71967 7.88705 4.74268 8.92966 6.00018 8.92966C6.20291 8.92966 6.40365 8.90266 6.59715 8.84933L6.62612 8.84113C6.91118 8.75849 7.20788 8.92699 7.28911 9.21738C7.3702 9.50791 7.20503 9.81046 6.91997 9.89308C6.62193 9.97962 6.31248 10.0234 6.00018 10.0234C4.15092 10.0234 2.64648 8.49014 2.64648 6.60545C2.64648 4.72076 4.15092 3.1875 6.00018 3.1875Z" fill="#0F0F0F"/>
<path d="M9.88707 2.63969L9.78006 2.7448L9.78007 2.74481L9.88707 2.63969ZM11.5 6.59891L11.65 6.59906L11.65 6.59874L11.5 6.59891ZM10.5922 9.72579L10.7207 9.80313L10.7207 9.80313L10.5922 9.72579ZM9.39812 11.3341L9.51185 11.4319L9.51208 11.4316L9.39812 11.3341ZM9.32185 11.4228L9.43516 11.5211L9.43558 11.5206L9.32185 11.4228ZM9.24494 11.5114L9.35805 11.61L9.35825 11.6097L9.24494 11.5114ZM9.16743 11.6001L9.28004 11.6992L9.28019 11.699L9.16743 11.6001ZM9.08935 11.6888L9.20169 11.7882L9.20196 11.7879L9.08935 11.6888ZM9.01075 11.7777L9.12286 11.8773L9.12309 11.8771L9.01075 11.7777ZM8.93165 11.8667L9.04356 11.9665L9.04376 11.9663L8.93165 11.8667ZM8.81215 12.0005L8.9239 12.1006L8.92406 12.1004L8.81215 12.0005ZM8.49283 12.3572L8.38108 12.2571L8.38092 12.2573L8.49283 12.3572ZM8.3736 12.4907L8.2617 12.3908L8.26149 12.3911L8.3736 12.4907ZM8.29409 12.5802L8.18198 12.4805L8.18176 12.4808L8.29409 12.5802ZM8.21462 12.67L8.10229 12.5706L8.10202 12.5709L8.21462 12.67ZM8.13524 12.7602L8.02263 12.6611L8.02232 12.6615L8.13524 12.7602ZM8.056 12.8508L7.94308 12.7521L7.94272 12.7525L8.056 12.8508ZM7.97695 12.9419L7.86367 12.8436L7.86347 12.8438L7.97695 12.9419ZM6.6146 14.7452L6.74207 14.8243L6.74207 14.8243L6.6146 14.7452ZM6.17332 14.9999L6.17506 15.1499L6.1768 15.1498L6.17332 14.9999ZM6.16108 15V15.15L6.16282 15.15L6.16108 15ZM5.38554 14.7452L5.51306 14.6663L5.51301 14.6662L5.38554 14.7452ZM3.98362 12.8963L4.0969 12.798L4.09671 12.7978L3.98362 12.8963ZM3.90447 12.8055L4.01756 12.707L4.01723 12.7066L3.90447 12.8055ZM3.82515 12.7151L3.93791 12.6162L3.93762 12.6158L3.82515 12.7151ZM3.74572 12.6251L3.85818 12.5258L3.85794 12.5256L3.74572 12.6251ZM3.66622 12.5354L3.77844 12.4359L3.77821 12.4357L3.66622 12.5354ZM3.54698 12.4016L3.65896 12.3018L3.65875 12.3016L3.54698 12.4016ZM3.34867 12.1801L3.46044 12.08L3.46042 12.08L3.34867 12.1801ZM3.18795 12.0005L3.07604 12.1004L3.0762 12.1006L3.18795 12.0005ZM3.06846 11.8667L2.95635 11.9663L2.95655 11.9665L3.06846 11.8667ZM2.98937 11.7777L2.87703 11.8771L2.87725 11.8773L2.98937 11.7777ZM2.91076 11.6888L2.79815 11.7879L2.79842 11.7882L2.91076 11.6888ZM2.83269 11.6001L2.71992 11.699L2.72008 11.6992L2.83269 11.6001ZM1.40798 9.72579L1.27945 9.80313L1.27946 9.80313L1.40798 9.72579ZM0.5 6.60011L0.35 6.59994L0.35 6.60025L0.5 6.60011ZM2.11303 2.63969L2.22004 2.7448L2.11303 2.63969ZM1.57227 6.60011L1.42227 6.59994L1.42227 6.60026L1.57227 6.60011ZM3.65436 10.8969L3.54169 10.9959L3.54185 10.9961L3.65436 10.8969ZM3.73377 10.9869L3.62125 11.0861L3.62139 11.0863L3.73377 10.9869ZM3.77373 11.0321L3.66148 11.1316L3.66159 11.1317L3.77373 11.0321ZM3.85416 11.1226L3.74202 11.2222L3.74227 11.2225L3.85416 11.1226ZM4.01681 11.3048L3.90492 11.4047L3.90507 11.4048L4.01681 11.3048ZM4.27298 11.5908L4.38481 11.4908L4.38471 11.4907L4.27298 11.5908ZM4.3617 11.6901L4.47368 11.5903L4.47354 11.5901L4.3617 11.6901ZM4.45051 11.7897L4.5627 11.6902L4.5625 11.6899L4.45051 11.7897ZM4.53936 11.8898L4.65182 11.7906L4.65156 11.7903L4.53936 11.8898ZM4.62819 11.9905L4.74096 11.8916L4.74065 11.8912L4.62819 11.9905ZM4.71694 12.0916L4.82989 11.9929L4.82971 11.9927L4.71694 12.0916ZM5.99915 13.713L5.87547 13.7979L5.99916 13.9781L6.12283 13.7979L5.99915 13.713ZM7.28126 12.0916L7.16849 11.9927L7.16832 11.9929L7.28126 12.0916ZM7.37001 11.9905L7.25757 11.8912L7.25725 11.8916L7.37001 11.9905ZM7.45885 11.8898L7.34654 11.7904L7.3464 11.7906L7.45885 11.8898ZM7.50328 11.8397L7.39125 11.74L7.3911 11.7401L7.50328 11.8397ZM7.63654 11.6901L7.52475 11.59L7.52451 11.5903L7.63654 11.6901ZM7.81385 11.4919L7.70212 11.3918L7.70207 11.3919L7.81385 11.4919ZM7.98145 11.3048L8.09319 11.4048L8.09331 11.4047L7.98145 11.3048ZM8.10366 11.168L8.21552 11.2679L8.2157 11.2677L8.10366 11.168ZM8.1844 11.0773L8.29644 11.177L8.29654 11.1769L8.1844 11.0773ZM8.22453 11.0321L8.33678 11.1316L8.33691 11.1314L8.22453 11.0321ZM8.30429 10.9419L8.41667 11.0412L8.4168 11.0411L8.30429 10.9419ZM10.4259 6.59892L10.5759 6.59906L10.5759 6.59875L10.4259 6.59892ZM9.21293 7.58852L9.06903 7.54617L9.06903 7.54617L9.21293 7.58852ZM8.5448 7.95527L8.50095 8.09872L8.50102 8.09874L8.5448 7.95527ZM8.18191 7.28494L8.0376 7.24398L8.03722 7.2454L8.18191 7.28494ZM8.18492 7.27435L8.04102 7.23196L8.04062 7.23339L8.18492 7.27435ZM6.59715 8.84933L6.637 8.99394L6.63799 8.99367L6.59715 8.84933ZM6.62612 8.84113L6.66696 8.98547L6.66789 8.9852L6.62612 8.84113ZM7.28911 9.21738L7.43359 9.17706L7.43357 9.17698L7.28911 9.21738ZM6.91997 9.89308L6.87822 9.74901L6.87814 9.74903L6.91997 9.89308ZM6.00007 1.15C7.42727 1.15 8.76935 1.71576 9.78006 2.7448L9.99409 2.53459C8.92758 1.44873 7.50863 0.85 6.00007 0.85V1.15ZM9.78007 2.74481C10.7907 3.77364 11.3483 5.14202 11.35 6.59908L11.65 6.59874C11.6482 5.06401 11.0604 3.62003 9.99408 2.53458L9.78007 2.74481ZM11.35 6.59877C11.349 7.66021 11.0606 8.65623 10.4636 9.64846L10.7207 9.80313C11.3433 8.76838 11.6489 7.7195 11.65 6.59906L11.35 6.59877ZM10.4636 9.64845C10.1274 10.2072 9.72472 10.7218 9.28417 11.2365L9.51208 11.4316C9.95753 10.9112 10.3722 10.3822 10.7207 9.80313L10.4636 9.64845ZM9.2844 11.2363L9.20812 11.325L9.43558 11.5206L9.51185 11.4319L9.2844 11.2363ZM9.20854 11.3245L9.13163 11.4131L9.35825 11.6097L9.43516 11.5211L9.20854 11.3245ZM9.13183 11.4129C9.10621 11.4423 9.08049 11.4717 9.05467 11.5012L9.28019 11.699C9.30623 11.6693 9.33219 11.6396 9.35805 11.61L9.13183 11.4129ZM9.05482 11.501L8.97674 11.5897L9.20196 11.7879L9.28004 11.6992L9.05482 11.501ZM8.97702 11.5894L8.89841 11.6783L9.12309 11.8771L9.20169 11.7882L8.97702 11.5894ZM8.89863 11.678L8.81954 11.767L9.04376 11.9663L9.12286 11.8773L8.89863 11.678ZM8.81974 11.7668L8.70024 11.9007L8.92406 12.1004L9.04356 11.9665L8.81974 11.7668ZM8.70041 11.9005L8.38108 12.2571L8.60458 12.4572L8.9239 12.1006L8.70041 11.9005ZM8.38092 12.2573L8.2617 12.3908L8.48551 12.5906L8.60473 12.4571L8.38092 12.2573ZM8.26149 12.3911L8.18198 12.4805L8.40621 12.6798L8.48572 12.5904L8.26149 12.3911ZM8.18176 12.4808L8.10229 12.5706L8.32695 12.7694L8.40643 12.6796L8.18176 12.4808ZM8.10202 12.5709L8.02263 12.6611L8.24784 12.8593L8.32722 12.7691L8.10202 12.5709ZM8.02232 12.6615L7.94308 12.7521L8.16892 12.9496L8.24816 12.8589L8.02232 12.6615ZM7.94272 12.7525L7.86367 12.8436L8.09023 13.0402L8.16928 12.9491L7.94272 12.7525ZM7.86347 12.8438C7.37454 13.4094 6.89616 14.0067 6.48713 14.6662L6.74207 14.8243C7.1391 14.1842 7.6059 13.6005 8.09043 13.04L7.86347 12.8438ZM6.48713 14.6662C6.4172 14.7789 6.29763 14.8469 6.16984 14.8499L6.1768 15.1498C6.40751 15.1445 6.61958 15.0218 6.74207 14.8243L6.48713 14.6662ZM6.17158 14.8499L6.15934 14.85L6.16282 15.15L6.17506 15.1498L6.17158 14.8499ZM6.16108 14.85H5.83906V15.15H6.16108V14.85ZM5.83906 14.85C5.70777 14.85 5.58438 14.7814 5.51306 14.6663L5.25801 14.8242C5.38315 15.0263 5.60224 15.15 5.83906 15.15V14.85ZM5.51301 14.6662C5.09293 13.9889 4.59962 13.3772 4.0969 12.798L3.87034 12.9947C4.36889 13.569 4.85029 14.1669 5.25806 14.8243L5.51301 14.6662ZM4.09671 12.7978L4.01756 12.707L3.79137 12.904L3.87052 12.9949L4.09671 12.7978ZM4.01723 12.7066L3.93791 12.6162L3.71239 12.814L3.79171 12.9044L4.01723 12.7066ZM3.93762 12.6158L3.85818 12.5258L3.63325 12.7243L3.71268 12.8143L3.93762 12.6158ZM3.85794 12.5256L3.77844 12.4359L3.554 12.635L3.6335 12.7246L3.85794 12.5256ZM3.77821 12.4357L3.65896 12.3018L3.43499 12.5014L3.55424 12.6352L3.77821 12.4357ZM3.65875 12.3016L3.46044 12.08L3.23689 12.2801L3.4352 12.5017L3.65875 12.3016ZM3.46042 12.08L3.29971 11.9005L3.0762 12.1006L3.23691 12.2801L3.46042 12.08ZM3.29986 11.9007L3.18037 11.7668L2.95655 11.9665L3.07604 12.1004L3.29986 11.9007ZM3.18058 11.767L3.10148 11.678L2.87725 11.8773L2.95635 11.9663L3.18058 11.767ZM3.1017 11.6783L3.0231 11.5894L2.79842 11.7882L2.87703 11.8771L3.1017 11.6783ZM3.02338 11.5897L2.9453 11.501L2.72008 11.6992L2.79815 11.7879L3.02338 11.5897ZM2.94545 11.5012C2.41546 10.897 1.93052 10.3032 1.5365 9.64845L1.27946 9.80313C1.68754 10.4812 2.18669 11.0911 2.71993 11.699L2.94545 11.5012ZM1.53651 9.64846C0.939449 8.6562 0.651011 7.66019 0.65 6.59997L0.35 6.60025C0.351068 7.71952 0.656839 8.7684 1.27945 9.80313L1.53651 9.64846ZM0.65 6.60028C0.651666 5.14201 1.20941 3.77377 2.22004 2.7448L2.00601 2.53459C0.939769 3.62017 0.351755 5.06401 0.35 6.59994L0.65 6.60028ZM2.22004 2.7448C3.23075 1.71576 4.5727 1.15 6.00007 1.15V0.85C4.49134 0.85 3.07252 1.44873 2.00601 2.53459L2.22004 2.7448ZM5.99915 1.94375C3.4756 1.94375 1.42524 4.03504 1.42227 6.59994L1.72227 6.60029C1.72506 4.19555 3.64648 2.24375 5.99915 2.24375V1.94375ZM1.42227 6.60026C1.42404 8.40142 2.38097 9.6753 3.54169 10.9959L3.76703 10.7978C2.6091 9.48043 1.72392 8.28081 1.72227 6.59997L1.42227 6.60026ZM3.54185 10.9961L3.62125 11.0861L3.84628 10.8877L3.76688 10.7977L3.54185 10.9961ZM3.62139 11.0863C3.63473 11.1014 3.6481 11.1165 3.66148 11.1316L3.88598 10.9326C3.87267 10.9176 3.85939 10.9026 3.84614 10.8876L3.62139 11.0863ZM3.66159 11.1317L3.74202 11.2222L3.96629 11.023L3.88587 10.9325L3.66159 11.1317ZM3.74227 11.2225L3.90492 11.4047L4.1287 11.2049L3.96604 11.0227L3.74227 11.2225ZM3.90507 11.4048L4.16124 11.6909L4.38471 11.4907L4.12855 11.2047L3.90507 11.4048ZM4.16114 11.6908L4.24986 11.79L4.47354 11.5901L4.38481 11.4908L4.16114 11.6908ZM4.24971 11.7899L4.33853 11.8895L4.5625 11.6899L4.47368 11.5903L4.24971 11.7899ZM4.33832 11.8893L4.42718 11.9894L4.65156 11.7903L4.5627 11.6902L4.33832 11.8893ZM4.42691 11.9891L4.51574 12.0897L4.74065 11.8912L4.65182 11.7906L4.42691 11.9891ZM4.51542 12.0894L4.60417 12.1906L4.82971 11.9927L4.74096 11.8916L4.51542 12.0894ZM4.604 12.1904C5.04577 12.6958 5.47972 13.2213 5.87547 13.7979L6.12282 13.6282C5.71757 13.0377 5.27501 12.5023 4.82989 11.9929L4.604 12.1904ZM6.12283 13.7979C6.51848 13.2213 6.95241 12.6958 7.3942 12.1904L7.16832 11.9929C6.72317 12.5023 6.28063 13.0377 5.87546 13.6282L6.12283 13.7979ZM7.39402 12.1906L7.48278 12.0894L7.25725 11.8916L7.16849 11.9927L7.39402 12.1906ZM7.48246 12.0897L7.5713 11.9891L7.3464 11.7906L7.25757 11.8912L7.48246 12.0897ZM7.57116 11.9893C7.58592 11.9726 7.60069 11.9559 7.61546 11.9393L7.3911 11.7401C7.37625 11.7569 7.36139 11.7736 7.34654 11.7904L7.57116 11.9893ZM7.61531 11.9395L7.74856 11.7898L7.52451 11.5903L7.39125 11.74L7.61531 11.9395ZM7.74832 11.7901L7.92564 11.5919L7.70207 11.3919L7.52475 11.59L7.74832 11.7901ZM7.92558 11.592L8.09319 11.4048L7.86972 11.2047L7.70212 11.3918L7.92558 11.592ZM8.09331 11.4047L8.21552 11.2679L7.99181 11.0681L7.8696 11.2048L8.09331 11.4047ZM8.2157 11.2677L8.29644 11.177L8.07236 10.9776L7.99162 11.0683L8.2157 11.2677ZM8.29654 11.1769C8.30998 11.1618 8.32339 11.1467 8.33678 11.1316L8.11228 10.9326C8.09897 10.9476 8.08563 10.9626 8.07227 10.9777L8.29654 11.1769ZM8.33691 11.1314L8.41667 11.0412L8.19191 10.8425L8.11216 10.9327L8.33691 11.1314ZM8.4168 11.0411C9.59547 9.70421 10.5742 8.42164 10.5759 6.59906L10.2759 6.59878C10.2743 8.2999 9.36888 9.50758 8.19178 10.8427L8.4168 11.0411ZM10.5759 6.59875C10.5731 4.03501 8.52267 1.94375 5.99915 1.94375V2.24375C8.35184 2.24375 10.2732 4.19558 10.2759 6.59908L10.5759 6.59875ZM6.00018 3.3375C7.7639 3.3375 9.20388 4.80091 9.20388 6.60545H9.50388C9.50388 4.64061 7.93493 3.0375 6.00018 3.0375V3.3375ZM9.20388 6.60545C9.20388 6.92584 9.15848 7.24229 9.06903 7.54617L9.35682 7.63088C9.45445 7.29922 9.50388 6.95423 9.50388 6.60545H9.20388ZM9.06903 7.54617C9.00681 7.75759 8.79059 7.87345 8.58859 7.8118L8.50102 8.09874C8.8668 8.21038 9.24874 7.99812 9.35682 7.63087L9.06903 7.54617ZM8.58865 7.81182C8.38796 7.75047 8.26918 7.53461 8.32661 7.32448L8.03722 7.2454C7.93825 7.60754 8.14079 7.98862 8.50095 8.09872L8.58865 7.81182ZM8.32621 7.32589L8.32922 7.3153L8.04062 7.23339L8.03761 7.24398L8.32621 7.32589ZM8.3288 7.31673C8.39647 7.08703 8.4307 6.84764 8.4307 6.60545H8.1307C8.1307 6.81936 8.10047 7.03018 8.04103 7.23196L8.3288 7.31673ZM8.4307 6.60545C8.4307 5.24371 7.3432 4.13124 6.00018 4.13124V4.43124C7.17217 4.43124 8.1307 5.404 8.1307 6.60545H8.4307ZM6.00018 4.13124C4.65717 4.13124 3.56967 5.24371 3.56967 6.60545H3.86967C3.86967 5.404 4.82819 4.43124 6.00018 4.43124V4.13124ZM3.56967 6.60545C3.56967 7.96719 4.65717 9.07966 6.00018 9.07966V8.77966C4.82819 8.77966 3.86967 7.8069 3.86967 6.60545H3.56967ZM6.00018 9.07966C6.21623 9.07966 6.43039 9.05088 6.637 8.99394L6.5573 8.70472C6.37692 8.75443 6.18959 8.77966 6.00018 8.77966V9.07966ZM6.63799 8.99367L6.66695 8.98547L6.58528 8.6968L6.55631 8.705L6.63799 8.99367ZM6.66789 8.9852C6.87058 8.92644 7.08525 9.04542 7.14466 9.25779L7.43357 9.17698C7.33052 8.80857 6.95178 8.59054 6.58435 8.69707L6.66789 8.9852ZM7.14463 9.25771C7.20424 9.47127 7.08202 9.68994 6.87822 9.74901L6.96172 10.0371C7.32805 9.93099 7.53616 9.54454 7.43359 9.17706L7.14463 9.25771ZM6.87814 9.74903C6.59381 9.83159 6.29845 9.8734 6.00018 9.8734V10.1734C6.32651 10.1734 6.65005 10.1277 6.9618 10.0371L6.87814 9.74903ZM6.00018 9.8734C4.23643 9.8734 2.79648 8.41 2.79648 6.60545H2.49648C2.49648 8.57029 4.06541 10.1734 6.00018 10.1734V9.8734ZM2.79648 6.60545C2.79648 4.80091 4.23643 3.3375 6.00018 3.3375V3.0375C4.06541 3.0375 2.49648 4.64061 2.49648 6.60545H2.79648Z" fill="#0F0F0F"/>
</svg>
