<svg width="14" height="14" viewBox="0 0 14 14" fill="none" xmlns="http://www.w3.org/2000/svg">
<path d="M13.9986 11.2807C13.9791 10.7392 13.7535 10.2338 13.3635 9.85768C12.5997 9.12123 11.9598 8.69609 11.3497 8.51977C10.509 8.2768 9.73024 8.49774 9.03527 9.17646C9.03423 9.17747 9.03319 9.17851 9.03215 9.17955L8.29277 9.9134C7.83069 9.65293 6.93218 9.08101 5.96142 8.11025L5.88945 8.03833C4.91853 7.06744 4.34664 6.16876 4.08641 5.7072L4.82031 4.9678C4.82135 4.96676 4.82239 4.96572 4.82343 4.96465C5.50213 4.26974 5.72306 3.49104 5.48012 2.65025C5.30378 2.04013 4.87866 1.40023 4.14219 0.636494C3.7661 0.24649 3.26076 0.0209042 2.71922 0.00138076C2.17735 -0.01817 1.65738 0.170447 1.25411 0.532423L1.23842 0.546533C1.23115 0.553068 1.22404 0.559822 1.21709 0.56674C0.414306 1.36952 -0.00651362 2.49338 7.62228e-05 3.81684C0.0113145 6.0651 1.24695 8.63618 3.30536 10.6946C3.6935 11.0827 4.13464 11.4668 4.61649 11.8363C4.85616 12.02 5.19943 11.9748 5.38321 11.7351C5.56701 11.4954 5.52168 11.1521 5.28198 10.9683C4.83806 10.6279 4.43323 10.2756 4.07875 9.92122C2.21949 8.06196 1.10361 5.77794 1.0938 3.8114C1.08874 2.79214 1.39534 1.94139 1.98058 1.35006L1.98477 1.34628C2.38226 0.989474 2.98407 1.01118 3.35491 1.39572C4.77074 2.86402 4.66823 3.55721 4.0426 4.19875L3.02886 5.2201C2.86988 5.38028 2.82561 5.62167 2.91741 5.82784C2.94314 5.88564 3.56573 7.26139 5.11625 8.81192L5.18825 8.8838C6.73858 10.4342 8.11436 11.0567 8.17216 11.0825C8.37828 11.1743 8.61972 11.13 8.77987 10.971L9.80125 9.95726C10.4429 9.33161 11.1361 9.22915 12.6043 10.645C12.9888 11.0158 13.0105 11.6176 12.6538 12.015L12.6499 12.0193C12.0634 12.5998 11.2217 12.9062 10.2136 12.9062C10.2052 12.9062 10.1969 12.9062 10.1886 12.9061C9.38275 12.9021 8.44959 12.6812 7.49007 12.2673C7.21281 12.1477 6.89094 12.2755 6.77134 12.5529C6.65171 12.8302 6.77954 13.152 7.05689 13.2716C8.16601 13.75 9.21781 13.995 10.1832 13.9999C10.1934 13.9999 10.2036 13.9999 10.2138 13.9999C11.524 13.9999 12.6367 13.5794 13.4333 12.7829C13.4402 12.7759 13.4469 12.7688 13.4534 12.7615L13.4676 12.7457C13.8296 12.3425 14.0182 11.8222 13.9986 11.2807Z" fill="#0F0F0F"/>
</svg>
