<svg width="23" height="26" viewBox="0 0 23 26" fill="none" xmlns="http://www.w3.org/2000/svg">
<g filter="url(#filter0_d_8875_22268)">
<path fill-rule="evenodd" clip-rule="evenodd" d="M10.6418 5.94176H10.6402C9.74235 5.94176 9.01367 6.67044 9.01367 7.56827C9.01367 8.46611 9.74235 9.19479 10.6402 9.19479H11.7245C12.0238 9.19479 12.2667 9.43768 12.2667 9.73696C12.2667 10.0362 12.0238 10.2791 11.7245 10.2791H10.098C9.79873 10.2791 9.55584 10.522 9.55584 10.8213C9.55584 11.1206 9.79873 11.3635 10.098 11.3635H10.6418V11.9056C10.6418 12.2049 10.8847 12.4478 11.184 12.4478C11.4833 12.4478 11.7262 12.2049 11.7262 11.9056V11.3635C12.6229 11.3624 13.351 10.6342 13.351 9.73696C13.351 8.83912 12.6224 8.11044 11.7245 8.11044H10.6402C10.3409 8.11044 10.098 7.86755 10.098 7.56827C10.098 7.269 10.3409 7.0261 10.6402 7.0261H12.2667C12.566 7.0261 12.8089 6.78321 12.8089 6.48393C12.8089 6.18466 12.566 5.94176 12.2667 5.94176H11.7262V5.39959C11.7262 5.10031 11.4833 4.85742 11.184 4.85742C10.8847 4.85742 10.6418 5.10031 10.6418 5.39959V5.94176Z" fill="#E60023"/>
<path fill-rule="evenodd" clip-rule="evenodd" d="M7.53023 2.71078H17.1207C17.2644 2.71078 17.4021 2.76771 17.504 2.86964C17.6054 2.97102 17.6628 3.10928 17.6628 3.25295V13.012C17.6628 13.3113 17.9057 13.5542 18.205 13.5542C18.5043 13.5542 18.7472 13.3113 18.7472 13.012V3.25295C18.7472 2.82139 18.5759 2.40771 18.2706 2.10301C17.9654 1.79777 17.5517 1.62644 17.1207 1.62644H7.53023L8.48011 0.993187C8.72896 0.827283 8.79619 0.490595 8.63029 0.241197C8.46438 -0.00765965 8.1277 -0.0748888 7.8783 0.0910154L5.43853 1.71753C5.28781 1.81783 5.19727 1.98753 5.19727 2.16861C5.19727 2.3497 5.28781 2.5194 5.43853 2.6197L7.8783 4.24621C8.1277 4.41211 8.46438 4.34488 8.63029 4.09603C8.79619 3.84663 8.72896 3.50994 8.48011 3.34404L7.53023 2.71078Z" fill="#E60023"/>
<path fill-rule="evenodd" clip-rule="evenodd" d="M15.2256 16.374L14.2758 17.0073C14.0269 17.1732 13.9597 17.5099 14.1256 17.7593C14.2915 18.0081 14.6282 18.0754 14.8776 17.9095L17.3173 16.283C17.4681 16.1827 17.5586 16.013 17.5586 15.8319C17.5586 15.6508 17.4681 15.4811 17.3173 15.3808L14.8776 13.7543C14.6282 13.5884 14.2915 13.6556 14.1256 13.9045C13.9597 14.1539 14.0269 14.4905 14.2758 14.6564L15.2256 15.2897H5.62651C5.48284 15.2897 5.34458 15.2328 5.2432 15.1308C5.14127 15.0295 5.08434 14.8912 5.08434 14.7475V4.98846C5.08434 4.68918 4.84145 4.44629 4.54217 4.44629C4.24289 4.44629 4 4.68918 4 4.98846V14.7475C4 15.1791 4.17133 15.5928 4.47603 15.8975C4.78127 16.2027 5.19494 16.374 5.62651 16.374H15.2256Z" fill="#E60023"/>
</g>
<defs>
<filter id="filter0_d_8875_22268" x="0" y="0" width="22.7471" height="26" filterUnits="userSpaceOnUse" color-interpolation-filters="sRGB">
<feFlood flood-opacity="0" result="BackgroundImageFix"/>
<feColorMatrix in="SourceAlpha" type="matrix" values="0 0 0 0 0 0 0 0 0 0 0 0 0 0 0 0 0 0 127 0" result="hardAlpha"/>
<feOffset dy="4"/>
<feGaussianBlur stdDeviation="2"/>
<feComposite in2="hardAlpha" operator="out"/>
<feColorMatrix type="matrix" values="0 0 0 0 0 0 0 0 0 0 0 0 0 0 0 0 0 0 0.25 0"/>
<feBlend mode="normal" in2="BackgroundImageFix" result="effect1_dropShadow_8875_22268"/>
<feBlend mode="normal" in="SourceGraphic" in2="effect1_dropShadow_8875_22268" result="shape"/>
</filter>
</defs>
</svg>
