<svg width="16" height="14" viewBox="0 0 16 14" fill="none" xmlns="http://www.w3.org/2000/svg">
<path fill-rule="evenodd" clip-rule="evenodd" d="M11.1834 6.31658C11.6208 6.75401 12.2141 6.99983 12.8327 7V12.2502C12.8327 12.4049 12.7712 12.5532 12.6618 12.6626C12.5524 12.772 12.4041 12.8335 12.2493 12.8335H7.58333V9.91699C7.58333 9.45286 7.39896 9.00774 7.07077 8.67955C6.74258 8.35137 6.29746 8.16699 5.83333 8.16699H5.25C4.78587 8.16699 4.34075 8.35137 4.01256 8.67955C3.68437 9.00774 3.5 9.45286 3.5 9.91699V12.8335H2.91602C2.76131 12.8335 2.61293 12.772 2.50354 12.6626C2.39414 12.5532 2.33268 12.4049 2.33268 12.2502V7H2.33333C2.95217 7 3.54566 6.75417 3.98325 6.31658C4.01787 6.28196 4.05129 6.24637 4.08348 6.20986C4.11558 6.24626 4.1489 6.28174 4.18342 6.31626C4.621 6.75384 5.21449 6.99967 5.83333 6.99967C6.45217 6.99967 7.04566 6.75384 7.48325 6.31626C7.51782 6.28169 7.55119 6.24615 7.58333 6.2097C7.61548 6.24615 7.64885 6.28169 7.68342 6.31626C8.121 6.75384 8.71449 6.99967 9.33333 6.99967C9.95217 6.99967 10.5457 6.75384 10.9832 6.31626C11.0178 6.28174 11.0511 6.24626 11.0832 6.20986C11.1154 6.24637 11.1488 6.28196 11.1834 6.31658ZM8.50838 5.4913C8.28958 5.27251 8.16667 4.97576 8.16667 4.66634L10.5 4.66403C10.5 4.6648 10.5 4.66557 10.5 4.66634C10.5 4.97576 10.3771 5.27251 10.1583 5.4913C9.9395 5.71009 9.64275 5.83301 9.33333 5.83301C9.02391 5.83301 8.72717 5.71009 8.50838 5.4913ZM10.5 4.66403L11.6667 4.66288C11.6657 4.50942 11.6044 4.36244 11.4958 4.25386C11.3864 4.14447 11.238 4.08301 11.0833 4.08301C10.9286 4.08301 10.7803 4.14447 10.6709 4.25386C10.562 4.36271 10.5006 4.51016 10.5 4.66403ZM8.16667 4.66634H7C7 4.51163 7.06146 4.36326 7.17085 4.25386C7.28025 4.14447 7.42862 4.08301 7.58333 4.08301C7.73804 4.08301 7.88642 4.14447 7.99581 4.25386C8.10521 4.36326 8.16667 4.51163 8.16667 4.66634ZM0.683417 6.31658C0.828692 6.46186 0.991151 6.586 1.16602 6.68702V12.2502C1.16602 12.7143 1.35039 13.1594 1.67858 13.4876C2.00677 13.8158 2.45189 14.0002 2.91602 14.0002H4.06953L4.08333 14.0003H7L7.0138 14.0002H12.2493C12.7135 14.0002 13.1586 13.8158 13.4868 13.4876C13.815 13.1594 13.9993 12.7143 13.9993 12.2502V6.68777C14.1747 6.58661 14.3376 6.46222 14.4832 6.31658C14.9208 5.879 15.1667 5.2855 15.1667 4.66667V4.08333C15.1661 3.99202 15.1441 3.9021 15.1025 3.82083L13.3525 0.320833C13.304 0.224633 13.2299 0.143735 13.1382 0.0871051C13.0466 0.0304754 12.9411 0.000326495 12.8333 0H2.33333C2.22561 0.000326495 2.12008 0.0304754 2.02845 0.0871051C1.93681 0.143735 1.86264 0.224633 1.81417 0.320833L0.0641666 3.82083C0.022526 3.9021 0.000547507 3.99202 0 4.08333V4.66667C0 5.2855 0.245833 5.879 0.683417 6.31658ZM6.41667 12.8335H4.66667V9.91699C4.66667 9.76228 4.72813 9.61391 4.83752 9.50451C4.94692 9.39512 5.09529 9.33366 5.25 9.33366H5.83333C5.98804 9.33366 6.13642 9.39512 6.24581 9.50451C6.35521 9.61391 6.41667 9.76228 6.41667 9.91699V12.8335ZM9.33333 9.91667H11.0833C11.238 9.91667 11.3864 9.85521 11.4958 9.74581C11.6052 9.63642 11.6667 9.48804 11.6667 9.33333C11.6667 9.17862 11.6052 9.03025 11.4958 8.92085C11.3864 8.81146 11.238 8.75 11.0833 8.75H9.33333C9.17862 8.75 9.03025 8.81146 8.92085 8.92085C8.81146 9.03025 8.75 9.17862 8.75 9.33333C8.75 9.48804 8.81146 9.63642 8.92085 9.74581C9.03025 9.85521 9.17862 9.91667 9.33333 9.91667Z" fill="#0F0F0F"/>
</svg>
