<svg width="12" height="15" viewBox="0 0 12 15" fill="none" xmlns="http://www.w3.org/2000/svg">
<path fill-rule="evenodd" clip-rule="evenodd" d="M8.76607 3.20139C8.76607 4.96653 7.32981 6.40255 5.56467 6.40255C3.79954 6.40255 2.36328 4.96653 2.36328 3.20139C2.36328 1.43625 3.79954 0 5.56467 0C7.32981 0 8.76607 1.43625 8.76607 3.20139ZM7.31445 3.20139C7.31445 2.23649 6.52958 1.45161 5.56467 1.45161C4.59977 1.45161 3.81489 2.23649 3.81489 3.20139C3.81489 4.16606 4.59977 4.95093 5.56467 4.95093C6.52958 4.95093 7.31445 4.16606 7.31445 3.20139ZM0 12.3386C0 9.27026 2.49614 6.77412 5.56452 6.77412C8.63289 6.77412 11.129 9.27026 11.129 12.3386V13.3064C11.129 14.2401 10.3692 14.9999 9.43548 14.9999H1.69355C0.759827 14.9999 0 14.2401 0 13.3064V12.3386ZM9.43548 13.5483C9.56897 13.5483 9.67742 13.4399 9.67742 13.3064V12.3386C9.67742 10.0707 7.83242 8.22573 5.56452 8.22573C3.29661 8.22573 1.45161 10.0707 1.45161 12.3386V13.3064C1.45161 13.4399 1.56006 13.5483 1.69355 13.5483H9.43548Z" fill="black"/>
</svg>
