<svg width="40" height="35" viewBox="0 0 40 35" fill="none" xmlns="http://www.w3.org/2000/svg">
<path d="M18.6427 12.4856L18.6446 12.4568L18.6445 12.4557L18.6478 12.424C18.7282 11.6435 19.3911 11.0322 20.1988 11.0322C21.0065 11.0322 21.6695 11.6435 21.7498 12.424L21.7531 12.4557L21.753 12.4568L21.7549 12.4856C21.757 12.5182 21.758 12.5515 21.758 12.5851C21.758 12.6737 21.7506 12.7603 21.7366 12.8444L21.7319 12.8727L21.7304 12.9013L21.2616 22.0458L21.261 22.0586V22.0714C21.261 22.654 20.7868 23.1288 20.1988 23.1288C19.6109 23.1288 19.1366 22.654 19.1366 22.0714V22.0586L19.136 22.0458L18.6672 12.9013L18.6657 12.8727L18.661 12.8444C18.647 12.7603 18.6396 12.6737 18.6396 12.5851C18.6396 12.5515 18.6406 12.5182 18.6427 12.4856ZM15.1159 3.44106L2.30711 25.5744C0.00984001 29.544 2.88501 34.5 7.47575 34.5H32.9089C37.4941 34.5 40.37 29.5547 38.0837 25.5851L25.3363 3.45165C23.0724 -0.479174 17.388 -0.485052 15.1159 3.44106ZM21.758 27.0977C21.758 27.954 21.0614 28.6507 20.1988 28.6507C19.3362 28.6507 18.6396 27.954 18.6396 27.0977C18.6396 26.2414 19.3362 25.5447 20.1988 25.5447C21.0614 25.5447 21.758 26.2414 21.758 27.0977Z" fill="#FED075" stroke="#D89104"/>
</svg>
