<svg width="482" height="472" viewBox="0 0 482 472" fill="none" xmlns="http://www.w3.org/2000/svg">
<path opacity="0.5" d="M72.2478 189.974C69.4872 191.69 66.4235 192.992 63.1018 193.8C54.4945 195.898 45.8647 194.282 38.8958 189.962C32.0727 185.744 26.8208 178.944 24.7671 170.529C20.615 153.507 31.0291 136.34 48.053 132.199C65.0657 128.037 82.2355 138.461 86.3876 155.482C89.7318 169.182 83.6158 182.961 72.2478 189.974Z" fill="#EBEBEB"/>
<path d="M65.2228 159.376C65.2228 164.706 60.9023 169.027 55.5718 169.027C50.2413 169.027 45.9208 164.706 45.9208 159.376C45.9208 154.046 50.2413 149.726 55.5718 149.726C60.9023 149.726 65.2228 154.046 65.2228 159.376Z" fill="white"/>
<path d="M72.2478 185.99V189.974C69.4872 191.69 66.4235 192.992 63.1018 193.8C54.4945 195.898 45.8647 194.282 38.8958 189.962V185.99C38.8958 176.801 46.3584 169.317 55.5718 169.317C64.7851 169.317 72.2478 176.801 72.2478 185.99Z" fill="white"/>
<path opacity="0.5" d="M29.8844 58.3127C31.0179 57.6059 32.4431 57.6507 33.5877 58.3352C33.9019 58.5259 34.2162 58.7055 34.5416 58.8738C34.867 59.0533 35.1925 59.2104 35.5291 59.3675C36.7299 59.9397 37.5491 61.0954 37.594 62.4306L37.7399 66.9862L52.5867 66.5261L52.4521 61.9706C52.4072 60.6354 53.1478 59.4123 54.3149 58.7728C54.9658 58.4249 55.5942 58.0322 56.2002 57.6059C57.3 56.8429 58.714 56.7419 59.8923 57.3702L63.8986 59.5245L70.9236 46.4303L66.9173 44.2759C65.739 43.6476 65.0432 42.4021 65.0769 41.0781C65.0881 40.3376 65.0657 39.597 65.0096 38.8677C64.8973 37.5324 65.5146 36.2421 66.648 35.5464L70.5196 33.1452L62.6866 20.5222L58.7925 22.9346C57.6591 23.6415 56.2451 23.5966 55.1005 22.9122C54.7862 22.7214 54.472 22.5419 54.1466 22.3736C53.8211 22.2053 53.4957 22.037 53.1703 21.8799C51.9583 21.3077 51.1391 20.1407 51.0942 18.8055L50.9595 14.2388L36.0902 14.6988L36.2361 19.2431C36.281 20.5783 35.5516 21.8014 34.3733 22.4521C33.7224 22.8112 33.0939 23.1927 32.488 23.6191C31.3882 24.3821 29.9742 24.4831 28.7959 23.8547L24.7896 21.7004L17.7646 34.7947L21.7709 36.949C22.9492 37.5773 23.6449 38.8228 23.6113 40.158C23.6001 40.8986 23.6225 41.6391 23.6786 42.3797C23.7908 43.7149 23.1736 44.9941 22.0402 45.7009L18.1686 48.0909L26.0016 60.7139L29.8844 58.3127ZM33.5989 34.8732C36.7748 28.9488 44.1589 26.7159 50.0842 29.9025C56.0095 33.0779 58.2314 40.461 55.0556 46.3854C51.8797 52.3098 44.5068 54.5314 38.5815 51.3561C32.6675 48.1694 30.4231 40.7864 33.5989 34.8732Z" fill="#EBEBEB"/>
<path opacity="0.5" d="M439.367 325.539C439.839 324.731 440.725 324.283 441.668 324.328C441.926 324.339 442.173 324.35 442.431 324.35C442.689 324.35 442.947 324.339 443.205 324.328C444.137 324.283 445.023 324.72 445.495 325.539L447.088 328.311L456.099 323.104L454.506 320.333C454.035 319.525 454.079 318.527 454.596 317.741C454.876 317.315 455.134 316.866 455.37 316.395C455.796 315.564 456.638 315.026 457.569 315.026H460.757V304.613H457.569C456.638 304.613 455.796 304.075 455.37 303.244C455.134 302.784 454.876 302.335 454.596 301.898C454.079 301.112 454.035 300.114 454.506 299.306L456.099 296.534L447.088 291.328L445.483 294.111C445.012 294.919 444.125 295.367 443.194 295.311C442.936 295.3 442.689 295.289 442.431 295.289C442.173 295.289 441.915 295.3 441.668 295.311C440.736 295.356 439.839 294.907 439.367 294.1L437.774 291.328L428.762 296.534L430.356 299.295C430.827 300.103 430.782 301.101 430.266 301.887C429.986 302.324 429.727 302.773 429.492 303.233C429.065 304.063 428.224 304.602 427.292 304.602H424.105V315.015H427.292C428.224 315.015 429.065 315.553 429.492 316.383C429.727 316.843 429.986 317.292 430.266 317.73C430.782 318.515 430.827 319.514 430.356 320.322L428.762 323.082L437.774 328.288L439.367 325.539ZM433.902 309.831C433.902 305.118 437.729 301.303 442.431 301.303C447.144 301.303 450.948 305.129 450.948 309.831C450.948 314.532 447.133 318.347 442.431 318.347C437.729 318.358 433.902 314.543 433.902 309.831Z" fill="#EBEBEB"/>
<path opacity="0.5" d="M67.9498 84.7594C68.7577 85.2307 69.2066 86.1171 69.1617 87.0596C69.1505 87.3177 69.1393 87.5645 69.1393 87.8226C69.1393 88.0807 69.1505 88.3387 69.1617 88.5968C69.2066 89.5281 68.769 90.4145 67.9498 90.8858L65.1779 92.4791L70.385 101.489L73.1568 99.8958C73.9648 99.4245 74.9636 99.4694 75.7491 99.9856C76.1755 100.266 76.6244 100.524 77.0958 100.76C77.9262 101.186 78.4649 102.028 78.4649 102.959V106.146H88.879V102.959C88.879 102.028 89.4176 101.186 90.248 100.76C90.7082 100.524 91.157 100.266 91.5947 99.9856C92.3802 99.4694 93.379 99.4245 94.187 99.8958L96.9589 101.489L102.166 92.4791L99.3828 90.8745C98.5748 90.4033 98.126 89.5169 98.1821 88.5856C98.1933 88.3275 98.2045 88.0807 98.2045 87.8226C98.2045 87.5645 98.1933 87.3064 98.1821 87.0596C98.1372 86.1283 98.5861 85.2307 99.3941 84.7594L102.166 83.1661L96.9589 74.1561L94.1982 75.7494C93.3902 76.2206 92.3915 76.1757 91.6059 75.6596C91.1683 75.3791 90.7194 75.121 90.2593 74.8854C89.4288 74.459 88.8902 73.6175 88.8902 72.6862V69.4996H78.4761V72.6862C78.4761 73.6175 77.9374 74.459 77.107 74.8854C76.6469 75.121 76.198 75.3791 75.7603 75.6596C74.9748 76.1757 73.976 76.2206 73.168 75.7494L70.4074 74.1561L65.2003 83.1661L67.9498 84.7594ZM83.6607 79.295C88.374 79.295 92.1895 83.1212 92.1895 87.8226C92.1895 92.524 88.3627 96.3389 83.6607 96.3389C78.9474 96.3389 75.1431 92.524 75.1431 87.8226C75.1431 83.1212 78.9474 79.295 83.6607 79.295Z" fill="#EBEBEB"/>
<path d="M459.32 5.32971H397.094V80.7985H459.32V5.32971Z" fill="#EBEBEB"/>
<path d="M452.205 12.2078H404.197V73.8979H452.205V12.2078Z" fill="white"/>
<path d="M406.071 12.2078H404.197V73.8979H406.071V12.2078Z" fill="#C7C7C7"/>
<path d="M461.183 5.32971H459.309V80.7985H461.183V5.32971Z" fill="#C7C7C7"/>
<path d="M429.271 60.1927H440.594V26.4753H429.271V60.1927Z" fill="#EBEBEB"/>
<path d="M415.347 37.2425L445.524 37.2425V20.7246L415.347 20.7246V37.2425Z" stroke="#EBEBEB" stroke-miterlimit="10"/>
<path d="M459.32 191.298H397.094V266.767H459.32V191.298Z" fill="#EBEBEB"/>
<path d="M452.205 198.187H404.197V259.877H452.205V198.187Z" fill="white"/>
<path d="M406.071 198.187H404.197V259.877H406.071V198.187Z" fill="#C7C7C7"/>
<path d="M461.183 191.298H459.309V266.767H461.183V191.298Z" fill="#C7C7C7"/>
<path d="M431.613 212.448H420.29V246.166H431.613V212.448Z" fill="#EBEBEB"/>
<path d="M445.528 206.692H415.352V223.21H445.528V206.692Z" stroke="#EBEBEB" stroke-miterlimit="10"/>
<path d="M459.32 98.6503H397.094V174.119H459.32V98.6503Z" fill="#EBEBEB"/>
<path d="M452.205 105.54H404.197V167.23H452.205V105.54Z" fill="white"/>
<path d="M406.071 105.54H404.197V167.23H406.071V105.54Z" fill="#C7C7C7"/>
<path d="M461.183 98.6503H459.309V174.119H461.183V98.6503Z" fill="#C7C7C7"/>
<path d="M433.251 121.484H423.555V146.001H433.251V121.484Z" fill="#EBEBEB"/>
<path d="M443.452 136.385H417.406V153.284H443.452V136.385Z" stroke="#DBDBDB" stroke-miterlimit="10"/>
<path opacity="0.2" d="M39.1875 289.353V451.433H137.179V289.353H39.1875ZM48.0867 349.428H128.291V391.617H48.0867V349.428ZM48.0867 297.185H128.291V339.374H48.0867V297.185Z" fill="#EBEBEB"/>
<path opacity="0.6" d="M0.00112534 451.438H39.1887L39.1887 289.358H0.00112534L0.00112534 451.438Z" fill="#DBDBDB"/>
<path d="M109.238 339.374H128.293V297.185H109.238V339.374Z" fill="#DBDBDB"/>
<path opacity="0.2" d="M48.09 441.259H127.789V401.033H48.09V441.259Z" stroke="#DBDBDB" stroke-width="0.75" stroke-miterlimit="10"/>
<path opacity="0.2" d="M83.3571 420.363H99.1915V412.351H83.3571V420.363Z" fill="#DBDBDB"/>
<path opacity="0.2" d="M78.6773 419.758H94.5117V412.957H78.6773V419.758Z" stroke="#DBDBDB" stroke-width="0.75" stroke-miterlimit="10"/>
<path d="M109.238 391.628H128.293V349.439H109.238V391.628Z" fill="#DBDBDB"/>
<path d="M40.2761 388.811C40.2761 388.811 49.4333 355.958 56.7389 344.794C64.0557 333.629 77.6793 321.376 77.6793 321.376C77.6793 321.376 77.3651 372.037 40.2761 388.811Z" fill="#18A615"/>
<path d="M40.9382 388.25C44.0804 383.156 46.74 377.77 49.2874 372.329C50.4096 366.494 51.7787 360.626 53.8324 355.049C53.866 354.948 54.0231 355.004 53.9895 355.105C52.7775 360.3 51.3635 365.439 50.073 370.612C53.765 362.612 57.2775 354.522 61.6878 346.959C62.5744 343.29 64.2577 339.767 65.9298 336.446C65.9747 336.345 66.143 336.401 66.0869 336.502C64.9086 339.071 64.0669 341.73 63.2252 344.39C65.3013 341.046 67.5906 337.814 70.1829 334.785C70.3401 334.594 70.6655 334.807 70.5084 335.009C64.628 342.516 60.5656 351.066 56.694 359.717C60.8798 355.251 64.6841 350.359 68.1854 345.355C68.2191 345.299 68.2976 345.355 68.264 345.411C64.6505 351.156 60.4871 356.317 55.9646 361.355C53.1478 367.695 50.376 374.057 47.0206 380.082C53.7314 374.404 58.8935 367.066 64.0108 359.986C64.123 359.829 64.3699 359.997 64.2577 360.154C59.1404 367.93 53.8548 375.246 46.4931 381.002C44.9894 383.639 43.3734 386.208 41.5778 388.677C41.2861 389.103 40.6688 388.677 40.9382 388.25Z" fill="#263238"/>
<path d="M38.5367 388.856C38.5367 388.856 54.9882 358.561 50.2076 329.186C45.427 299.811 40.3097 289.353 40.3097 289.353C40.3097 289.353 14.4428 335.043 38.5367 388.856Z" fill="#18A615"/>
<path d="M31.781 341.226C33.0939 349.708 35.3945 357.652 38.1327 365.686C38.1775 354.903 38.3795 344.12 38.6713 333.349C36.7748 326.796 35.8209 320.086 35.5628 313.275C35.5516 313.073 35.8546 313.085 35.8658 313.275C36.3483 319.144 37.3808 324.855 38.7499 330.555C38.9968 321.657 39.2998 312.77 39.614 303.884C39.614 303.738 39.8496 303.738 39.8496 303.884C39.8384 317.775 39.8384 331.666 39.7599 345.557C41.8808 340.204 43.2163 334.695 44.5068 329.051C44.518 328.995 44.6078 329.006 44.6078 329.063C44.114 335.548 42.1389 341.82 39.7486 347.846C39.6813 356.721 39.5915 365.608 39.3895 374.483C42.1726 365.047 45.1465 355.902 45.9545 345.927C45.9657 345.792 46.1677 345.792 46.1677 345.927C45.9545 356.923 43.1153 368.099 39.4905 378.444C39.4456 378.556 39.3783 378.635 39.311 378.702C39.2324 381.945 39.1314 385.187 39.0304 388.441C39.0192 388.901 38.3122 388.89 38.3122 388.43C38.1888 381.787 38.1439 375.156 38.1551 368.514C34.463 359.986 32.4879 350.46 31.6687 341.248C31.6351 341.169 31.7697 341.147 31.781 341.226Z" fill="#263238"/>
<path d="M32.9144 336.547C33.4306 339.15 33.9244 341.899 34.059 344.547C34.059 344.637 33.9244 344.648 33.9019 344.57C33.2174 342 32.847 339.229 32.5441 336.592C32.5328 336.378 32.8695 336.345 32.9144 336.547Z" fill="#263238"/>
<path d="M42.5317 314.397C42.5429 314.308 42.6888 314.33 42.6888 314.42C42.7113 316.238 42.3409 318.19 41.8584 319.941C41.8135 320.087 41.6115 320.019 41.634 319.873C42.0043 318.056 42.2175 316.226 42.5317 314.397Z" fill="#263238"/>
<path d="M32.5216 388.856C32.5216 388.856 33.1949 357.226 24.1163 341.506C15.0488 325.797 0 317.786 0 317.786C0 317.786 6.07115 373.529 32.5216 388.856Z" fill="#18A615"/>
<path d="M15.9915 361.815C19.807 367.302 23.6 372.598 28.2684 377.378C26.4617 370.915 24.3519 364.553 21.9841 358.303C16.9005 353.848 11.8505 349.226 8.73078 343.122C8.68589 343.021 8.82056 342.942 8.87667 343.032C12.2321 348.44 16.7209 352.76 21.4454 356.923C17.8207 347.531 13.6012 338.364 8.80934 329.421C8.68589 329.197 9.02256 328.995 9.15722 329.22C12.0637 333.876 14.7009 338.701 17.08 343.649C16.2271 340.272 15.5538 336.816 14.6785 333.461C14.656 333.371 14.7907 333.337 14.8244 333.416C16.4291 337.646 18.0339 342.314 18.5501 346.824C21.726 353.837 24.3968 361.074 26.5402 368.469C26.3046 363.722 26.0128 359.01 25.519 354.275C25.5078 354.185 25.6649 354.163 25.6761 354.252C26.6637 359.504 27.1799 364.844 27.0452 370.185C28.3582 374.898 29.458 379.667 30.3333 384.469C30.3557 384.592 30.165 384.66 30.1313 384.525C29.6375 382.517 29.0989 380.519 28.5602 378.522C28.5265 378.511 28.4929 378.511 28.4592 378.477C23.5888 373.608 18.9653 368.042 15.9354 361.826C15.9241 361.804 15.969 361.781 15.9915 361.815Z" fill="#263238"/>
<path d="M5.47638 336.075C6.48637 337.164 7.4178 338.319 8.39412 339.442C9.25822 340.44 10.3131 341.372 11.0089 342.494C11.0313 342.539 10.9864 342.595 10.9415 342.561C9.77444 341.821 8.83178 340.62 7.9228 339.588C6.96892 338.499 6.10482 337.422 5.34172 336.187C5.27438 336.109 5.40905 336.008 5.47638 336.075Z" fill="#263238"/>
<path d="M58.3998 391.168L57.2551 406.147L53.8099 451.433H23.7459L20.3008 406.147L19.1561 391.168C20.4354 391.168 38.7723 391.168 38.7723 391.168C38.7723 391.168 57.1205 391.168 58.3998 391.168Z" fill="#37474F"/>
<path d="M58.3999 391.168L57.7041 400.279L19.9754 401.794L19.1674 391.168C20.4467 391.168 38.7836 391.168 38.7836 391.168C38.7836 391.168 57.1205 391.168 58.3999 391.168Z" fill="#263238"/>
<path d="M16.4829 395.313H61.0683V383.822H16.4829V395.313Z" fill="#37474F"/>
<path d="M0 451.444L59.8138 451.164L119.628 451.063L239.266 450.883L358.894 451.063L418.719 451.164L478.533 451.444L418.719 451.713L358.894 451.815L239.266 451.994L119.628 451.815L59.8138 451.713L0 451.444Z" fill="#263238"/>
<path d="M85.8827 436.97V14.4632C85.8827 6.47421 92.3578 0 100.348 0H373.482C381.473 0 387.948 6.47421 387.948 14.4632V436.97C387.948 444.959 381.473 451.433 373.482 451.433H100.348C92.3578 451.444 85.8827 444.959 85.8827 436.97Z" fill="#455A64"/>
<path d="M375.211 31.5968H98.9788V420.117H375.211V31.5968Z" fill="white"/>
<path d="M204.051 19.277V17.3918C204.051 16.6175 204.68 15.9891 205.454 15.9891H268.388C269.162 15.9891 269.79 16.6175 269.79 17.3918V19.277C269.79 20.0513 269.162 20.6797 268.388 20.6797H205.454C204.68 20.6797 204.051 20.0513 204.051 19.277Z" fill="#263238"/>
<path d="M236.921 443.883C241.619 443.883 245.427 440.075 245.427 435.377C245.427 430.679 241.619 426.871 236.921 426.871C232.223 426.871 228.414 430.679 228.414 435.377C228.414 440.075 232.223 443.883 236.921 443.883Z" fill="#263238"/>
<path d="M375.211 31.5968H98.9788V420.117H375.211V31.5968Z" fill="white"/>
<path d="M237.055 198.804C263.396 198.804 284.749 177.454 284.749 151.117C284.749 124.78 263.396 103.43 237.055 103.43C210.715 103.43 189.362 124.78 189.362 151.117C189.362 177.454 210.715 198.804 237.055 198.804Z" fill="#A6A6A6"/>
<path d="M296.106 238.188H177.994V255.301H296.106V238.188Z" fill="#EBEBEB"/>
<path d="M196.241 243.383C196.241 243.26 196.342 243.159 196.465 243.159C196.6 243.159 196.701 243.26 196.701 243.383V247.041C196.701 248.242 197.677 249.207 198.867 249.218C200.079 249.207 201.055 248.242 201.055 247.041V243.383C201.055 243.26 201.156 243.159 201.279 243.159C201.414 243.159 201.515 243.26 201.515 243.383V247.041C201.515 248.489 200.337 249.678 198.878 249.678C197.43 249.678 196.252 248.5 196.252 247.041V243.383H196.241Z" fill="#A6A6A6"/>
<path d="M203.389 248.724C203.468 248.635 203.602 248.612 203.703 248.691C204.018 248.926 204.523 249.218 205.095 249.218C205.454 249.218 205.757 249.106 205.959 248.938C206.183 248.792 206.307 248.579 206.307 248.377C206.296 248.163 206.217 248.017 205.981 247.815C205.791 247.67 205.465 247.557 205.016 247.479L204.994 247.468C204.59 247.389 204.22 247.299 203.962 247.108C203.67 246.94 203.468 246.648 203.468 246.289C203.468 245.93 203.67 245.605 203.962 245.392C204.231 245.201 204.612 245.089 205.084 245.089C205.667 245.089 206.094 245.358 206.442 245.582C206.543 245.661 206.576 245.796 206.509 245.897C206.442 245.998 206.307 246.031 206.206 245.964C205.869 245.739 205.533 245.504 205.084 245.504C204.713 245.504 204.41 245.605 204.22 245.762C204.029 245.908 203.928 246.099 203.928 246.278C203.928 246.469 204.006 246.592 204.186 246.738C204.388 246.873 204.702 246.985 205.117 247.052H205.14C205.578 247.12 205.925 247.243 206.251 247.423C206.554 247.613 206.767 247.973 206.767 248.354C206.767 248.736 206.554 249.039 206.251 249.274C205.937 249.51 205.566 249.633 205.117 249.633C204.377 249.622 203.804 249.274 203.434 248.982C203.322 248.938 203.311 248.825 203.389 248.724Z" fill="#A6A6A6"/>
<path d="M207.957 247.4C207.957 246.132 208.944 245.111 210.167 245.111C211.334 245.111 212.266 246.042 212.367 247.232V247.243V247.266C212.367 247.389 212.266 247.468 212.142 247.468H208.405C208.45 248.466 209.236 249.218 210.179 249.218C210.785 249.218 211.346 248.904 211.649 248.388C211.716 248.276 211.851 248.253 211.952 248.309C212.053 248.388 212.086 248.511 212.03 248.623C211.637 249.241 210.964 249.656 210.19 249.656C208.944 249.678 207.957 248.657 207.957 247.4ZM208.428 247.041H211.884C211.738 246.188 211.009 245.56 210.167 245.56C209.314 245.56 208.596 246.177 208.428 247.041Z" fill="#A6A6A6"/>
<path d="M213.747 245.347C213.747 245.212 213.848 245.122 213.983 245.122C214.095 245.122 214.196 245.212 214.196 245.347V246.357C214.219 246.323 214.23 246.278 214.263 246.244C214.611 245.706 215.217 245.122 216.093 245.122C216.216 245.122 216.317 245.212 216.317 245.347C216.317 245.47 216.216 245.571 216.093 245.571C215.498 245.571 215.083 245.908 214.768 246.312C214.465 246.727 214.286 247.187 214.219 247.378C214.196 247.411 214.196 247.434 214.196 247.456V249.454C214.196 249.588 214.095 249.678 213.983 249.678C213.848 249.678 213.747 249.588 213.747 249.454V245.347Z" fill="#A6A6A6"/>
<path d="M221.086 246.974C221.086 246.2 220.458 245.571 219.684 245.571C218.909 245.571 218.292 246.2 218.27 246.974V249.454V249.487C218.258 249.521 218.247 249.566 218.225 249.588C218.191 249.645 218.124 249.667 218.056 249.667H218C217.933 249.645 217.877 249.6 217.854 249.544C217.843 249.532 217.843 249.521 217.843 249.51C217.843 249.499 217.832 249.487 217.832 249.487V249.431V246.951V246.873V245.313C217.832 245.19 217.922 245.089 218.056 245.089C218.18 245.089 218.27 245.19 218.27 245.313V245.751C218.606 245.347 219.123 245.089 219.684 245.089C220.705 245.089 221.535 245.93 221.535 246.94V249.42C221.535 249.555 221.434 249.645 221.311 249.645C221.187 249.645 221.086 249.555 221.086 249.42V246.974Z" fill="#A6A6A6"/>
<path d="M227.36 245.336V249.454C227.36 249.577 227.259 249.678 227.135 249.678C227.012 249.678 226.911 249.577 226.911 249.454V248.769C226.518 249.308 225.901 249.667 225.194 249.667C223.993 249.667 223.039 248.635 223.039 247.389C223.039 246.143 223.993 245.111 225.194 245.111C225.889 245.111 226.518 245.47 226.911 246.009V245.336C226.911 245.201 227.012 245.111 227.135 245.111C227.259 245.122 227.36 245.212 227.36 245.336ZM226.911 247.4C226.911 246.379 226.136 245.56 225.194 245.56C224.262 245.56 223.477 246.379 223.477 247.4C223.477 248.421 224.262 249.229 225.194 249.229C226.136 249.229 226.911 248.421 226.911 247.4Z" fill="#A6A6A6"/>
<path d="M235.81 246.974C235.787 246.2 235.181 245.56 234.396 245.56C233.621 245.56 232.993 246.2 232.993 246.974V249.454V249.487C232.993 249.499 232.982 249.51 232.982 249.51V249.532C232.959 249.588 232.914 249.622 232.87 249.656C232.836 249.678 232.791 249.689 232.757 249.689H232.724H232.701C232.69 249.689 232.679 249.678 232.679 249.678C232.656 249.678 232.645 249.656 232.623 249.645C232.612 249.645 232.6 249.633 232.6 249.622L232.578 249.6C232.567 249.588 232.567 249.577 232.555 249.577C232.555 249.566 232.555 249.566 232.544 249.555C232.544 249.555 232.544 249.544 232.533 249.532C232.533 249.521 232.533 249.51 232.522 249.499V249.465V249.443V246.963C232.522 246.188 231.905 245.549 231.119 245.549C230.333 245.549 229.716 246.188 229.716 246.963V249.443C229.716 249.521 229.683 249.577 229.615 249.622C229.604 249.633 229.582 249.656 229.559 249.656C229.548 249.667 229.537 249.667 229.525 249.667H229.503H229.469C229.391 249.656 229.312 249.588 229.279 249.499V249.454V246.974V246.895V245.336C229.279 245.212 229.38 245.122 229.492 245.122C229.626 245.122 229.716 245.212 229.716 245.336V245.773C230.053 245.369 230.558 245.122 231.119 245.122C231.826 245.122 232.432 245.515 232.746 246.087C233.072 245.515 233.689 245.122 234.385 245.122C235.406 245.122 236.236 245.953 236.236 246.974V249.454C236.236 249.566 236.146 249.667 236.012 249.667C235.888 249.667 235.799 249.566 235.799 249.454V246.974H235.81Z" fill="#A6A6A6"/>
<path d="M237.807 247.4C237.807 246.132 238.795 245.111 240.018 245.111C241.185 245.111 242.117 246.042 242.218 247.232V247.243V247.266C242.218 247.389 242.117 247.468 241.993 247.468H238.256C238.301 248.466 239.087 249.218 240.029 249.218C240.635 249.218 241.196 248.904 241.499 248.388C241.567 248.276 241.701 248.253 241.791 248.309C241.892 248.388 241.926 248.511 241.87 248.623C241.477 249.241 240.804 249.656 240.029 249.656C238.795 249.678 237.807 248.657 237.807 247.4ZM238.279 247.041H241.735C241.589 246.188 240.86 245.56 240.018 245.56C239.165 245.56 238.447 246.177 238.279 247.041Z" fill="#A6A6A6"/>
<path d="M187.936 245.313C187.936 246.222 187.207 246.951 186.298 246.951C185.389 246.951 184.66 246.222 184.66 245.313C184.66 244.404 185.389 243.675 186.298 243.675C187.207 243.675 187.936 244.404 187.936 245.313Z" fill="#A6A6A6"/>
<path d="M189.137 249.813H183.47C183.481 248.253 184.749 247.008 186.298 247.008C187.869 247.008 189.115 248.253 189.137 249.813Z" fill="#A6A6A6"/>
<path d="M296.106 263.03H177.994V280.143H296.106V263.03Z" fill="#EBEBEB"/>
<path d="M200.146 269.56C199.63 270.391 198.99 271.098 198.328 271.782C197.643 272.444 196.936 273.084 196.106 273.6C196.622 272.77 197.262 272.063 197.924 271.378C198.609 270.716 199.316 270.088 200.146 269.56Z" fill="#A6A6A6"/>
<path d="M196.106 269.56C196.936 270.077 197.643 270.716 198.328 271.378C198.99 272.063 199.63 272.77 200.146 273.6C199.316 273.084 198.609 272.444 197.924 271.782C197.262 271.098 196.622 270.391 196.106 269.56Z" fill="#A6A6A6"/>
<path d="M200.988 271.58C200.034 271.794 199.08 271.85 198.126 271.861C197.172 271.85 196.218 271.805 195.264 271.58C196.218 271.356 197.172 271.311 198.126 271.3C199.08 271.322 200.034 271.367 200.988 271.58Z" fill="#A6A6A6"/>
<path d="M198.126 268.73C198.339 269.684 198.395 270.638 198.407 271.592C198.395 272.545 198.35 273.499 198.126 274.453C197.902 273.499 197.857 272.545 197.845 271.592C197.857 270.638 197.913 269.684 198.126 268.73Z" fill="#A6A6A6"/>
<path d="M210.01 269.56C209.494 270.391 208.854 271.098 208.192 271.782C207.508 272.444 206.801 273.084 205.97 273.6C206.486 272.77 207.126 272.063 207.788 271.378C208.473 270.716 209.18 270.088 210.01 269.56Z" fill="#A6A6A6"/>
<path d="M205.97 269.56C206.801 270.077 207.508 270.716 208.192 271.378C208.854 272.063 209.494 272.77 210.01 273.6C209.18 273.084 208.473 272.444 207.788 271.782C207.126 271.098 206.486 270.391 205.97 269.56Z" fill="#A6A6A6"/>
<path d="M210.852 271.58C209.898 271.794 208.944 271.85 207.99 271.861C207.036 271.85 206.082 271.805 205.129 271.58C206.082 271.356 207.036 271.311 207.99 271.3C208.944 271.322 209.898 271.367 210.852 271.58Z" fill="#A6A6A6"/>
<path d="M207.99 268.73C208.203 269.684 208.26 270.638 208.271 271.592C208.26 272.545 208.215 273.499 207.99 274.453C207.766 273.499 207.721 272.545 207.71 271.592C207.721 270.638 207.766 269.684 207.99 268.73Z" fill="#A6A6A6"/>
<path d="M219.874 269.56C219.358 270.391 218.719 271.098 218.056 271.782C217.372 272.444 216.665 273.084 215.834 273.6C216.351 272.77 216.99 272.063 217.652 271.378C218.337 270.716 219.044 270.088 219.874 269.56Z" fill="#A6A6A6"/>
<path d="M215.823 269.56C216.654 270.077 217.361 270.716 218.045 271.378C218.707 272.063 219.347 272.77 219.863 273.6C219.033 273.084 218.326 272.444 217.641 271.782C216.99 271.098 216.351 270.391 215.823 269.56Z" fill="#A6A6A6"/>
<path d="M220.705 271.58C219.751 271.794 218.797 271.85 217.843 271.861C216.889 271.85 215.935 271.805 214.982 271.58C215.935 271.356 216.889 271.311 217.843 271.3C218.797 271.322 219.751 271.367 220.705 271.58Z" fill="#A6A6A6"/>
<path d="M217.854 268.73C218.068 269.684 218.124 270.638 218.135 271.592C218.124 272.545 218.079 273.499 217.854 274.453C217.63 273.499 217.585 272.545 217.574 271.592C217.585 270.638 217.63 269.684 217.854 268.73Z" fill="#A6A6A6"/>
<path d="M229.727 269.56C229.211 270.391 228.572 271.098 227.909 271.782C227.225 272.444 226.518 273.084 225.688 273.6C226.204 272.77 226.843 272.063 227.505 271.378C228.19 270.716 228.908 270.088 229.727 269.56Z" fill="#A6A6A6"/>
<path d="M225.688 269.56C226.518 270.077 227.225 270.716 227.909 271.378C228.572 272.063 229.211 272.77 229.727 273.6C228.897 273.084 228.19 272.444 227.505 271.782C226.843 271.098 226.204 270.391 225.688 269.56Z" fill="#A6A6A6"/>
<path d="M230.569 271.58C229.615 271.794 228.661 271.85 227.707 271.861C226.754 271.85 225.8 271.805 224.846 271.58C225.8 271.356 226.754 271.311 227.707 271.3C228.661 271.322 229.615 271.367 230.569 271.58Z" fill="#A6A6A6"/>
<path d="M227.707 268.73C227.921 269.684 227.977 270.638 227.988 271.592C227.977 272.545 227.932 273.499 227.707 274.453C227.483 273.499 227.438 272.545 227.427 271.592C227.438 270.638 227.494 269.684 227.707 268.73Z" fill="#A6A6A6"/>
<path d="M188.217 269.741V271.805H187.633V269.741C187.633 268.955 187.039 268.315 186.298 268.315C185.557 268.315 184.963 268.955 184.963 269.741V271.805H184.379V269.741C184.379 268.618 185.243 267.698 186.298 267.698C187.353 267.698 188.217 268.618 188.217 269.741Z" fill="#A6A6A6"/>
<path d="M183.638 271.053V275.474H188.969V271.053H183.638ZM186.747 274.284H185.793L186.017 273.23C185.883 273.151 185.793 272.994 185.793 272.826C185.793 272.568 186.006 272.354 186.264 272.354C186.522 272.354 186.736 272.568 186.736 272.826C186.736 272.994 186.646 273.14 186.511 273.23L186.747 274.284Z" fill="#A6A6A6"/>
<path d="M256.627 290.61H217.484V302.785H256.627V290.61Z" fill="#E60023"/>
<path d="M227.045 298.51V294.638C227.045 294.436 227.202 294.279 227.404 294.279C227.606 294.279 227.775 294.448 227.775 294.638V298.14H229.548C229.739 298.14 229.907 298.308 229.907 298.51C229.907 298.712 229.739 298.869 229.548 298.869H227.427C227.416 298.869 227.416 298.869 227.416 298.869C227.404 298.869 227.404 298.869 227.404 298.869C227.202 298.88 227.045 298.712 227.045 298.51Z" fill="white"/>
<path d="M234.093 294.852C234.497 295.289 234.755 295.862 234.755 296.512C234.755 297.163 234.497 297.747 234.093 298.173C233.711 298.6 233.128 298.88 232.522 298.88C231.893 298.88 231.31 298.6 230.917 298.173C230.513 297.747 230.266 297.163 230.266 296.512C230.266 295.862 230.513 295.289 230.917 294.852C231.321 294.414 231.893 294.156 232.522 294.156C233.128 294.156 233.7 294.425 234.093 294.852ZM234.003 296.512C234.003 296.064 233.824 295.648 233.554 295.368C233.274 295.076 232.915 294.897 232.522 294.897C232.107 294.897 231.736 295.065 231.456 295.368C231.175 295.66 231.007 296.075 231.007 296.512C231.007 296.95 231.175 297.376 231.456 297.657C231.736 297.949 232.095 298.128 232.522 298.128C232.915 298.128 233.285 297.949 233.554 297.657C233.824 297.376 234.003 296.961 234.003 296.512Z" fill="white"/>
<path d="M235.843 296.524C235.843 295.199 236.932 294.156 238.267 294.156C238.829 294.156 239.356 294.347 239.76 294.672C239.928 294.795 239.962 295.042 239.827 295.199C239.704 295.357 239.457 295.39 239.3 295.256C239.019 295.042 238.66 294.897 238.267 294.897C237.796 294.897 237.381 295.076 237.089 295.379C236.786 295.671 236.595 296.075 236.595 296.524C236.595 296.961 236.775 297.354 237.089 297.657C237.381 297.96 237.796 298.139 238.267 298.139C238.593 298.139 238.907 298.038 239.165 297.893V296.995H238.223C238.021 296.995 237.852 296.827 237.852 296.625C237.852 296.411 238.021 296.254 238.223 296.254H239.513C239.524 296.254 239.524 296.254 239.524 296.254C239.536 296.254 239.536 296.254 239.536 296.254C239.749 296.254 239.917 296.411 239.917 296.625V298.072C239.917 298.117 239.906 298.139 239.895 298.184C239.883 298.196 239.883 298.207 239.883 298.218V298.229C239.861 298.285 239.827 298.341 239.76 298.386C239.345 298.712 238.829 298.903 238.267 298.903C236.932 298.88 235.843 297.836 235.843 296.524Z" fill="white"/>
<path d="M241.421 294.638C241.421 294.436 241.578 294.279 241.78 294.279C241.982 294.279 242.15 294.436 242.15 294.638V298.51C242.15 298.712 241.982 298.869 241.78 298.869C241.578 298.869 241.421 298.712 241.421 298.51V294.638Z" fill="white"/>
<path d="M244.103 298.51C244.103 298.712 243.935 298.869 243.744 298.869C243.542 298.869 243.385 298.701 243.385 298.51V294.695C243.385 294.695 243.385 294.695 243.385 294.683C243.373 294.571 243.43 294.448 243.531 294.38C243.699 294.268 243.923 294.302 244.024 294.459L246.145 297.388V294.683C246.145 294.493 246.302 294.324 246.504 294.324C246.706 294.324 246.864 294.493 246.864 294.683V298.499C246.864 298.701 246.695 298.858 246.504 298.858C246.403 298.858 246.302 298.802 246.235 298.723C246.224 298.712 246.213 298.701 246.201 298.689L244.103 295.772V298.51Z" fill="white"/>
<path d="M264.729 189.951C263.742 190.658 262.732 191.32 261.699 191.96C259.23 193.441 256.616 194.72 253.889 195.741C253.249 195.988 252.598 196.212 251.947 196.437C250.477 196.919 248.962 197.334 247.436 197.671C247.425 197.671 247.413 197.671 247.402 197.682C246.056 197.974 244.686 198.221 243.295 198.4C241.466 195.674 239.973 193.306 238.93 191.477C238.234 190.265 237.314 188.571 236.382 186.664C233.498 180.818 230.457 172.952 233.274 170.809C233.33 170.764 233.375 170.731 233.431 170.697C233.498 170.652 233.577 170.618 233.655 170.574C233.7 170.551 233.745 170.529 233.801 170.506C234.037 170.394 234.317 170.327 234.62 170.293C234.968 170.237 235.361 170.237 235.81 170.282C237.235 170.416 239.143 171.056 241.634 172.324V172.335C242.161 172.593 242.7 172.885 243.284 173.21C243.351 173.244 243.43 173.289 243.508 173.334C248.3 176.049 256.503 182.871 264.729 189.951Z" fill="#FFC4C0"/>
<path d="M266.412 188.695C265.862 189.132 265.301 189.547 264.729 189.951C263.742 190.658 262.732 191.32 261.699 191.96C259.23 193.441 256.615 194.72 253.889 195.741C253.249 195.988 252.598 196.212 251.947 196.437C250.477 196.919 248.962 197.334 247.436 197.671C247.425 197.671 247.413 197.671 247.402 197.682C246.056 197.974 244.686 198.221 243.295 198.4C243.026 198.434 242.745 198.468 242.464 198.501C239.535 193.901 237.067 189.749 235.35 186.507V186.495C235.249 186.305 235.148 186.125 235.058 185.946C234.452 184.767 233.924 183.657 233.476 182.613C233.139 181.828 232.847 181.076 232.6 180.358C232.443 179.886 232.297 179.426 232.163 178.978C232.05 178.585 231.961 178.215 231.871 177.856C231.792 177.485 231.725 177.126 231.669 176.778C231.512 175.847 231.467 175.006 231.534 174.265C231.579 173.592 231.714 172.997 231.927 172.492C232.039 172.223 232.163 171.976 232.32 171.752C232.398 171.639 232.477 171.538 232.555 171.437C232.645 171.336 232.735 171.235 232.836 171.146C232.926 171.056 233.027 170.977 233.139 170.899C233.184 170.865 233.229 170.832 233.274 170.809C233.33 170.764 233.375 170.731 233.431 170.697C233.498 170.652 233.577 170.618 233.655 170.573C233.7 170.551 233.745 170.529 233.801 170.506C233.812 170.495 233.823 170.495 233.835 170.484C234.059 170.383 234.295 170.293 234.553 170.226C236.012 169.844 237.976 170.057 240.343 170.876C240.343 170.876 240.343 170.888 240.355 170.888C241.32 171.213 242.363 171.639 243.463 172.178L243.474 172.189C245.225 173.031 247.122 174.142 249.175 175.51C254.281 178.922 260.42 183.758 266.412 188.695Z" fill="#E60023"/>
<path d="M245.483 178.54C245.214 178.282 244.945 178.035 244.653 177.788H244.642C244.541 177.699 244.44 177.62 244.339 177.541C244.26 177.485 244.193 177.429 244.114 177.373C243.991 177.272 243.867 177.194 243.733 177.115C243.609 177.025 243.486 176.947 243.351 176.868C243.351 176.868 243.351 176.868 243.34 176.868C243.261 176.823 243.194 176.79 243.115 176.745C243.07 176.722 243.014 176.7 242.969 176.677C242.981 176.677 242.969 176.666 242.969 176.666C242.812 176.588 242.655 176.52 242.498 176.453C242.61 176.734 242.745 176.992 242.88 177.239C243.351 178.069 243.957 178.776 244.585 179.438C244.832 179.674 245.079 179.898 245.337 180.122C245.539 180.291 245.741 180.448 245.955 180.605C245.966 180.616 245.977 180.627 245.988 180.627C245.988 180.639 245.999 180.639 245.999 180.639C246.482 180.987 246.998 181.289 247.57 181.525C247.077 180.336 246.314 179.404 245.483 178.54ZM245.483 178.54C245.214 178.282 244.945 178.035 244.653 177.788H244.642C244.541 177.699 244.44 177.62 244.339 177.541C244.26 177.485 244.193 177.429 244.114 177.373C243.991 177.272 243.867 177.194 243.733 177.115C243.609 177.025 243.486 176.947 243.351 176.868C243.351 176.868 243.351 176.868 243.34 176.868C243.261 176.823 243.194 176.79 243.115 176.745C243.07 176.722 243.014 176.7 242.969 176.677C242.981 176.677 242.969 176.666 242.969 176.666C242.812 176.588 242.655 176.52 242.498 176.453C242.61 176.734 242.745 176.992 242.88 177.239C243.351 178.069 243.957 178.776 244.585 179.438C244.832 179.674 245.079 179.898 245.337 180.122C245.539 180.291 245.741 180.448 245.955 180.605C245.966 180.616 245.977 180.627 245.988 180.627C245.988 180.639 245.999 180.639 245.999 180.639C246.482 180.987 246.998 181.289 247.57 181.525C247.077 180.336 246.314 179.404 245.483 178.54Z" fill="white"/>
<path opacity="0.1" d="M261.699 191.96C259.23 193.441 256.616 194.72 253.889 195.741C253.249 195.988 252.598 196.213 251.947 196.437C250.477 196.92 248.962 197.335 247.436 197.671C247.425 197.671 247.413 197.671 247.402 197.683C246.056 197.974 244.686 198.221 243.295 198.401C243.026 198.434 242.745 198.468 242.464 198.502C239.536 193.901 237.067 189.75 235.35 186.507V186.496C235.249 186.305 235.148 186.125 235.058 185.946C234.452 184.768 233.924 183.657 233.476 182.613C233.139 181.828 232.847 181.076 232.6 180.358C232.443 179.887 232.297 179.427 232.163 178.978C232.05 178.585 231.961 178.215 231.871 177.856C231.792 177.486 231.725 177.127 231.669 176.779C231.523 175.848 231.478 175.006 231.534 174.265C231.579 173.592 231.714 172.998 231.927 172.493C232.039 172.223 232.163 171.976 232.32 171.752C232.398 171.64 232.477 171.539 232.555 171.438C232.645 171.337 232.735 171.236 232.836 171.146C232.926 171.056 233.027 170.978 233.139 170.899C233.184 170.866 233.229 170.832 233.274 170.81C233.33 170.765 233.375 170.731 233.431 170.697C233.498 170.652 233.577 170.619 233.655 170.574C233.7 170.551 233.745 170.529 233.801 170.507C233.812 170.495 233.823 170.495 233.835 170.484C234.059 170.383 234.306 170.305 234.564 170.237C234.867 170.159 235.204 170.103 235.563 170.08L235.81 170.282L239.782 173.626C239.782 173.626 239.794 173.637 239.805 173.637L243.026 176.33L244.563 177.62L261.699 191.96Z" fill="#0F0F0F"/>
<path d="M251.947 196.437C250.477 196.919 248.962 197.334 247.436 197.671C247.425 197.671 247.413 197.671 247.402 197.682C246.056 197.974 244.686 198.221 243.295 198.4C243.026 198.434 242.745 198.468 242.464 198.501C240.691 198.703 238.885 198.804 237.055 198.804C231.669 198.804 226.484 197.907 221.647 196.257C221.603 196.246 221.569 196.235 221.524 196.223C221.49 196.201 221.445 196.19 221.412 196.179C221.232 196.111 221.053 196.055 220.873 195.988C216.126 194.271 211.727 191.825 207.811 188.784C209.146 186.439 210.381 184.375 211.536 182.568C212.367 181.267 213.141 180.1 213.882 179.056C213.882 179.034 213.893 179.034 213.893 179.034L213.904 179.022C217.821 173.435 220.525 171.146 222.635 170.035C222.77 169.968 222.904 169.9 223.028 169.844C223.185 169.754 223.342 169.687 223.488 169.631C223.768 169.507 224.038 169.418 224.296 169.328C226.563 168.565 229.952 168.172 233.195 168.464C235.944 168.711 238.593 169.451 240.343 170.876C240.343 170.876 240.343 170.888 240.355 170.888C240.86 171.303 241.297 171.785 241.634 172.324V172.335C242.027 172.952 242.408 173.592 242.779 174.254C242.913 174.489 243.048 174.725 243.183 174.972C243.654 175.825 244.114 176.7 244.563 177.62C244.597 177.676 244.63 177.732 244.642 177.788H244.653C244.877 178.248 245.102 178.708 245.326 179.191C245.551 179.662 245.775 180.133 245.988 180.627C245.988 180.638 245.999 180.638 245.999 180.638C248.076 185.239 250.028 190.479 251.824 196.055C251.869 196.179 251.902 196.302 251.947 196.437Z" fill="#E60023"/>
<path d="M235.664 194.475C234.474 194.497 233.285 194.609 232.084 195.103C233.285 195.608 234.474 195.709 235.664 195.731C236.865 195.709 238.065 195.597 239.255 195.103C238.065 194.609 236.865 194.497 235.664 194.475ZM215.285 178.136C215.116 178.215 214.959 178.316 214.802 178.405C214.645 178.495 214.488 178.596 214.342 178.708C214.263 178.753 214.196 178.798 214.14 178.854C214.061 178.91 213.983 178.966 213.904 179.023L213.893 179.034C213.893 179.034 213.882 179.034 213.882 179.056C213.859 179.067 213.848 179.079 213.837 179.09C213.478 179.37 213.152 179.673 212.827 179.976C211.997 180.84 211.233 181.772 210.728 182.961C211.009 182.849 211.278 182.714 211.536 182.569C212.356 182.109 213.063 181.503 213.714 180.874C214.544 180.021 215.307 179.079 215.801 177.889C215.621 177.968 215.453 178.046 215.285 178.136ZM245.326 179.191C245.102 178.72 244.877 178.248 244.642 177.788C244.541 177.698 244.44 177.62 244.339 177.541C244.26 177.485 244.193 177.429 244.114 177.373C243.991 177.272 243.867 177.194 243.733 177.115C243.609 177.025 243.486 176.947 243.351 176.868C243.351 176.868 243.351 176.868 243.34 176.868C243.261 176.823 243.194 176.79 243.115 176.745C243.07 176.722 243.014 176.689 242.969 176.666C242.812 176.588 242.655 176.52 242.498 176.453C242.61 176.733 242.745 176.992 242.88 177.238C243.351 178.069 243.957 178.776 244.585 179.438C244.832 179.673 245.079 179.898 245.337 180.122C245.539 180.291 245.741 180.448 245.955 180.605C245.966 180.616 245.977 180.627 245.988 180.627C245.775 180.134 245.551 179.662 245.326 179.191ZM245.326 179.191C245.102 178.72 244.877 178.248 244.642 177.788C244.541 177.698 244.44 177.62 244.339 177.541C244.26 177.485 244.193 177.429 244.114 177.373C243.991 177.272 243.867 177.194 243.733 177.115C243.609 177.025 243.486 176.947 243.351 176.868C243.351 176.868 243.351 176.868 243.34 176.868C243.261 176.823 243.194 176.79 243.115 176.745C243.07 176.722 243.014 176.689 242.969 176.666C242.812 176.588 242.655 176.52 242.498 176.453C242.61 176.733 242.745 176.992 242.88 177.238C243.351 178.069 243.957 178.776 244.585 179.438C244.832 179.673 245.079 179.898 245.337 180.122C245.539 180.291 245.741 180.448 245.955 180.605C245.966 180.616 245.977 180.627 245.988 180.627C245.775 180.134 245.551 179.662 245.326 179.191Z" fill="white"/>
<path d="M226.035 177.968C225.721 180.56 224.969 183.791 223.724 187.707C222.758 190.714 221.805 193.463 220.873 195.988C216.126 194.271 211.727 191.825 207.811 188.784C206.868 188.055 205.948 187.281 205.072 186.484C206.666 184.363 208.271 182.31 209.864 180.347C215.161 173.827 219.695 170.293 222.635 170.035C222.747 170.024 222.859 170.012 222.972 170.012C225.474 170.012 226.686 172.593 226.035 177.968Z" fill="#FFC4C0"/>
<path d="M226.664 178.91C226.35 181.783 225.732 184.352 225.586 184.924C225.059 187.045 224.004 190.018 222.714 193.306V193.317C222.332 194.26 221.928 195.236 221.524 196.223C221.49 196.201 221.446 196.19 221.412 196.179C221.232 196.111 221.053 196.055 220.873 195.988C216.126 194.271 211.727 191.825 207.811 188.784C206.868 188.055 205.948 187.281 205.072 186.484C204.758 186.204 204.455 185.923 204.163 185.642C207.564 181.311 210.852 177.676 213.814 175.062C218.146 171.247 221.098 169.721 223.084 169.631C223.23 169.62 223.364 169.62 223.488 169.631C226.911 169.822 227.124 174.703 226.664 178.91Z" fill="#E60023"/>
<path d="M215.285 178.136C215.116 178.215 214.959 178.316 214.802 178.405C214.645 178.495 214.488 178.596 214.342 178.708C214.263 178.753 214.196 178.798 214.14 178.854C214.05 178.922 213.96 178.989 213.882 179.056C213.859 179.067 213.848 179.079 213.837 179.09C213.478 179.37 213.152 179.673 212.827 179.976C211.997 180.84 211.233 181.772 210.728 182.961C211.009 182.849 211.278 182.714 211.536 182.568C212.356 182.108 213.063 181.502 213.713 180.874C214.544 180.021 215.307 179.079 215.801 177.889C215.621 177.968 215.453 178.046 215.285 178.136Z" fill="white"/>
<path d="M222.714 193.306C222.714 193.329 222.714 193.329 222.714 193.34C222.366 194.316 222.007 195.292 221.647 196.257C221.603 196.246 221.569 196.235 221.524 196.224C221.49 196.201 221.445 196.19 221.412 196.179C221.827 195.225 222.242 194.271 222.635 193.306C222.646 193.261 222.702 193.272 222.714 193.306Z" fill="#263238"/>
<path d="M236.752 186.664C231.691 186.854 224.846 177.822 222.747 171.191C222.601 170.731 224.094 166.534 225.654 161.339C226.585 158.186 227.55 154.652 228.201 151.364C228.336 150.691 247.84 160.441 247.84 160.441C247.84 160.441 244.451 166.938 243.351 172.683C243.261 173.165 243.228 173.614 243.228 174.063C243.228 174.13 243.228 174.209 243.216 174.287C243.138 176.935 241.645 186.484 236.752 186.664Z" fill="#FFC4C0"/>
<path d="M229.458 151.701C229.323 157.446 230.131 171.572 241.084 173.985C241.847 174.153 242.554 174.254 243.216 174.288C243.239 174.198 243.228 174.119 243.239 174.052C243.239 173.603 243.272 173.154 243.362 172.683C244.462 166.927 247.851 160.441 247.851 160.441C247.851 160.441 233.767 153.406 229.458 151.701Z" fill="#263238"/>
<path d="M224.689 129.731C222.568 137.238 226.967 158.68 232.365 163.37C240.198 170.17 252.8 170.563 258.512 161.205C264.056 152.127 257.839 124.278 251.824 120.037C242.969 113.787 227.82 118.646 224.689 129.731Z" fill="#FFC4C0"/>
<path d="M243.474 143.274C243.452 143.218 243.373 143.364 243.396 143.431C243.789 144.856 243.991 146.551 242.801 147.336C242.767 147.359 242.79 147.437 242.835 147.415C244.361 146.809 244.069 144.565 243.474 143.274Z" fill="#263238"/>
<path d="M241.825 142.085C239.479 142.466 240.4 147.134 242.577 146.787C244.731 146.439 243.8 141.771 241.825 142.085Z" fill="#263238"/>
<path d="M251.768 141.614C251.768 141.558 251.891 141.658 251.902 141.715C252.149 143.173 252.665 144.8 254.068 145.014C254.113 145.025 254.124 145.092 254.068 145.092C252.43 145.193 251.756 143.028 251.768 141.614Z" fill="#263238"/>
<path d="M252.755 139.841C255.044 139.201 256.155 143.835 254.034 144.419C251.947 145.014 250.836 140.379 252.755 139.841Z" fill="#263238"/>
<path d="M239.637 139.796C240.243 139.516 240.759 139.145 241.32 138.809C241.959 138.427 242.509 138.18 242.846 137.473C243.026 137.092 242.812 136.52 242.453 136.306C241.634 135.824 240.725 136.093 239.928 136.531C239.064 137.002 238.526 137.586 238.155 138.495C237.807 139.37 238.84 140.167 239.637 139.796Z" fill="#263238"/>
<path d="M254.483 137.945C253.821 138.023 253.193 137.978 252.531 137.978C251.779 137.99 251.184 138.068 250.533 137.63C250.185 137.395 250.062 136.789 250.264 136.43C250.713 135.588 251.633 135.352 252.531 135.308C253.507 135.263 254.281 135.476 255.067 136.059C255.819 136.632 255.359 137.855 254.483 137.945Z" fill="#263238"/>
<path d="M244.361 155.953C244.653 156.346 244.933 156.873 245.45 156.997C245.955 157.12 246.583 156.986 247.077 156.873C247.122 156.862 247.166 156.918 247.133 156.963C246.673 157.468 245.82 157.693 245.158 157.468C244.518 157.255 244.282 156.627 244.215 155.998C244.204 155.908 244.316 155.897 244.361 155.953Z" fill="#263238"/>
<path d="M245.607 151.725C246.662 152.824 247.997 153.273 249.332 153.262C249.927 153.262 250.533 153.161 251.117 152.993C251.229 152.97 251.341 152.936 251.442 152.892C251.543 152.858 251.633 152.824 251.745 152.779C251.913 152.723 251.97 152.566 251.97 152.398V152.387C251.958 152.33 251.947 152.297 251.925 152.241C251.925 152.241 251.925 152.241 251.925 152.23L251.902 152.106C251.711 150.984 251.263 149.312 251.263 149.312C251.711 149.435 253.967 149.952 253.821 149.379C252.576 144.621 251.195 139.325 248.951 134.848C248.884 134.69 248.648 134.78 248.693 134.937C249.703 139.561 251.532 143.971 252.62 148.594C251.913 148.47 250.735 148.223 250.152 148.347C250.006 148.425 251.072 151.567 251.117 152.072C251.117 152.072 251.117 152.095 251.117 152.129C249.288 152.734 247.773 152.454 245.708 151.556C245.584 151.511 245.494 151.624 245.607 151.725Z" fill="#263238"/>
<path d="M223.847 146.517C229.537 146.797 232.365 139.953 230.917 134.533C230.917 134.533 246.078 136.216 246.549 124.065C246.549 124.065 249.635 129.271 256.492 129.305L258.276 133.748C259.814 133.265 261.374 128.822 257.513 125.445C257.513 125.445 257.12 119.397 252.587 115.862C248.053 112.328 243.665 114.808 243.665 114.808C243.665 114.808 240.052 111.924 234.497 112.754C228.942 113.585 226.754 118.712 226.754 118.712C226.754 118.712 219.291 120.306 218.135 125.647C216.968 130.988 219.796 134.5 219.796 134.5C219.796 134.5 217.955 136.632 219.01 141.153C219.684 144.048 222.13 146.427 223.847 146.517Z" fill="#263238"/>
<path d="M246.19 122.987C246.314 123.975 246.37 124.974 246.291 125.95C246.258 126.937 246.067 127.902 245.809 128.834C245.236 130.685 244.058 132.312 242.397 133.266C240.792 134.344 238.772 134.557 236.853 134.781C235.877 134.77 234.89 134.837 233.902 134.77C232.914 134.691 231.927 134.59 230.928 134.534C231.904 134.748 232.881 134.916 233.868 135.118C234.856 135.252 235.866 135.252 236.876 135.331C238.873 135.208 240.972 134.994 242.767 133.872C244.541 132.795 245.842 130.977 246.325 128.991C246.785 126.982 246.706 124.918 246.19 122.987Z" fill="#263238"/>
<path d="M254.124 129.844C252.43 129.271 250.836 128.52 249.489 127.476C248.794 126.971 248.21 126.343 247.683 125.669C247.133 124.996 246.774 124.211 246.358 123.403C246.482 124.289 246.729 125.187 247.234 125.972C247.694 126.769 248.322 127.476 249.063 128.037C249.804 128.598 250.612 129.047 251.476 129.35C252.329 129.631 253.226 129.833 254.124 129.844Z" fill="#263238"/>
<path d="M229.66 147.179C229.66 147.179 224.509 140.424 221.423 142.287C218.337 144.149 222.411 154.092 226.181 155.315C229.941 156.538 231.153 153.082 231.153 153.082L229.66 147.179Z" fill="#FFC4C0"/>
<path d="M222.669 145.103C222.613 145.103 222.601 145.182 222.657 145.204C225.306 146.147 226.765 148.503 227.831 150.961C227.023 150.029 225.946 149.547 224.689 150.523C224.621 150.579 224.689 150.68 224.767 150.658C225.822 150.389 226.596 150.534 227.348 151.365C227.887 151.948 228.257 152.7 228.65 153.373C228.785 153.598 229.2 153.463 229.099 153.194C229.088 153.171 229.088 153.149 229.077 153.138C229.009 149.827 226.237 145.294 222.669 145.103Z" fill="#263238"/>
<g opacity="0.2">
<path opacity="0.2" d="M236.494 149.187C236.483 149.378 236.326 149.524 236.135 149.513C235.944 149.502 235.799 149.344 235.81 149.154C235.821 148.963 235.978 148.817 236.169 148.828C236.348 148.839 236.494 148.997 236.494 149.187Z" fill="#0F0F0F"/>
<path opacity="0.2" d="M243.71 149.165C243.699 149.356 243.542 149.502 243.351 149.49C243.16 149.479 243.014 149.322 243.026 149.131C243.037 148.94 243.194 148.795 243.385 148.806C243.564 148.817 243.721 148.974 243.71 149.165Z" fill="#0F0F0F"/>
<path opacity="0.2" d="M241.062 151.577C241.05 151.768 240.893 151.914 240.703 151.903C240.512 151.891 240.366 151.734 240.377 151.544C240.388 151.353 240.545 151.207 240.736 151.218C240.927 151.229 241.073 151.386 241.062 151.577Z" fill="#0F0F0F"/>
<path opacity="0.2" d="M236.809 146.349C236.797 146.539 236.64 146.685 236.449 146.674C236.259 146.663 236.113 146.506 236.124 146.315C236.135 146.124 236.292 145.978 236.483 145.99C236.663 146.001 236.82 146.158 236.809 146.349Z" fill="#0F0F0F"/>
<path opacity="0.2" d="M240.119 148.436C240.108 148.627 239.951 148.773 239.76 148.761C239.569 148.75 239.423 148.593 239.435 148.402C239.446 148.211 239.603 148.066 239.794 148.077C239.984 148.088 240.13 148.245 240.119 148.436Z" fill="#0F0F0F"/>
<path opacity="0.2" d="M258.052 144.228C258.041 144.419 257.884 144.565 257.693 144.553C257.502 144.542 257.356 144.385 257.367 144.194C257.379 144.003 257.536 143.858 257.727 143.869C257.917 143.88 258.063 144.037 258.052 144.228Z" fill="#0F0F0F"/>
<path opacity="0.2" d="M255.291 146.068C255.28 146.259 255.123 146.405 254.932 146.394C254.741 146.382 254.596 146.225 254.607 146.035C254.618 145.844 254.775 145.698 254.966 145.709C255.145 145.72 255.291 145.877 255.291 146.068Z" fill="#0F0F0F"/>
<path opacity="0.2" d="M255.875 148.357C255.864 148.548 255.707 148.694 255.516 148.683C255.325 148.672 255.179 148.514 255.19 148.324C255.202 148.133 255.359 147.987 255.549 147.998C255.74 148.01 255.886 148.178 255.875 148.357Z" fill="#0F0F0F"/>
<path opacity="0.2" d="M258.288 146.887C258.276 147.078 258.119 147.224 257.928 147.213C257.738 147.201 257.592 147.044 257.603 146.854C257.614 146.663 257.771 146.517 257.962 146.528C258.142 146.539 258.288 146.697 258.288 146.887Z" fill="#0F0F0F"/>
</g>
<path d="M175.918 450.535C179.048 451.669 271.664 453.498 275.154 451.366C275.558 451.153 277.073 420.509 277.073 420.509C276.961 420.072 278.51 417.121 280.867 413.014C287.476 401.491 300.382 380.856 300.382 380.856L245.405 364.239L222.826 409.468L217.069 421.003C217.069 421.003 204.444 425.94 193.424 430.855C193.413 430.866 193.39 430.866 193.39 430.888C186.601 433.907 180.709 436.678 179.329 437.71C175.805 440.437 172.798 449.425 175.918 450.535Z" fill="#FFC4C0"/>
<path d="M175.918 450.535C179.048 451.669 271.664 453.498 275.154 451.366C275.558 451.152 277.073 420.509 277.073 420.509C276.961 420.072 278.51 417.121 280.866 413.014L222.826 409.457L217.069 420.992C217.069 420.992 204.444 425.929 193.424 430.843C193.413 430.855 193.39 430.855 193.39 430.877C186.601 433.895 180.709 436.667 179.329 437.699C175.805 440.437 172.798 449.425 175.918 450.535Z" fill="white"/>
<path d="M175.536 450.883C178.757 452.028 271.507 453.61 275.076 451.444C276.434 450.625 278.072 436.353 277.073 420.521L217.282 419.567C217.282 419.567 182.651 434.872 178.992 437.677C175.334 440.471 172.315 449.739 175.536 450.883Z" fill="#ABABAB"/>
<path opacity="0.1" d="M275.065 451.433C273.763 452.219 260.577 452.522 244.215 452.522L275.603 420.487L275.615 420.476L277.073 420.509C278.072 436.342 276.434 450.614 275.065 451.433Z" fill="#0F0F0F"/>
<path d="M176.927 447.192C192.481 447.08 255.224 448.078 270.609 449.144C270.733 449.156 270.733 449.234 270.609 449.245C255.19 449.694 192.459 448.179 176.927 447.45C176.591 447.427 176.602 447.192 176.927 447.192Z" fill="#263238"/>
<path d="M185.007 434.434C188.699 434.344 192.268 436.162 194.243 438.395C196.14 440.539 197.744 443.535 197.576 446.755C197.576 446.845 197.397 446.845 197.385 446.755C196.6 440.662 191.157 435.22 184.996 434.636C184.873 434.614 184.884 434.434 185.007 434.434Z" fill="#263238"/>
<path d="M212.378 421.037C218.606 421.059 225.777 423.382 229.559 428.533C229.705 428.735 229.424 428.937 229.234 428.836C223.656 425.84 218.348 423.584 212.255 421.8C211.828 421.665 211.929 421.037 212.378 421.037Z" fill="#263238"/>
<path d="M207.541 422.821C213.77 422.843 220.94 425.166 224.722 430.317C224.868 430.519 224.588 430.721 224.397 430.62C218.82 427.624 213.511 425.368 207.418 423.584C206.991 423.461 207.092 422.821 207.541 422.821Z" fill="#263238"/>
<path d="M202.705 424.616C208.933 424.639 216.104 426.962 219.886 432.112C220.032 432.314 219.751 432.516 219.56 432.415C213.983 429.419 208.675 427.164 202.581 425.379C202.155 425.256 202.256 424.616 202.705 424.616Z" fill="#263238"/>
<path d="M197.868 426.4C204.096 426.423 211.267 428.746 215.049 433.896C215.195 434.098 214.914 434.3 214.723 434.199C209.146 431.203 203.838 428.948 197.744 427.163C197.318 427.04 197.419 426.4 197.868 426.4Z" fill="#263238"/>
<path d="M266.895 434.322C273.875 434.457 273.673 445.308 266.682 445.173C259.702 445.027 259.904 434.176 266.895 434.322Z" fill="#263238"/>
<path d="M206.273 413.44C209.561 417.828 214.622 420.644 218.999 423.786C219.448 424.111 219.987 423.752 220.121 423.303C220.222 423.315 220.323 423.258 220.323 423.124C220.065 417.76 218.012 411.567 214.937 407.112C213.04 404.363 209.112 401.749 205.925 404.307C202.918 406.731 204.354 410.882 206.273 413.44ZM206.071 408.279C206.801 401.524 212.827 406.82 214.14 408.907C214.982 410.243 215.689 411.701 216.339 413.138C217.709 416.145 218.629 419.298 219.684 422.417C217.63 420.745 215.442 419.264 213.332 417.659C210.818 415.763 205.667 412.015 206.071 408.279Z" fill="#263238"/>
<path d="M242.498 419.545C242.083 415.472 237.459 414.518 234.171 415.09C228.852 416.021 222.994 418.905 218.988 422.485C218.887 422.575 218.921 422.687 218.999 422.743C218.786 423.158 218.898 423.786 219.448 423.887C224.756 424.808 230.322 426.446 235.754 425.705C238.918 425.268 242.891 423.394 242.498 419.545ZM227.775 423.629C225.149 423.237 222.568 422.732 219.931 422.44C222.893 421.004 225.788 419.455 228.897 418.322C230.378 417.783 231.916 417.256 233.464 416.919C235.866 416.403 243.878 416.964 239.569 422.238C237.201 425.133 230.906 424.089 227.775 423.629Z" fill="#263238"/>
<path d="M285.052 412.419L219.841 402.534C219.841 402.534 251.184 340.07 270.598 306.162C281.383 287.311 310.908 286.391 325.261 308.978C344.44 339.15 359.32 367.414 367.849 383.089L382.64 384.357L379.453 408.526L330.289 419.533C311.458 421.788 298.238 388.262 297.935 388.834C295.534 393.232 285.052 412.419 285.052 412.419Z" fill="#263238"/>
<path d="M297.576 388.98C299.428 385.188 300.875 381.148 302.525 377.255C304.119 373.485 305.723 369.726 307.306 365.956C310.504 358.337 313.815 350.752 316.923 343.1C318.662 338.802 320.267 334.449 321.894 330.106C321.928 330.005 322.096 330.05 322.063 330.163C320.806 334.269 319.493 338.353 318.124 342.426C318.494 341.72 318.853 341.024 319.235 340.34C320.278 338.466 321.367 336.614 322.444 334.763C322.489 334.696 322.59 334.763 322.557 334.83C321.558 336.693 320.559 338.544 319.515 340.373C318.999 341.282 318.438 342.191 317.888 343.1C314.017 354.489 309.629 365.687 304.366 376.514C302.289 380.767 299.865 384.84 297.789 389.092C297.711 389.238 297.509 389.115 297.576 388.98Z" fill="#37474F"/>
<path d="M283.593 400.829C286.736 395.982 294.221 381.294 296.903 376.222C302.323 365.956 307.294 355.476 311.985 344.861C314.634 338.858 317.114 332.81 319.571 326.729C319.583 326.684 319.65 326.706 319.639 326.751C315.947 337.702 311.548 348.44 306.767 358.965C301.986 369.501 286.556 397.9 283.784 400.963C283.694 401.064 283.515 400.952 283.593 400.829Z" fill="#37474F"/>
<path d="M324.083 334.83C329.705 344.861 335.439 354.825 341.084 364.845C343.935 369.905 346.785 374.977 349.613 380.049C350.937 382.438 352.228 384.862 353.608 387.218C354.91 389.451 356.47 391.303 358.759 392.559C361.284 393.951 364.19 394.613 366.94 395.409C370.116 396.341 373.258 397.339 376.445 398.214C376.591 398.259 376.524 398.473 376.378 398.439C373.538 397.676 370.666 397.025 367.815 396.318C365.223 395.679 362.552 395.14 360.038 394.22C357.76 393.39 355.796 392.155 354.27 390.237C352.643 388.183 351.487 385.782 350.23 383.493C344.597 373.193 339.008 362.848 333.476 352.491C330.322 346.6 327.202 340.698 324.015 334.83C324.015 334.83 324.06 334.796 324.083 334.83Z" fill="#37474F"/>
<path d="M286.534 403.276C282.628 402.569 278.622 402.221 274.683 401.716C270.733 401.211 266.783 400.695 262.833 400.178C254.955 399.146 228.123 394.882 226.103 394.209C225.979 394.164 226.024 393.962 226.148 393.951C228.067 393.894 245.64 396.229 249.579 396.812C257.457 397.968 265.29 399.371 273.146 400.695C275.39 401.076 277.623 401.503 279.857 401.895C282.09 402.288 284.323 402.771 286.579 403.062C286.713 403.074 286.668 403.298 286.534 403.276Z" fill="#37474F"/>
<path d="M245.259 464.493C246.437 461.385 305.499 390.023 309.382 388.767C309.831 388.598 334.026 407.449 334.026 407.449C334.991 408.862 382.887 400.907 382.887 400.907L380.867 458.176L294.49 452.577C294.49 452.577 282.516 458.939 271.586 464.056C271.563 464.056 271.563 464.067 271.552 464.056C264.83 467.231 258.882 469.902 257.21 470.261C252.834 471.181 244.058 467.579 245.259 464.493Z" fill="#FFC4C0"/>
<path d="M257.21 470.261C258.894 469.902 264.83 467.242 271.552 464.056C271.563 464.067 271.575 464.056 271.597 464.056C282.516 458.928 294.49 452.566 294.49 452.566L313.714 453.812L345.943 406.517C339.277 407.404 334.317 407.886 334.014 407.437C334.014 407.437 309.831 388.587 309.382 388.767C305.51 390.023 246.448 461.374 245.259 464.482C244.069 467.579 252.834 471.192 257.21 470.261Z" fill="white"/>
<path d="M244.743 464.561C245.977 461.374 305.297 390.068 309.27 388.778C310.773 388.284 322.658 396.352 334.014 407.437L295.725 453.363C295.725 453.363 261.531 469.61 257.008 470.564C252.508 471.506 243.508 467.747 244.743 464.561Z" fill="#ABABAB"/>
<path d="M248.446 465.919C258.68 454.204 298.867 406.013 308.091 393.67C308.17 393.569 308.103 393.513 308.013 393.603C297.61 404.991 257.828 453.509 248.244 465.761C248.053 466.008 248.233 466.165 248.446 465.919Z" fill="#263238"/>
<path d="M263.394 468.119C265.863 465.381 266.828 461.487 266.424 458.536C266.042 455.697 264.808 452.533 262.26 450.558C262.193 450.502 262.081 450.636 262.137 450.704C266.244 455.282 266.816 462.946 263.237 467.996C263.169 468.097 263.304 468.209 263.394 468.119Z" fill="#263238"/>
<path d="M291.404 456.125C295.455 451.4 298.373 444.443 296.937 438.215C296.88 437.968 296.544 438.058 296.499 438.26C295.13 444.443 293.368 449.93 290.753 455.721C290.562 456.125 291.112 456.473 291.404 456.125Z" fill="#263238"/>
<path d="M286.893 458.627C290.944 453.903 293.862 446.945 292.425 440.717C292.369 440.482 292.032 440.56 291.988 440.762C290.618 446.945 288.857 452.433 286.242 458.223C286.051 458.627 286.601 458.963 286.893 458.627Z" fill="#263238"/>
<path d="M282.381 461.118C286.433 456.394 289.35 449.436 287.914 443.208C287.858 442.973 287.521 443.051 287.476 443.253C286.107 449.436 284.345 454.924 281.731 460.714C281.54 461.118 282.09 461.454 282.381 461.118Z" fill="#263238"/>
<path d="M277.87 463.62C281.921 458.896 284.839 451.938 283.403 445.71C283.347 445.464 283.01 445.553 282.965 445.755C281.596 451.938 279.834 457.426 277.219 463.216C277.029 463.62 277.578 463.957 277.87 463.62Z" fill="#263238"/>
<path d="M316.912 406.148C321.356 400.762 313.007 393.838 308.551 399.236C304.107 404.611 312.457 411.534 316.912 406.148Z" fill="#263238"/>
<path d="M299.877 471.91C303.894 471.158 304.478 466.48 303.636 463.248C302.267 458.019 298.923 452.42 295.018 448.729C294.917 448.639 294.816 448.684 294.759 448.762C294.333 448.583 293.705 448.74 293.66 449.301C293.177 454.664 292.01 460.342 293.188 465.694C293.873 468.825 296.072 472.628 299.877 471.91ZM294.58 457.593C294.748 454.945 295.051 452.331 295.119 449.682C296.791 452.521 298.575 455.27 299.966 458.277C300.629 459.714 301.279 461.195 301.74 462.709C302.458 465.066 302.548 473.088 296.948 469.229C293.873 467.097 294.378 460.735 294.58 457.593Z" fill="#263238"/>
<path d="M303.12 435.365C299.013 439.001 296.622 444.286 293.862 448.91C293.57 449.392 293.985 449.886 294.434 449.998C294.434 450.099 294.49 450.2 294.625 450.178C299.955 449.482 305.959 446.924 310.134 443.501C312.715 441.38 315.004 437.262 312.187 434.288C309.528 431.472 305.521 433.245 303.12 435.365ZM308.248 434.748C315.049 434.928 310.257 441.358 308.293 442.839C307.036 443.793 305.634 444.612 304.253 445.386C301.369 447.002 298.306 448.18 295.276 449.482C296.779 447.294 298.07 445.005 299.495 442.76C301.178 440.09 304.5 434.647 308.248 434.748Z" fill="#263238"/>
<path d="M355.044 386.444C355.044 386.444 429.11 376.503 453.35 383.033C487.162 392.144 491.034 432.751 464.998 448.201C432.005 467.781 317.563 456.875 317.563 456.875L349.512 403.039C349.512 403.039 397.453 394.108 440.433 397.575L353.72 408.301L355.044 386.444Z" fill="#263238"/>
<path d="M347.301 406.653C347.346 406.586 347.357 406.44 347.38 406.361C347.402 406.283 347.425 406.204 347.447 406.126C347.492 405.946 347.548 405.755 347.604 405.576C347.716 405.194 347.862 404.835 348.008 404.465C348.154 404.095 348.322 403.747 348.491 403.388C348.67 403.017 348.895 402.726 349.108 402.4C349.13 402.367 349.164 402.367 349.198 402.344C349.22 402.333 349.231 402.322 349.254 402.299C349.276 402.288 349.299 402.266 349.332 402.266C349.355 402.254 349.377 402.243 349.411 402.232C354.674 401.39 390.394 397.339 395.691 396.913C401.033 396.475 406.397 396.161 411.75 395.903C422.433 395.387 433.15 395.364 443.811 396.027C444.81 396.094 445.809 396.172 446.808 396.262C447.021 396.195 447.256 396.161 447.47 396.116C447.986 396.004 448.502 395.881 449.03 395.802C450.006 395.645 450.982 395.533 451.958 395.409C453.99 395.162 456.032 395.005 458.052 394.68C458.176 394.658 458.209 394.86 458.086 394.893C456.043 395.297 454.035 395.858 451.992 396.251C451.409 396.363 450.814 396.475 450.219 396.588C454.124 396.98 458.018 397.485 461.912 398.046C462.036 398.069 462.025 398.271 461.901 398.26C456.604 397.687 451.24 397.407 445.921 397.272C440.624 397.137 435.339 397.036 430.042 397.137C419.336 397.351 408.619 397.934 397.924 398.697C391.92 399.124 355.505 403.365 349.501 403.376C349.478 403.376 349.456 403.365 349.422 403.365C349.366 403.511 349.31 403.668 349.231 403.814C349.052 404.162 348.872 404.51 348.682 404.858C348.491 405.183 348.311 405.52 348.098 405.834C347.997 405.991 347.885 406.148 347.784 406.294C347.728 406.373 347.683 406.451 347.627 406.53C347.582 406.597 347.481 406.698 347.458 406.777C347.425 406.889 347.223 406.788 347.301 406.653Z" fill="#37474F"/>
<path d="M333.981 453.509C335.866 450.412 337.504 447.091 339.255 443.893C341.006 440.684 342.756 437.475 344.507 434.266C348.008 427.87 360.498 406.372 361.71 404.891C361.789 404.801 361.935 404.913 361.89 405.025C361.273 406.708 353.44 420.947 351.633 424.122C348.031 430.473 344.271 436.689 340.557 442.95C339.491 444.734 338.402 446.507 337.325 448.28C336.259 450.053 335.114 451.803 334.127 453.632C334.07 453.733 333.913 453.621 333.981 453.509Z" fill="#37474F"/>
<path d="M363.652 410.782C366.839 410.087 370.082 409.683 373.303 409.166C376.524 408.639 379.744 408.123 382.965 407.607C389.406 406.574 395.859 405.609 402.312 404.7C415.184 402.894 428.1 401.48 441.051 400.683C448.367 400.234 455.684 400.043 463.001 399.774C463.158 399.774 463.136 400.043 462.978 400.043C449.961 400.122 436.91 401.491 423.959 402.972C411.132 404.431 398.339 406.092 385.546 407.898C381.933 408.403 378.33 408.931 374.717 409.458C371.058 409.997 367.378 410.692 363.697 411.04C363.562 411.029 363.506 410.816 363.652 410.782Z" fill="#37474F"/>
<path d="M363.641 318.089C356.548 330.465 328.302 368.648 319.414 369.916C310.167 371.24 276.075 368.312 269.858 360.996C266.816 357.417 271.72 326.684 276.445 328.401C281.169 330.117 310.336 337.164 314.084 336.614C317.81 336.075 348.053 306.801 359.197 300.495C378.409 289.589 367.467 311.413 363.641 318.089Z" fill="#FFC4C0"/>
<path d="M283.953 329.366L276.759 367.448C276.759 367.448 310.908 374.449 320.974 371.498C331.052 368.547 359.186 328.546 367.389 312.726C375.592 296.905 368.421 292.753 353.698 302.605C338.974 312.456 315.341 334.561 313.051 334.662C310.762 334.74 283.953 329.366 283.953 329.366Z" fill="#ABABAB"/>
<path d="M357.278 305.533C356.481 306.364 355.729 307.273 355.247 308.428C356.402 307.946 357.311 307.205 358.142 306.397C358.939 305.567 359.69 304.658 360.173 303.502C359.017 303.985 358.119 304.737 357.278 305.533ZM283.605 363.566C282.438 363.588 281.282 363.7 280.126 364.171C281.282 364.654 282.438 364.766 283.605 364.789C284.761 364.766 285.916 364.654 287.084 364.171C285.916 363.7 284.761 363.588 283.605 363.566ZM339.412 352.188C338.245 352.21 337.089 352.323 335.922 352.794C337.089 353.276 338.245 353.389 339.412 353.411C339.558 353.411 339.726 353.4 339.872 353.4C340.164 353.03 340.467 352.659 340.77 352.278C340.299 352.222 339.861 352.199 339.412 352.188ZM315.105 361.31C314.623 362.466 314.522 363.633 314.499 364.789C314.522 365.944 314.623 367.111 315.105 368.267C315.588 367.111 315.689 365.944 315.722 364.789C315.7 363.633 315.588 362.466 315.105 361.31ZM343.71 324.092C343.228 325.248 343.115 326.403 343.104 327.57C343.127 328.726 343.228 329.893 343.71 331.049C344.193 329.893 344.294 328.726 344.316 327.57C344.316 326.403 344.193 325.248 343.71 324.092ZM357.278 305.533C356.481 306.364 355.729 307.273 355.247 308.428C356.402 307.946 357.311 307.205 358.142 306.397C358.939 305.567 359.69 304.658 360.173 303.502C359.017 303.985 358.119 304.737 357.278 305.533ZM320.548 336.917C319.751 337.747 318.999 338.645 318.517 339.812C319.672 339.318 320.581 338.589 321.412 337.77C322.209 336.939 322.961 336.042 323.443 334.875C322.287 335.369 321.378 336.109 320.548 336.917ZM286.074 329.792H286.062C285.961 329.882 285.86 329.983 285.748 330.084C284.951 330.914 284.199 331.812 283.717 332.979C284.873 332.496 285.771 331.756 286.612 330.936C286.881 330.645 287.151 330.364 287.398 330.05C286.915 329.96 286.466 329.871 286.074 329.792ZM299.821 348.642C298.99 347.846 298.092 347.094 296.925 346.611C297.408 347.767 298.148 348.676 298.968 349.506C299.798 350.303 300.696 351.055 301.852 351.537C301.369 350.382 300.617 349.484 299.821 348.642ZM339.412 352.188C338.245 352.21 337.089 352.323 335.922 352.794C337.089 353.276 338.245 353.389 339.412 353.411C339.558 353.411 339.726 353.4 339.872 353.4C340.164 353.03 340.467 352.659 340.77 352.278C340.299 352.222 339.861 352.199 339.412 352.188ZM343.71 324.092C343.228 325.248 343.115 326.403 343.104 327.57C343.127 328.726 343.228 329.893 343.71 331.049C344.193 329.893 344.294 328.726 344.316 327.57C344.316 326.403 344.193 325.248 343.71 324.092Z" fill="white"/>
<path d="M290.125 350.123C290.708 347.105 292.941 335.032 293.267 332.002C293.267 331.958 293.2 331.924 293.177 331.98C292.302 334.819 289.743 346.668 289.148 349.686C287.981 355.7 286.68 361.725 286.175 367.852C286.163 367.964 286.332 368.02 286.365 367.908C288.026 362.073 288.98 356.07 290.125 350.123Z" fill="#263238"/>
<path opacity="0.1" d="M367.4 312.714C359.186 328.547 331.063 368.547 320.985 371.487C313.354 373.72 291.931 370.253 281.977 368.435L366.906 297.32C371.676 297.668 372.439 302.986 367.4 312.714Z" fill="#0F0F0F"/>
<path d="M337.628 388.217L421.591 393.086C421.49 391.37 408.349 343.223 398.912 324.889C386.803 301.382 381.428 297.791 377.837 296.591C373.235 295.053 363.798 295.065 361.015 299.497C346.011 323.475 336.483 387.151 337.628 388.217Z" fill="#ABABAB"/>
<path d="M358.097 304.804C357.648 305.702 357.21 306.61 356.784 307.575C357.278 307.216 357.727 306.824 358.153 306.408C358.95 305.578 359.702 304.669 360.184 303.514C359.387 303.839 358.714 304.288 358.097 304.804ZM383.369 382.584C382.572 383.414 381.82 384.312 381.338 385.479C382.494 384.997 383.403 384.256 384.233 383.448C385.03 382.607 385.782 381.709 386.264 380.553C385.12 381.036 384.211 381.788 383.369 382.584ZM358.097 304.804C357.648 305.702 357.21 306.61 356.784 307.575C357.278 307.216 357.727 306.824 358.153 306.408C358.95 305.578 359.702 304.669 360.184 303.514C359.387 303.839 358.714 304.288 358.097 304.804ZM407.418 345.815H407.407C407.205 345.703 406.98 345.59 406.756 345.489C407.081 346.264 407.519 346.926 408.013 347.531C407.822 346.959 407.609 346.376 407.418 345.815ZM388.958 306.936C388.621 306.61 388.295 306.307 387.925 306.016L387.914 306.004C387.364 305.578 386.769 305.197 386.074 304.905C386.556 306.061 387.297 306.969 388.105 307.8C388.733 308.406 389.406 308.978 390.203 309.427C390.45 309.573 390.719 309.718 391 309.831C390.506 308.675 389.777 307.766 388.958 306.936ZM366.21 346.185C365.38 345.388 364.482 344.637 363.315 344.154C363.809 345.31 364.538 346.219 365.358 347.049C366.188 347.846 367.086 348.597 368.253 349.08C367.759 347.924 367.018 347.015 366.21 346.185ZM387.285 357.798C386.13 357.821 384.963 357.933 383.807 358.415C384.963 358.887 386.13 358.999 387.285 359.021C388.453 358.999 389.608 358.887 390.764 358.415C389.608 357.944 388.453 357.832 387.285 357.798ZM366.805 320.984C365.638 321.006 364.482 321.118 363.326 321.601C364.482 322.072 365.638 322.184 366.805 322.207C367.961 322.184 369.117 322.083 370.284 321.601C369.117 321.13 367.961 321.017 366.805 320.984ZM357.715 371.139C357.233 372.295 357.121 373.451 357.098 374.618C357.132 375.773 357.233 376.929 357.715 378.096C358.198 376.929 358.299 375.773 358.321 374.618C358.299 373.451 358.198 372.295 357.715 371.139ZM405.757 367.65C405.275 368.817 405.162 369.972 405.14 371.139C405.162 372.295 405.275 373.451 405.757 374.618C406.228 373.451 406.341 372.295 406.363 371.139C406.341 369.972 406.228 368.817 405.757 367.65ZM388.542 330.106C388.06 331.262 387.948 332.417 387.925 333.584C387.948 334.74 388.06 335.896 388.542 337.063C389.014 335.896 389.126 334.74 389.148 333.584C389.126 332.417 389.014 331.262 388.542 330.106Z" fill="white"/>
<path d="M391.842 307.284C413.063 333.371 436.236 376.682 424.891 385.064C414.522 392.716 378.667 382.999 356.346 372.878C352.093 370.949 371.743 333.506 376.041 336.019C383.593 340.44 389.552 343.088 390.125 343.279C391.359 343.683 384.951 334.953 378.386 314.42C371.732 293.572 379.722 292.383 391.842 307.284Z" fill="#FFC4C0"/>
<path d="M320.795 330.218C320.537 334.673 331.59 334.392 331.59 334.392C331.59 334.392 328.875 335.862 327.999 338.701C326.989 341.943 331.635 344.939 331.635 344.939C331.635 344.939 329.2 347.004 328.572 350.09C327.921 353.287 332.174 356.979 332.174 356.979C332.174 356.979 330.962 360.143 332.331 363.195C334.676 368.413 343.463 368.996 348.839 370.421C354.596 371.947 362.934 375.324 366.356 377.041L378.588 337.5C378.588 337.5 355.774 322.263 349.164 322.218C343.609 322.196 321.187 323.396 320.795 330.218Z" fill="#FFC4C0"/>
<path d="M331.68 334.258C337.605 332.877 343.845 332.911 349.86 333.012C349.994 333.012 349.983 333.225 349.849 333.225C343.856 333.057 337.684 334.482 331.702 334.549C331.545 334.549 331.523 334.302 331.68 334.258Z" fill="#263238"/>
<path d="M331.826 344.491C333.173 344.221 334.609 344.39 335.967 344.479C337.437 344.58 338.896 344.704 340.355 344.85C343.284 345.141 346.201 345.5 349.108 345.949C349.231 345.972 349.243 346.174 349.097 346.162C346.179 345.882 343.261 345.635 340.332 345.467C338.873 345.388 337.403 345.321 335.933 345.254C334.575 345.197 333.128 345.254 331.804 344.894C331.613 344.838 331.624 344.535 331.826 344.491Z" fill="#263238"/>
<path d="M332.309 356.979C333.476 356.698 334.867 357.024 336.045 357.17C337.381 357.327 338.705 357.484 340.041 357.63C342.7 357.922 345.371 358.213 348.042 358.415C348.177 358.427 348.165 358.629 348.031 358.629C345.315 358.438 342.599 358.292 339.883 358.079C338.548 357.978 337.213 357.865 335.888 357.742C334.755 357.641 333.33 357.641 332.297 357.125C332.23 357.091 332.252 357.001 332.309 356.979Z" fill="#263238"/>
<path d="M379.677 337.108L368.702 379.768C368.702 379.768 421.939 396.722 428.257 383.37C434.587 370.006 405.544 317.618 388.015 302.167C370.486 286.728 376.131 309.887 376.591 311.738C378.633 319.963 389.014 341.697 389.014 341.697L379.677 337.108Z" fill="#ABABAB"/>
<path d="M388.542 330.106C388.06 331.262 387.948 332.417 387.925 333.584C387.948 334.74 388.06 335.896 388.542 337.063C389.014 335.896 389.126 334.74 389.148 333.584C389.126 332.417 389.014 331.262 388.542 330.106ZM405.757 367.65C405.274 368.817 405.162 369.972 405.14 371.139C405.162 372.295 405.274 373.451 405.757 374.618C406.228 373.451 406.341 372.295 406.363 371.139C406.341 369.972 406.228 368.817 405.757 367.65ZM387.285 357.798C386.13 357.821 384.962 357.933 383.807 358.415C384.962 358.887 386.13 358.999 387.285 359.021C388.453 358.999 389.608 358.887 390.764 358.415C389.608 357.944 388.453 357.832 387.285 357.798ZM388.958 306.936C388.127 306.139 387.229 305.387 386.073 304.905C386.556 306.061 387.297 306.969 388.105 307.8C388.935 308.596 389.844 309.348 391 309.831C390.506 308.675 389.777 307.766 388.958 306.936ZM425.833 380.127C425.003 379.33 424.105 378.578 422.949 378.096C423.432 379.252 424.172 380.16 424.98 380.991C425.811 381.787 426.72 382.539 427.876 383.022C427.382 381.866 426.653 380.957 425.833 380.127ZM409.651 347.52C408.821 346.724 407.912 345.972 406.756 345.489C407.238 346.645 407.979 347.554 408.787 348.384C409.617 349.181 410.526 349.933 411.682 350.415C411.2 349.259 410.448 348.362 409.651 347.52ZM383.369 382.584C383.055 382.921 382.752 383.246 382.46 383.605C382.886 383.706 383.29 383.807 383.728 383.919C383.896 383.773 384.076 383.616 384.233 383.459C385.03 382.618 385.782 381.72 386.264 380.564C385.12 381.036 384.211 381.787 383.369 382.584Z" fill="white"/>
<path d="M380.608 337.186C386.691 339.7 402.503 348.666 405.892 352.178C405.993 352.279 405.869 352.447 405.757 352.358C402.379 349.698 382.819 338.802 379.744 337.433C379.744 337.433 379.576 337.815 379.497 337.904C379.385 338.05 379.307 337.96 379.318 337.815C379.329 337.714 379.565 336.827 379.61 336.771C379.61 336.782 379.935 336.917 380.608 337.186Z" fill="#263238"/>
<path d="M383.941 361.557C384.682 358.584 387.577 346.645 388.071 343.627C388.082 343.582 388.004 343.548 387.981 343.604C386.949 346.387 383.751 358.079 382.999 361.063C381.506 367.01 379.868 372.957 379.037 379.038C379.026 379.151 379.194 379.218 379.228 379.095C381.181 373.361 382.471 367.425 383.941 361.557Z" fill="#263238"/>
<path d="M389.429 341.966C387.925 338.207 386.051 334.594 384.39 330.914C382.729 327.245 380.99 323.587 379.452 319.862C379.43 319.817 379.351 319.851 379.363 319.895C380.283 322.431 381.203 324.956 382.191 327.458C381.876 327.054 381.573 326.639 381.282 326.213C380.754 325.45 380.26 324.653 379.789 323.845C379.755 323.789 379.688 323.834 379.711 323.89C380.07 324.788 380.53 325.618 381.08 326.415C381.484 327.009 381.955 327.548 382.438 328.075C382.842 329.096 383.268 330.106 383.717 331.116C385.367 334.841 386.601 338.521 388.801 341.955C388.879 342.056 389.485 342.09 389.429 341.966Z" fill="#263238"/>
<path d="M420.335 387.825C409.337 389.373 374.784 381.361 368.892 379.824C369.005 379.196 368.993 378.971 369.139 378.085C369.162 377.972 368.982 377.905 368.949 378.028C368.735 378.859 368.084 380.52 368.309 380.621C371.103 381.9 409.595 390.675 420.312 388.083C420.492 388.049 420.503 387.791 420.335 387.825Z" fill="#263238"/>
<path d="M335.024 371.555L290.057 376.637L274.369 313.96L319.336 308.877L335.024 371.555Z" fill="#37474F"/>
<path d="M332.814 371.801L287.847 376.884L272.169 314.207L317.136 309.135L332.814 371.801Z" fill="#455A64"/>
<path d="M296.274 340.889C296.757 343.279 299.114 344.996 301.526 344.727C303.939 344.458 305.51 342.292 305.028 339.902C304.545 337.512 302.188 335.795 299.776 336.064C297.352 336.333 295.781 338.499 296.274 340.889Z" fill="white"/>
<path d="M272.338 327.065C270.363 332.271 264.864 338.981 264.707 343.111C264.561 346.847 267.737 347.902 267.737 347.902C267.737 347.902 263.809 350.269 264.28 354.039C264.527 355.98 267.838 357.304 267.838 357.304C267.838 357.304 264.774 359.335 265.402 362.668C265.896 365.327 269.151 366.247 269.151 366.247C269.151 366.247 267.119 369.568 268.5 372.104C271.294 377.266 294.412 375.403 297.296 366.606C298.642 362.5 293.02 363.263 293.02 363.263C293.02 363.263 300.842 360.222 300.584 355.442C300.326 350.662 293.076 352.098 293.076 352.098C293.076 352.098 300.629 349.08 299.865 344.154C299.069 339.026 292.066 341.697 292.066 341.697C292.066 341.697 296.925 337.803 295.478 334.168C293.076 328.165 283.964 336.681 278.79 335.885L275.311 327.727L272.338 327.065Z" fill="#FFC4C0"/>
<path d="M268.287 334.719C269.734 329.625 263.113 324.014 263.798 318.942C264.718 312.086 272.831 318.089 275.3 327.728L275.906 335.561L268.287 334.719Z" fill="#FFC4C0"/>
<path d="M269.644 366.472C269.566 366.472 269.555 366.584 269.633 366.595C277.388 367.841 286.287 366.831 293.334 363.263C293.57 363.15 293.48 362.724 293.2 362.803C285.232 365.08 277.971 366.472 269.644 366.472Z" fill="#263238"/>
<path d="M267.725 357.361C267.636 357.361 267.636 357.507 267.725 357.529C275.727 358.764 285.714 357.35 293.357 352.289C293.615 352.121 293.682 351.694 293.368 351.874C288.037 354.847 275.222 357.395 267.725 357.361Z" fill="#263238"/>
<path d="M292.504 341.158C284.985 345.725 276.759 347.431 268.062 347.97C267.95 347.981 267.972 348.138 268.062 348.16C272.394 349.058 277.904 348.138 282.123 347.061C286.174 346.028 289.62 344.289 292.661 341.428C292.773 341.304 292.661 341.057 292.504 341.158Z" fill="#263238"/>
<path d="M365.75 313.421C370.666 313.601 377.298 304.849 379.34 298.408C379.475 297.971 378.039 293.886 376.524 288.848C375.615 285.785 374.683 282.363 374.055 279.165C373.931 278.514 355 287.973 355 287.973C355 287.973 358.288 294.279 359.354 299.844C359.432 300.316 359.477 300.753 359.477 301.18C359.477 301.236 359.477 301.314 359.488 301.404C359.556 303.985 361.003 313.242 365.75 313.421Z" fill="#FFC4C0"/>
<path d="M372.831 279.502C372.966 285.078 372.181 298.779 361.553 301.124C360.813 301.292 360.128 301.382 359.488 301.415C359.466 301.326 359.477 301.258 359.466 301.191C359.466 300.765 359.432 300.327 359.354 299.856C358.288 294.279 355 287.973 355 287.973C355 287.973 368.646 281.151 372.831 279.502Z" fill="#263238"/>
<path d="M377.455 258.183C379.509 265.465 375.244 286.268 370.003 290.824C362.406 297.421 350.174 297.803 344.63 288.725C339.255 279.917 345.281 252.898 351.117 248.781C359.724 242.721 374.425 247.423 377.455 258.183Z" fill="#FFC4C0"/>
<path d="M356.728 270.503C356.75 270.458 356.818 270.593 356.806 270.649C356.425 272.029 356.234 273.679 357.379 274.442C357.412 274.464 357.39 274.532 357.345 274.52C355.864 273.937 356.144 271.76 356.728 270.503Z" fill="#263238"/>
<path d="M358.321 269.347C360.599 269.718 359.702 274.24 357.592 273.903C355.505 273.578 356.402 269.044 358.321 269.347Z" fill="#263238"/>
<path d="M348.861 268.988C348.861 268.932 348.738 269.033 348.727 269.089C348.491 270.503 347.986 272.085 346.628 272.299C346.583 272.31 346.572 272.377 346.628 272.377C348.221 272.467 348.872 270.369 348.861 268.988Z" fill="#263238"/>
<path d="M347.896 267.272C345.674 266.654 344.597 271.143 346.662 271.715C348.693 272.288 349.759 267.799 347.896 267.272Z" fill="#263238"/>
<path d="M360.51 266.823C359.926 266.543 359.421 266.195 358.871 265.869C358.243 265.499 357.715 265.263 357.39 264.579C357.222 264.208 357.424 263.647 357.771 263.445C358.568 262.974 359.444 263.243 360.218 263.659C361.048 264.119 361.576 264.68 361.935 265.555C362.283 266.408 361.284 267.193 360.51 266.823Z" fill="#263238"/>
<path d="M346.224 264.59C346.864 264.657 347.481 264.624 348.12 264.624C348.85 264.635 349.422 264.713 350.062 264.287C350.399 264.063 350.511 263.479 350.331 263.12C349.894 262.301 349.007 262.076 348.132 262.032C347.178 261.987 346.437 262.189 345.674 262.761C344.933 263.311 345.382 264.5 346.224 264.59Z" fill="#263238"/>
<path d="M357.042 283.62C356.75 284.001 356.492 284.517 355.987 284.63C355.505 284.753 354.887 284.618 354.416 284.506C354.371 284.495 354.326 284.551 354.371 284.585C354.82 285.067 355.65 285.292 356.29 285.067C356.907 284.854 357.143 284.248 357.21 283.642C357.199 283.575 357.087 283.564 357.042 283.62Z" fill="#263238"/>
<path d="M355.841 279.514C354.809 280.581 353.53 281.018 352.228 281.007C351.644 281.007 351.061 280.906 350.488 280.749C350.376 280.726 350.264 280.693 350.163 280.648C350.062 280.614 349.972 280.581 349.86 280.536C349.703 280.48 349.636 280.322 349.636 280.165V280.154C349.647 280.098 349.658 280.064 349.68 280.008C349.68 280.008 349.68 280.008 349.68 279.997L349.703 279.874C349.882 278.785 350.32 277.169 350.32 277.169C349.882 277.293 347.694 277.798 347.84 277.237C349.052 272.613 350.387 267.485 352.564 263.142C352.632 262.997 352.856 263.075 352.811 263.232C351.824 267.721 350.062 271.996 349.007 276.485C349.703 276.373 350.836 276.126 351.397 276.249C351.543 276.328 350.511 279.369 350.466 279.862C350.466 279.862 350.466 279.885 350.466 279.918C352.239 280.513 353.709 280.233 355.718 279.369C355.852 279.313 355.953 279.425 355.841 279.514Z" fill="#263238"/>
<path d="M351.667 280.871C351.667 280.871 352.508 282.15 353.731 282.655C354.18 282.846 354.674 282.936 355.202 282.823C356.279 282.599 356.357 281.623 356.212 280.781C356.088 280.085 355.808 279.479 355.808 279.479C355.808 279.479 354.169 280.848 351.667 280.871Z" fill="#263238"/>
<path d="M353.732 282.655C354.18 282.846 354.674 282.936 355.202 282.823C356.279 282.599 356.357 281.623 356.212 280.781C355.056 280.837 353.889 281.555 353.732 282.655Z" fill="#FF9BBC"/>
<path d="M378.274 274.464C372.753 274.733 370.003 268.102 371.417 262.828C371.417 262.828 356.705 264.466 356.256 252.674C356.256 252.674 353.271 257.723 346.605 257.757L344.877 262.065C343.385 261.594 341.87 257.285 345.618 254.009C345.618 254.009 345.999 248.141 350.398 244.718C354.798 241.285 359.051 243.697 359.051 243.697C359.051 243.697 362.552 240.903 367.939 241.7C373.325 242.508 375.446 247.479 375.446 247.479C375.446 247.479 382.684 249.016 383.807 254.211C384.94 259.395 382.191 262.806 382.191 262.806C382.191 262.806 383.975 264.87 382.954 269.257C382.314 272.074 379.935 274.385 378.274 274.464Z" fill="#263238"/>
<path d="M356.604 251.641C356.492 252.595 356.425 253.56 356.514 254.514C356.548 255.468 356.728 256.41 356.986 257.308C357.536 259.104 358.68 260.686 360.296 261.606C361.856 262.65 363.809 262.852 365.672 263.076C366.626 263.065 367.58 263.121 368.533 263.065C369.487 262.986 370.452 262.885 371.417 262.829C370.475 263.042 369.521 263.199 368.567 263.39C367.602 263.525 366.626 263.525 365.649 263.592C363.719 263.469 361.677 263.267 359.937 262.178C358.209 261.135 356.952 259.373 356.481 257.443C356.009 255.524 356.088 253.504 356.604 251.641Z" fill="#263238"/>
<path d="M348.895 258.284C350.544 257.723 352.082 257.005 353.395 255.984C354.068 255.49 354.629 254.884 355.146 254.233C355.684 253.583 356.032 252.808 356.425 252.034C356.301 252.887 356.066 253.773 355.583 254.525C355.134 255.299 354.528 255.984 353.81 256.523C353.092 257.061 352.306 257.499 351.476 257.791C350.645 258.082 349.77 258.284 348.895 258.284Z" fill="#263238"/>
<path d="M372.629 275.115C372.629 275.115 377.635 268.562 380.62 270.368C383.616 272.175 379.655 281.814 376.007 283.015C372.36 284.204 371.182 280.849 371.182 280.849L372.629 275.115Z" fill="#FFC4C0"/>
<path d="M379.419 273.095C379.475 273.095 379.486 273.174 379.43 273.196C376.86 274.116 375.446 276.394 374.414 278.784C375.199 277.887 376.243 277.415 377.455 278.358C377.522 278.403 377.455 278.504 377.376 278.493C376.355 278.235 375.603 278.381 374.863 279.177C374.346 279.738 373.976 280.468 373.595 281.13C373.471 281.354 373.067 281.208 373.157 280.961C373.168 280.939 373.168 280.928 373.179 280.905C373.269 277.674 375.951 273.275 379.419 273.095Z" fill="#263238"/>
<g opacity="0.2">
<path opacity="0.2" d="M364.684 277.056C364.696 277.235 364.853 277.381 365.032 277.37C365.212 277.359 365.358 277.202 365.346 277.022C365.335 276.843 365.178 276.697 364.999 276.708C364.819 276.719 364.673 276.876 364.684 277.056Z" fill="#0F0F0F"/>
<path opacity="0.2" d="M357.682 277.034C357.693 277.213 357.85 277.359 358.03 277.348C358.209 277.337 358.355 277.18 358.344 277C358.332 276.82 358.175 276.675 357.996 276.686C357.816 276.697 357.671 276.854 357.682 277.034Z" fill="#0F0F0F"/>
<path opacity="0.2" d="M360.251 279.378C360.263 279.558 360.42 279.704 360.599 279.693C360.779 279.681 360.925 279.524 360.914 279.345C360.902 279.165 360.745 279.019 360.566 279.031C360.386 279.042 360.24 279.199 360.251 279.378Z" fill="#0F0F0F"/>
<path opacity="0.2" d="M364.381 274.307C364.393 274.486 364.55 274.632 364.729 274.621C364.909 274.61 365.055 274.453 365.043 274.273C365.032 274.094 364.875 273.948 364.695 273.959C364.516 273.97 364.37 274.127 364.381 274.307Z" fill="#0F0F0F"/>
<path opacity="0.2" d="M361.161 276.327C361.172 276.506 361.329 276.652 361.508 276.641C361.688 276.63 361.834 276.473 361.823 276.293C361.811 276.114 361.654 275.968 361.475 275.979C361.295 275.99 361.149 276.147 361.161 276.327Z" fill="#0F0F0F"/>
<path opacity="0.2" d="M343.766 272.242C343.778 272.422 343.935 272.568 344.114 272.556C344.294 272.545 344.44 272.388 344.428 272.208C344.417 272.029 344.26 271.883 344.081 271.894C343.901 271.906 343.755 272.063 343.766 272.242Z" fill="#0F0F0F"/>
<path opacity="0.2" d="M346.448 274.026C346.46 274.206 346.617 274.352 346.796 274.341C346.976 274.329 347.122 274.172 347.11 273.993C347.099 273.813 346.942 273.667 346.763 273.678C346.583 273.69 346.437 273.847 346.448 274.026Z" fill="#0F0F0F"/>
<path opacity="0.2" d="M345.876 276.259C345.887 276.439 346.044 276.585 346.224 276.574C346.403 276.562 346.549 276.405 346.538 276.226C346.527 276.046 346.37 275.9 346.19 275.912C346.011 275.923 345.865 276.069 345.876 276.259Z" fill="#0F0F0F"/>
<path opacity="0.2" d="M343.542 274.823C343.553 275.003 343.71 275.149 343.89 275.137C344.069 275.126 344.215 274.969 344.204 274.789C344.193 274.61 344.036 274.464 343.856 274.475C343.677 274.486 343.531 274.644 343.542 274.823Z" fill="#0F0F0F"/>
</g>
<path d="M445.708 226.911C445.708 242.194 433.307 254.603 418.012 254.603C411.828 254.603 406.127 252.573 401.515 249.139L387.948 252.606L393.592 239.972C391.494 236.078 390.316 231.624 390.316 226.911C390.316 211.629 402.716 199.219 418.012 199.219C433.307 199.23 445.708 211.629 445.708 226.911Z" fill="white"/>
<path d="M445.708 226.911C445.663 231.994 444.339 237.122 441.612 241.453C440.994 242.575 440.164 243.551 439.412 244.584C438.537 245.515 437.74 246.525 436.764 247.344C434.912 249.105 432.78 250.564 430.513 251.742C428.257 252.977 425.777 253.717 423.286 254.289C422.018 254.491 420.761 254.738 419.47 254.761C418.191 254.862 416.901 254.862 415.621 254.761C410.482 254.379 405.465 252.516 401.291 249.465L401.627 249.532L388.082 253.089L387.095 253.347L387.51 252.404L393.11 239.759L393.132 240.23C388.969 232.724 388.744 223.276 392.257 215.511C394.008 211.618 396.656 208.151 399.922 205.424C403.187 202.698 407.104 200.79 411.211 199.792C415.33 198.804 419.661 198.737 423.78 199.646C427.898 200.566 431.781 202.44 435.08 205.043C441.769 210.182 445.73 218.53 445.708 226.911ZM445.708 226.911C445.674 218.53 441.656 210.238 434.979 205.166C431.658 202.63 427.775 200.857 423.701 200.016C419.616 199.197 415.363 199.343 411.357 200.375C407.351 201.43 403.58 203.348 400.449 206.053C397.341 208.768 394.827 212.145 393.155 215.904C391.438 219.652 390.776 223.815 390.877 227.921C391.045 232.028 392.145 236.09 394.064 239.714L394.187 239.95L394.075 240.185L388.385 252.797L387.813 252.124L401.403 248.746L401.594 248.702L401.74 248.814C405.746 251.854 410.605 253.762 415.633 254.222C416.889 254.345 418.157 254.368 419.414 254.289C420.682 254.289 421.928 254.065 423.185 253.885C425.654 253.369 428.123 252.685 430.367 251.495C432.634 250.362 434.789 248.971 436.64 247.22C437.628 246.413 438.425 245.414 439.3 244.494C440.052 243.473 440.893 242.508 441.511 241.386C444.271 237.1 445.618 231.994 445.708 226.911Z" fill="#263238"/>
<path d="M417.215 211.708C413.074 215.848 413.074 222.558 417.215 226.698C421.356 230.839 428.067 230.839 432.208 226.698C436.348 222.558 436.348 215.859 432.208 211.708C428.067 207.567 421.367 207.556 417.215 211.708ZM430.053 216.667C429.279 217.441 428.033 217.441 427.247 216.656C426.473 215.882 426.473 214.636 427.247 213.862C428.022 213.088 429.279 213.088 430.053 213.851C430.838 214.636 430.838 215.893 430.053 216.667Z" fill="#E60023"/>
<path d="M415.763 221.276L413.501 223.537L420.381 230.416L422.643 228.155L415.763 221.276Z" fill="#E60023"/>
<path d="M414.6 224.622L419.268 229.291L418.113 230.435L416.194 229.84L416.788 231.77L414.892 233.656L412.333 233.128L412.861 235.687L412.434 236.124L410.504 235.53L411.099 237.46L409.169 236.865L409.763 238.784L408.26 240.288L405.701 239.76L406.228 242.319L404.915 243.632L399.72 244.159L400.247 238.975L414.6 224.622Z" fill="#EBEBEB"/>
<path d="M415.995 227.29L402.624 240.66L402.949 240.985L416.32 227.616L415.995 227.29Z" fill="#DBDBDB"/>
<g opacity="0.1">
<path d="M433.925 219.204C433.947 221.616 432.971 224.029 431.254 225.746C429.559 227.485 427.169 228.529 424.711 228.551C422.265 228.596 419.796 227.631 418.023 225.892C416.25 224.153 415.217 221.695 415.217 219.204C415.217 216.713 416.25 214.255 418.023 212.516C419.785 210.777 422.253 209.8 424.711 209.845C427.169 209.868 429.57 210.911 431.254 212.651C432.982 214.379 433.947 216.78 433.925 219.204ZM433.925 219.204C433.925 216.791 432.915 214.401 431.198 212.718C429.481 211.023 427.09 210.092 424.711 210.137C422.332 210.159 420.009 211.181 418.359 212.864C416.699 214.536 415.745 216.87 415.778 219.215C415.756 221.56 416.699 223.894 418.359 225.566C419.998 227.25 422.321 228.271 424.711 228.293C427.09 228.338 429.481 227.396 431.198 225.712C432.915 224.007 433.925 221.616 433.925 219.204Z" fill="#0F0F0F"/>
</g>
</svg>
