<svg width="15" height="10" viewBox="0 0 15 10" fill="none" xmlns="http://www.w3.org/2000/svg">
<path fill-rule="evenodd" clip-rule="evenodd" d="M7.22204 6.66667C7.10184 6.66667 6.98488 6.62768 6.88871 6.55556L0.3276 1.63333C0.225246 1.55615 0.152733 1.44594 0.122357 1.3214C0.0919803 1.19686 0.10561 1.06564 0.160934 0.95C0.243671 0.779068 0.354464 0.623206 0.488712 0.488889C0.800972 0.176239 1.22461 0.000389005 1.66649 0H12.7776C13.2195 0.000389005 13.6431 0.176239 13.9554 0.488889C14.0896 0.623206 14.2004 0.779068 14.2832 0.95C14.3385 1.06564 14.3521 1.19686 14.3217 1.3214C14.2914 1.44594 14.2188 1.55615 14.1165 1.63333L7.55538 6.55556C7.45921 6.62768 7.34225 6.66667 7.22204 6.66667ZM12.7776 1.11111H1.66649C1.61495 1.103 1.56247 1.103 1.51093 1.11111L7.22204 5.41667L12.9332 1.11111C12.8816 1.103 12.8291 1.103 12.7776 1.11111ZM13.4961 3.4959C13.6002 3.39172 13.7415 3.33319 13.8889 3.33319C14.0362 3.33319 14.1775 3.39172 14.2817 3.4959C14.3859 3.60009 14.4444 3.7414 14.4444 3.88874V8.33319C14.4441 8.77506 14.2682 9.1987 13.9556 9.51096C13.6433 9.82361 13.2197 9.99946 12.7778 9.99985H1.66667C1.22479 9.99946 0.80115 9.82361 0.488889 9.51096C0.176239 9.1987 0.000389005 8.77506 0 8.33319V3.88874C0 3.7414 0.0585316 3.60009 0.162718 3.4959C0.266905 3.39172 0.408213 3.33319 0.555556 3.33319C0.702898 3.33319 0.844206 3.39172 0.948393 3.4959C1.05258 3.60009 1.11111 3.7414 1.11111 3.88874V8.33319C1.11111 8.48053 1.16964 8.62184 1.27383 8.72602C1.37802 8.83021 1.51932 8.88874 1.66667 8.88874H12.7778C12.9251 8.88874 13.0664 8.83021 13.1706 8.72602C13.2748 8.62184 13.3333 8.48053 13.3333 8.33319V3.88874C13.3333 3.7414 13.3919 3.60009 13.4961 3.4959Z" fill="#9C9D9D"/>
</svg>
