<svg width="15" height="15" viewBox="0 0 15 15" fill="none" xmlns="http://www.w3.org/2000/svg">
<path d="M13.9988 11.475C13.9807 10.9721 13.7712 10.5029 13.409 10.1536C12.6998 9.46976 12.1056 9.07498 11.539 8.91126C10.7584 8.68564 10.0353 8.8908 9.38994 9.52105C9.38897 9.52199 9.38801 9.52295 9.38704 9.52392L8.70048 10.2054C8.2714 9.96348 7.43706 9.43241 6.53563 8.53099L6.46881 8.46421C5.56723 7.56266 5.03618 6.72817 4.79454 6.29957L5.47603 5.61298C5.47699 5.61201 5.47796 5.61105 5.47892 5.61006C6.10915 4.96478 6.3143 4.2417 6.08871 3.46096C5.92496 2.89442 5.53021 2.30022 4.84634 1.59103C4.49711 1.22888 4.02787 1.01941 3.525 1.00128C3.02183 0.983128 2.539 1.15827 2.16454 1.4944L2.14997 1.5075C2.14321 1.51357 2.13661 1.51984 2.13016 1.52626C1.38472 2.27171 0.993952 3.31529 1.00007 4.54423C1.01051 6.63191 2.15789 9.01935 4.06928 10.9307C4.4297 11.2911 4.83933 11.6478 5.28677 11.9909C5.50932 12.1615 5.82807 12.1195 5.99872 11.8969C6.1694 11.6743 6.1273 11.3556 5.90473 11.1849C5.49251 10.8688 5.1166 10.5417 4.78743 10.2126C3.06096 8.48615 2.02479 6.36526 2.01568 4.53918C2.01098 3.59271 2.29568 2.80273 2.83912 2.25363L2.84301 2.25013C3.21211 1.9188 3.77094 1.93896 4.11529 2.29603C5.42999 3.65947 5.3348 4.30315 4.75386 4.89886L3.81253 5.84726C3.66491 5.996 3.6238 6.22015 3.70904 6.41159C3.73293 6.46527 4.31105 7.74275 5.75083 9.18254L5.81769 9.24929C7.25729 10.6889 8.5348 11.267 8.58848 11.2909C8.77987 11.3762 9.00407 11.3351 9.15279 11.1874L10.1012 10.2461C10.697 9.66511 11.3407 9.56997 12.704 10.8847C13.0611 11.229 13.0813 11.7878 12.75 12.1569L12.7464 12.1609C12.2018 12.6999 11.4202 12.9844 10.4841 12.9844C10.4764 12.9844 10.4686 12.9844 10.4609 12.9843C9.7126 12.9806 8.84609 12.7755 7.9551 12.3911C7.69764 12.28 7.39877 12.3988 7.28771 12.6563C7.17662 12.9138 7.29533 13.2126 7.55286 13.3237C8.58276 13.768 9.55944 13.9955 10.4558 14C10.4654 14 10.4748 14 10.4843 14C11.7009 14 12.7341 13.6095 13.4738 12.8699C13.4802 12.8634 13.4865 12.8568 13.4925 12.8501L13.5057 12.8354C13.8418 12.461 14.0169 11.9778 13.9988 11.475Z" fill="#0F0F0F" stroke="#0F0F0F" stroke-width="0.2"/>
</svg>
