<svg width="17" height="17" viewBox="0 0 17 17" fill="none" xmlns="http://www.w3.org/2000/svg">
<path d="M14.1445 0C14.9147 0 15.5391 0.624353 15.5391 1.39453V2.125C15.5391 2.39284 15.4636 2.64304 15.3327 2.85547C15.4635 3.06788 15.5391 3.31809 15.5391 3.58594V5.1172C15.5391 6.03236 15.5947 6.94668 15.7057 7.85508L16.0615 10.7677C16.6077 10.9566 17 11.4755 17 12.0859V15.3066C17 16.0768 16.3756 16.7012 15.6055 16.7012H1.39453C0.624353 16.7012 0 16.0768 0 15.3066V12.0859C0 11.4609 0.411173 10.9319 0.97778 10.7547L1.31734 7.75833C1.413 6.91426 1.46094 6.06546 1.46094 5.21598V3.58594C1.46094 2.81576 2.08529 2.19141 2.85547 2.19141L7.9039 2.19142C7.90287 2.16941 7.90234 2.14727 7.90234 2.125V1.39453C7.90234 0.624353 8.5267 0 9.29688 0H14.1445ZM15.6055 12.0195H1.39453C1.35952 12.0195 1.33084 12.0466 1.32831 12.081L1.32812 12.0859V15.3066C1.32812 15.3416 1.35521 15.3703 1.38958 15.3729L1.39453 15.373H15.6055C15.6405 15.373 15.6692 15.346 15.6717 15.3116L15.6719 15.3066V12.0859C15.6719 12.0509 15.6448 12.0222 15.6104 12.0197L15.6055 12.0195ZM9.16406 13.1152C9.49414 13.1152 9.76172 13.3828 9.76172 13.7129C9.76172 14.043 9.49414 14.3105 9.16406 14.3105H7.83594C7.50586 14.3105 7.23828 14.043 7.23828 13.7129C7.23828 13.3828 7.50586 13.1152 7.83594 13.1152H9.16406ZM14.1445 3.51953H2.85547C2.82046 3.51953 2.79178 3.54662 2.78924 3.58098L2.78906 3.58594V5.21598C2.78906 6.08441 2.74174 6.95217 2.64732 7.81541L2.63702 7.90788L2.32156 10.6914H14.7142L14.3874 8.01614C14.2735 7.08435 14.2147 6.14669 14.2111 5.20804L14.2109 5.1172V3.58594C14.2109 3.55093 14.1838 3.52225 14.1495 3.51971L14.1445 3.51953ZM8.5 8.79883C8.83008 8.79883 9.09766 9.06641 9.09766 9.39648C9.09766 9.72656 8.83008 9.99414 8.5 9.99414C8.16992 9.99414 7.90234 9.72656 7.90234 9.39648C7.90234 9.06641 8.16992 8.79883 8.5 8.79883ZM10.5586 8.79883C10.8887 8.79883 11.1562 9.06641 11.1562 9.39648C11.1562 9.72656 10.8887 9.99414 10.5586 9.99414C10.2285 9.99414 9.96094 9.72656 9.96094 9.39648C9.96094 9.06641 10.2285 8.79883 10.5586 8.79883ZM12.6172 8.79883C12.9473 8.79883 13.2148 9.06641 13.2148 9.39648C13.2148 9.72656 12.9473 9.99414 12.6172 9.99414C12.2871 9.99414 12.0195 9.72656 12.0195 9.39648C12.0195 9.06641 12.2871 8.79883 12.6172 8.79883ZM8.5 7.03906C8.83008 7.03906 9.09766 7.30664 9.09766 7.63672C9.09766 7.96679 8.83008 8.23438 8.5 8.23438C8.16992 8.23438 7.90234 7.96679 7.90234 7.63672C7.90234 7.30664 8.16992 7.03906 8.5 7.03906ZM10.5586 7.03906C10.8887 7.03906 11.1562 7.30664 11.1562 7.63672C11.1562 7.96679 10.8887 8.23438 10.5586 8.23438C10.2285 8.23438 9.96094 7.96679 9.96094 7.63672C9.96094 7.30664 10.2285 7.03906 10.5586 7.03906ZM12.6172 7.03906C12.9473 7.03906 13.2148 7.30664 13.2148 7.63672C13.2148 7.96679 12.9473 8.23438 12.6172 8.23438C12.2871 8.23438 12.0195 7.96679 12.0195 7.63672C12.0195 7.30664 12.2871 7.03906 12.6172 7.03906ZM8.43359 4.68164C8.76367 4.68164 9.03125 4.94922 9.03125 5.2793C9.03125 5.60937 8.76367 5.87695 8.43359 5.87695H4.41602C4.08594 5.87695 3.81836 5.60937 3.81836 5.2793C3.81836 4.94922 4.08594 4.68164 4.41602 4.68164H8.43359ZM14.1445 1.32812H9.29688C9.26187 1.32812 9.23319 1.35521 9.23065 1.38958L9.23047 1.39453V2.125C9.23047 2.16001 9.25756 2.18869 9.29192 2.19122L9.29688 2.19141H14.1445C14.1795 2.19141 14.2082 2.16432 14.2108 2.12996L14.2109 2.125V1.39453C14.2109 1.35952 14.1838 1.33084 14.1495 1.32831L14.1445 1.32812Z" fill="#0F0F0F"/>
</svg>
