<svg width="255" height="230" viewBox="0 0 255 230" fill="none" xmlns="http://www.w3.org/2000/svg">
<path d="M227.743 102.363C227.743 158.897 176.761 204.727 113.872 204.727C50.9821 204.727 0 158.897 0 102.363C0 76.4029 10.7505 52.6995 28.4679 34.6545V75.7126C28.4679 78.7233 30.9086 81.1639 33.9192 81.1639C36.9299 81.1639 39.3705 78.7233 39.3705 75.7126V24.9465C43.012 22.1122 46.8554 19.4821 50.8789 17.0759V38.1591C50.8789 41.5043 53.5907 44.2162 56.9359 44.2162C60.2811 44.2162 62.9929 41.5043 62.9929 38.1591V10.761C78.3053 3.87485 95.5851 0 113.872 0C176.761 0 227.743 45.8297 227.743 102.363Z" fill="#FFECEE"/>
<path d="M36.3421 174.139C38.5226 176.562 43.3076 177.571 45.4276 177.773L48.7592 176.259C50.1725 173.23 52.9992 167.052 52.9992 166.568C52.9992 165.962 52.3935 163.842 52.9992 162.933C53.6049 162.025 41.7937 165.659 43.0051 164.751C44.2165 163.842 48.7592 158.996 48.7592 158.694C48.7592 158.451 50.9802 151.324 52.0906 147.791C52.3935 147.286 52.9992 146.095 52.9992 145.368C52.9992 144.641 52.5954 143.45 52.3935 142.945C51.7878 143.046 50.3341 143.309 49.3649 143.551C48.1535 143.854 48.1535 145.368 47.5478 146.277C46.9421 147.185 46.9421 145.974 46.9421 142.34C46.9421 138.705 45.4276 133.557 43.9136 131.134C42.3997 128.711 41.4908 129.923 39.6737 129.923C37.8566 129.923 36.9481 128.409 35.4338 129.923C33.9196 131.437 33.6167 130.831 32.1025 130.831C30.5882 130.831 29.9825 133.86 29.3768 134.466C28.7711 135.071 26.6508 134.163 25.7423 138.705C24.8337 143.248 27.8622 147.791 27.8622 152.031C27.8622 156.271 27.8622 160.814 28.7708 164.751C29.6794 168.688 33.6164 171.11 36.3421 174.139Z" fill="#E9BFB4"/>
<path d="M192.31 194.127C192.915 188.07 191.704 187.162 189.584 184.739L179.59 199.578L182.618 209.572C183.426 209.572 185.647 208.967 188.07 206.544C191.098 203.515 191.704 200.184 192.31 194.127Z" fill="#456CA2"/>
<path d="M187.768 206.847C189.221 204.424 188.777 196.55 188.373 192.916L180.802 188.979L175.351 199.881L172.02 210.481C173.029 210.784 175.654 211.329 178.077 211.087C181.105 210.784 185.951 209.875 187.768 206.847Z" fill="#416192"/>
<path d="M189.886 192.916C191.098 188.373 189.886 187.162 189.281 185.042L178.984 193.521C178.479 194.329 177.651 196.308 178.378 197.761C179.286 199.578 179.286 200.487 181.406 200.184C183.526 199.881 188.675 197.458 189.886 192.916Z" fill="#182D4E"/>
<path d="M184.436 148.397C185.163 146.458 186.96 146.176 187.768 146.277L192.008 148.397L191.099 159.602L186.253 171.413L177.471 168.385C179.49 162.53 183.709 150.335 184.436 148.397Z" fill="#B8C6CF"/>
<path d="M194.127 155.665C192.916 158.088 190.19 167.375 188.979 171.716L185.647 169.596C187.06 165.558 190.008 156.574 190.493 152.939C191.098 148.397 187.464 147.185 185.647 147.791C183.83 148.397 185.042 147.185 185.647 145.671C186.253 144.157 186.253 143.248 188.979 144.157C191.704 145.065 195.944 145.974 196.853 147.185C197.761 148.397 195.641 152.637 194.127 155.665Z" fill="#9DA9BB"/>
<path d="M151.123 157.179C147.792 150.819 142.643 145.368 119.93 136.283L145.066 179.893L153.849 195.338L165.963 208.058L172.929 193.219C173.534 190.19 173.655 183.467 169.294 180.802C163.843 177.47 154.455 163.539 151.123 157.179Z" fill="#456CA2"/>
<path d="M158.996 192.007C160.208 193.521 161.419 194.127 162.328 192.916C163.223 191.721 165.002 190.821 168.245 188.764L169.596 188.373L171.11 189.281C169.697 190.493 166.628 193.219 165.659 194.43C164.447 195.944 164.75 196.247 165.053 197.156C165.356 198.064 166.87 199.276 168.385 197.761L165.962 208.058C165.457 207.654 163.721 206.362 160.813 204.424C157.179 202.001 150.819 196.247 147.488 189.281C144.823 183.709 144.56 170.606 144.762 164.751C145.772 167.577 148.215 174.502 149.911 179.59C152.031 185.95 157.785 190.493 158.996 192.007Z" fill="#416192"/>
<path d="M77.1274 148.7C82.2153 144.823 87.929 142.037 90.1499 141.128V145.368L110.441 192.007L118.013 212.601C118.921 217.648 120.193 227.925 118.013 228.652C115.287 229.561 98.0245 227.441 88.0305 226.532C78.0364 225.624 79.5506 225.321 78.9449 224.412C78.3392 223.504 82.2763 216.235 83.1849 207.755C84.0934 199.276 80.7621 192.916 79.5506 190.796C78.3392 188.676 77.7335 191.099 75.3107 196.247C72.8879 201.396 67.4366 207.453 64.4081 208.967C61.3796 210.481 52.597 210.784 49.8713 206.847C47.1457 202.91 35.0312 181.71 33.5169 176.865C32.0027 172.019 32.9112 170.808 33.8198 171.11C34.7283 171.413 38.6654 177.167 42.2996 175.048C45.9338 172.928 51.3851 167.173 51.9908 165.659C52.5965 164.145 52.8993 164.145 53.8079 165.659C54.7164 167.173 56.8364 172.625 57.745 174.442C58.6535 176.259 61.3792 169.899 65.0134 162.631C68.6476 155.362 70.7675 153.545 77.1274 148.7Z" fill="#456CA2"/>
<path d="M89.0385 141.734C91.9459 140.28 94.8936 138.504 96.004 137.797L99.3353 148.094L107.209 153.242L117.809 190.493L115.992 212.298C115.992 211.692 114.902 208.846 110.541 202.304C102.061 187.162 88.1298 170.808 85.1013 167.173C82.0728 163.539 85.4042 160.511 87.827 157.482C90.2498 154.454 88.1298 155.362 85.707 155.968C83.2842 156.574 80.2558 158.694 79.953 157.482C79.6501 156.271 79.953 154.151 82.0729 149.305C84.1929 144.46 85.4043 143.551 89.0385 141.734Z" fill="#51A2DA"/>
<path d="M137.796 147.185C136.282 144.762 125.379 137.494 120.534 136.283L119.02 139.008L126.894 149.305C127.6 152.233 130.467 160.087 136.282 168.082C142.097 176.077 146.579 192.209 148.093 199.276C148.295 197.156 148.578 190.796 148.093 182.316C147.609 173.836 146.074 166.063 145.368 163.236C144.156 152.939 143.248 153.848 139.916 152.637C136.585 151.425 135.071 150.214 136.282 149.305C137.493 148.397 139.311 149.608 137.796 147.185Z" fill="#51A2DA"/>
<path d="M151.426 225.624C149.245 225.866 143.653 227.138 141.129 227.743C136.485 207.251 127.258 166.144 127.501 165.659C127.804 165.053 131.438 161.722 135.678 166.265C139.918 170.808 145.369 186.253 147.792 193.824C150.215 201.396 154.757 221.384 154.757 223.504C154.757 225.624 154.152 225.321 151.426 225.624Z" fill="#456CA2"/>
<path d="M143.853 194.733C142.157 181.407 136.08 164.952 133.254 158.391L131.134 152.939L125.985 150.214L117.808 155.059L110.237 156.876C109.732 158.492 108.723 162.57 108.723 165.962C108.723 170.202 111.448 175.35 113.871 191.099C116.294 206.847 115.688 225.926 114.78 228.349C115.89 228.652 120.049 229.197 127.802 228.955C135.555 228.713 141.733 227.844 143.853 227.441C144.56 222.09 145.549 208.058 143.853 194.733Z" fill="white"/>
<path d="M127.501 158.694C129.196 156.271 128.813 153.444 128.409 152.334L127.501 150.517C124.876 151.93 119.081 154.757 116.901 154.757C114.175 154.757 110.541 157.785 110.541 159.602C110.541 161.419 115.387 163.539 118.112 163.539C120.838 163.539 120.535 163.842 121.141 170.202C121.737 179.429 120.868 190.704 120.551 194.826L120.535 195.036C120.232 198.973 119.929 199.276 121.746 202.001C123.563 204.727 129.62 212.298 131.134 214.115C132.649 215.932 134.163 212.904 136.283 209.27C138.403 205.635 139.614 203.515 139.311 195.641C139.008 187.767 125.683 166.871 124.775 164.751C123.866 162.631 125.381 161.722 127.501 158.694Z" fill="#FEB502"/>
<path opacity="0.1" d="M107.814 168.385C105.149 166.689 100.848 160.612 99.0312 157.785L102.363 156.876L111.145 155.968L118.414 153.848L122.048 151.122V147.791C125.177 148.296 131.497 149.366 131.739 149.608C132.042 149.911 135.676 155.362 135.979 157.179C136.282 158.996 135.373 161.116 134.768 162.025C134.162 162.933 133.859 163.236 132.95 161.722C132.042 160.208 127.802 155.059 126.591 153.848C125.379 152.637 124.774 153.848 122.048 155.362C119.322 156.876 117.202 156.271 114.779 156.876C112.357 157.482 112.66 161.722 112.054 163.842C111.448 165.962 111.145 170.505 107.814 168.385Z" fill="black"/>
<path d="M156.573 62.9929C154.634 68.8076 149.102 73.2898 146.579 74.804C141.43 76.3183 129.256 79.8313 121.746 81.7696C112.357 84.1924 112.054 87.2209 109.329 88.7351C106.603 90.2494 96.0033 95.7007 95.7005 96.0036C95.4582 96.2458 84.6969 97.3159 79.3465 97.8207C78.0342 96.6093 75.0461 93.4596 73.5924 90.5522C71.7753 86.918 70.8664 81.4667 69.655 70.5641C68.4436 59.6615 74.8035 50.8788 78.4377 46.9418C82.0719 43.0047 82.3747 40.8848 104.786 37.5534C127.197 34.2221 138.402 30.8907 141.128 28.4679C143.853 26.0451 144.459 26.0451 144.762 28.7708C145.065 31.4964 144.156 37.8563 142.944 40.8848C141.733 43.9133 141.733 43.9133 143.247 43.6104C144.762 43.3076 150.516 38.7648 152.333 35.1306C154.15 31.4964 155.361 34.2221 156.573 38.7648C157.784 43.3076 158.995 55.7245 156.573 62.9929Z" fill="#8A5A70"/>
<path d="M69.0488 104.483C66.1414 97.9418 68.8469 92.8741 70.563 91.158L79.649 95.7007C97.2143 106.502 132.405 128.227 132.648 128.711C132.951 129.317 133.253 130.226 130.528 132.346C127.802 134.466 121.745 135.677 121.139 135.98C120.534 136.283 120.837 143.551 120.837 146.277C120.837 149.002 111.448 150.214 106.3 148.094C101.151 145.974 98.7285 142.643 99.0314 140.523C99.3342 138.403 99.3342 132.648 96.0029 129.62C89.3402 124.774 83.586 115.689 82.6775 113.266C81.7689 110.843 81.1632 111.146 79.649 111.752C78.1347 112.357 72.683 112.66 69.0488 104.483Z" fill="#E9BFB4"/>
<path d="M102.969 146.277C99.335 144.46 115.992 146.277 120.837 142.34L120.535 145.368C120.636 146.176 120.837 148.033 120.837 149.002C120.837 150.214 121.444 150.517 121.444 151.425C121.444 152.334 119.324 153.242 116.901 153.242C114.478 153.242 111.752 153.545 110.541 151.425C109.33 149.305 106.603 148.094 102.969 146.277Z" fill="#FEE2C9"/>
<path d="M143.248 61.4786C141.431 62.3872 134.768 62.9929 121.14 62.0843C120.736 62.0843 114.78 60.8729 112.357 60.2672C108.202 59.2284 103.272 57.5416 98.7289 56.3302C94.1862 55.1188 92.0662 57.5416 88.432 62.9929C84.7978 68.4442 84.1921 70.2613 85.404 73.2898C86.6158 76.3183 87.2206 81.1639 87.2206 84.4952C87.2206 87.8266 83.5864 92.6722 82.9807 92.9751C82.375 93.2779 82.0721 94.7922 79.3465 91.4608C76.6208 88.1294 71.7757 88.7351 69.9586 91.4608C68.1415 94.1865 67.5358 100.546 71.17 104.786C74.8042 109.026 79.6498 110.238 81.4669 108.723C83.284 107.209 84.4954 107.815 85.404 110.843C87.5845 117.385 93.9847 123.664 96.9123 125.986C103.878 133.86 122.049 139.008 134.466 129.923C157.179 107.815 148.397 72.6841 147.488 66.3242C146.58 59.9644 145.065 60.5701 143.248 61.4786Z" fill="#FEE2C9"/>
<path d="M79.3481 102.061C79.3481 100.243 78.1367 99.3349 75.7139 97.215H74.1992C73.2906 97.215 72.9882 97.8207 72.6854 99.3349C72.3825 100.849 75.7139 104.786 77.2281 105.089C78.7424 105.392 79.3481 103.878 79.3481 102.061Z" fill="#EAC0B5"/>
<path d="M128.107 153.545C125.381 151.425 125.381 152.939 121.747 154.757C121.242 155.16 119.506 155.968 116.598 155.968C112.964 155.968 112.964 156.876 111.45 162.933C109.935 168.99 109.633 168.688 105.998 165.962C99.3357 160.208 94.793 151.122 93.5816 144.762C92.3702 138.403 98.4272 135.374 99.0329 135.071L99.0329 135.071C99.6386 134.768 99.0329 139.614 99.0329 141.431C99.0329 143.248 104.484 147.488 109.33 149.002C114.175 150.517 115.084 152.637 115.993 152.939C116.901 153.242 121.141 151.728 121.444 150.517C121.747 149.305 120.535 146.882 120.535 144.157C120.535 141.431 120.535 138.1 121.747 138.1C125.684 139.008 133.861 150.517 134.769 152.637C135.678 154.757 137.798 161.116 136.284 160.814C134.769 160.511 130.832 155.665 128.107 153.545Z" fill="white"/>
<mask id="mask0_3387_15539" style="mask-type:alpha" maskUnits="userSpaceOnUse" x="32" y="141" width="88" height="88">
<path d="M77.1293 148.699C82.2172 144.823 87.931 142.037 90.1519 141.128V145.368L110.443 192.007L118.015 212.601C118.923 217.648 120.195 227.925 118.015 228.652C115.289 229.561 98.0265 227.441 88.0324 226.532C78.0383 225.623 79.5526 225.321 78.9469 224.412C78.3412 223.504 82.2783 216.235 83.1868 207.755C84.0954 199.276 80.764 192.916 79.5526 190.796C78.3412 188.676 77.7355 191.099 75.3127 196.247C72.8899 201.395 67.4386 207.452 64.4101 208.967C61.3816 210.481 52.5989 210.784 49.8733 206.847C47.1476 202.91 35.0331 181.71 33.5189 176.865C32.0046 172.019 32.9132 170.808 33.8217 171.11C34.7303 171.413 38.6673 177.167 42.3015 175.047C45.9357 172.928 51.387 167.173 51.9928 165.659C52.5985 164.145 52.9013 164.145 53.8099 165.659C54.7184 167.173 56.8384 172.625 57.7469 174.442C58.6555 176.259 61.3811 169.899 65.0153 162.631C68.6495 155.362 70.7695 153.545 77.1293 148.699Z" fill="#456CA2"/>
</mask>
<g mask="url(#mask0_3387_15539)">
<path d="M62.5935 176.259C60.413 173.594 61.0793 169.091 61.685 167.173L57.748 171.11C57.9499 172.827 58.6566 176.683 59.868 178.379C61.3823 180.499 62.5935 187.464 62.2908 189.584C61.9881 191.704 62.5935 193.824 63.5022 191.099C64.4109 188.373 63.8051 185.344 64.1079 182.922C64.4108 180.499 66.8336 185.647 67.1364 187.464C67.4393 189.281 68.6507 188.07 68.6507 185.042C68.6507 182.013 65.3192 179.59 62.5935 176.259Z" fill="#416192"/>
<path d="M84.3977 173.836C83.4891 173.23 79.8549 184.436 77.4321 191.401L79.8549 204.727L71.0723 226.835L79.8549 228.955C81.4701 225.926 84.9428 219.142 85.9119 216.235C87.1233 212.601 86.8205 212.904 89.5461 215.327C92.5746 217.144 90.7575 215.629 88.3347 208.664C85.9119 201.698 85.0034 193.824 84.7005 190.19C84.3977 186.556 85.3062 185.95 86.2148 184.739C87.1233 183.527 84.7005 183.527 84.0948 184.436C83.4891 185.344 83.4891 182.619 83.792 181.407C84.0948 180.196 85.0034 173.836 84.3977 173.836Z" fill="#416192"/>
<path d="M47.1463 174.139C50.7805 170.808 52.9004 167.476 53.809 164.448L36.8499 168.082L34.4275 167.476C33.5188 167.88 31.641 168.748 31.399 168.99C31.1571 169.233 30.2887 172.524 29.8848 174.139C30.0865 176.764 30.4295 182.437 30.1872 184.133C29.8844 186.253 31.3986 191.099 31.7015 192.613C32.0043 194.127 36.5471 201.395 36.8499 202.001C37.1528 202.607 50.4782 213.509 51.9924 214.115C53.5067 214.721 65.9236 211.389 67.4378 209.875C68.9521 208.361 68.9521 207.452 60.7751 207.452C52.5981 207.452 44.1178 182.922 42.6035 179.893C41.0893 176.865 43.5121 177.47 47.1463 174.139Z" fill="#416192"/>
<path d="M34.1241 175.047C33.5184 173.836 35.0326 171.413 35.3355 171.11H37.7586L42.907 174.139C42.4023 174.846 40.9082 176.441 38.97 177.167C36.5472 178.076 34.7298 176.259 34.1241 175.047Z" fill="#182D4E"/>
</g>
<path d="M168.688 221.686C167.174 222.191 162.813 223.504 157.482 224.715L169.294 191.099L175.956 199.881L168.688 221.686Z" fill="#B8C6CF"/>
<path d="M172.625 215.327C173.836 211.39 176.865 204.424 178.379 199.881C178.581 199.578 180.802 195.157 180.802 194.43C180.802 193.521 177.773 195.411 176.259 194.43C175.047 193.645 171.716 191.882 169.899 190.493L168.99 191.401C168.688 191.704 169.596 193.219 171.716 195.338C173.836 197.458 173.533 200.79 173.23 203.515C172.988 205.696 169.294 215.327 167.476 219.869C166.568 220.879 165.417 222.716 168.082 221.989C171.414 221.081 171.414 219.264 172.625 215.327Z" fill="#9DA9BB"/>
<path d="M184.739 194.733C188.07 192.007 192.916 180.196 193.219 178.682C192.715 176.259 189.161 174.442 188.677 172.019C188.071 168.991 179.288 167.173 177.774 167.173C176.26 167.173 174.745 168.688 173.837 168.082C172.929 167.476 167.476 170.505 166.871 170.808C166.265 171.11 166.871 172.928 166.871 174.139C166.871 175.35 168.688 175.956 168.688 177.773C168.688 179.59 170.202 179.893 170.202 180.802C170.202 181.71 170.808 183.83 169.596 184.133C168.385 184.436 167.779 186.253 167.476 187.767C167.174 189.281 170.808 193.219 174.745 194.733C178.682 196.247 181.407 197.458 184.739 194.733Z" fill="#E9BFB4"/>
<path d="M171.413 186.253C172.927 185.042 175.653 186.859 178.379 188.979C178.379 188.979 179 189.44 179.893 189.887C180.499 190.19 181.71 189.887 181.71 188.676C181.71 187.464 180.196 186.253 177.168 185.344C174.139 184.436 173.231 184.133 172.625 182.922C172.019 181.71 172.625 180.802 174.745 180.499C176.865 180.196 180.802 182.619 181.71 183.527C182.619 184.436 183.225 184.436 183.83 184.133C184.436 183.83 185.042 183.224 182.922 181.105C180.802 178.985 175.956 178.682 174.442 178.076C172.928 177.47 172.928 175.653 176.259 175.047C179.59 174.442 184.436 176.562 186.253 177.47C188.07 178.379 188.979 177.167 187.767 175.653C186.556 174.139 181.105 172.625 178.379 172.322C175.653 172.019 176.259 166.568 180.196 166.568C184.133 166.568 187.464 168.688 190.796 170.808C194.127 172.928 195.036 175.047 193.219 178.682C191.402 182.316 184.133 191.401 182.922 192.916C181.71 194.43 179.59 194.733 178.379 194.733C177.167 194.733 172.322 191.401 171.11 190.19C169.899 188.979 169.899 187.464 171.413 186.253Z" fill="#FEE2C9"/>
<path d="M173.836 169.899C174.441 168.082 174.441 167.476 173.836 166.568C172.322 165.053 169.414 167.113 167.476 169.293C165.053 172.019 168.99 172.625 169.596 173.533C170.201 174.442 173.23 171.716 173.836 169.899Z" fill="#FEE2C9"/>
<path fill-rule="evenodd" clip-rule="evenodd" d="M204.728 150.214C231.489 150.214 253.184 128.519 253.184 101.758C253.184 74.9962 231.489 53.3017 204.728 53.3017C177.966 53.3017 156.271 74.9962 156.271 101.758C156.271 128.519 177.966 150.214 204.728 150.214ZM241.675 97.215C241.675 106.961 237.741 115.788 231.374 122.194L193.687 64.07C197.589 62.5911 201.821 61.7815 206.242 61.7815C225.811 61.7815 241.675 77.6456 241.675 97.215ZM170.808 97.215C170.808 86.8765 175.236 77.5721 182.299 71.0947L220.323 129.74C216.008 131.611 211.246 132.648 206.242 132.648C186.672 132.648 170.808 116.784 170.808 97.215Z" fill="#C04945"/>
<path fill-rule="evenodd" clip-rule="evenodd" d="M206.544 145.368C233.305 145.368 255 123.674 255 96.9121C255 70.1506 233.305 48.4561 206.544 48.4561C179.782 48.4561 158.088 70.1506 158.088 96.9121C158.088 123.674 179.782 145.368 206.544 145.368ZM241.675 97.215C241.675 106.961 237.74 115.788 231.373 122.194L193.686 64.07C197.589 62.5911 201.82 61.7815 206.241 61.7815C225.81 61.7815 241.675 77.6456 241.675 97.215ZM170.808 97.215C170.808 86.8765 175.236 77.5721 182.298 71.0947L220.322 129.74C216.007 131.611 211.245 132.648 206.241 132.648C186.672 132.648 170.808 116.784 170.808 97.215Z" fill="#FF001A"/>
<path d="M39.9782 143.248C38.7668 137.797 38.1611 132.648 39.9782 129.923H38.7659C38.4632 129.923 37.676 130.226 36.9492 131.437C36.0407 132.951 35.7378 134.163 36.3435 139.917C36.9492 145.671 38.1606 148.094 39.372 147.791C40.5834 147.488 40.5834 146.277 39.9782 143.248Z" fill="#FEE2C9"/>
<path d="M34.8288 144.762C34.2231 142.34 33.6174 137.797 33.3146 132.951C33.3146 132.749 33.254 132.346 33.0116 132.346C32.7087 132.346 32.7089 132.346 32.1032 134.768C31.4975 137.191 32.1032 143.248 32.406 145.974C32.7089 148.7 33.9203 148.7 34.8288 148.397C35.7374 148.094 35.4345 147.185 34.8288 144.762Z" fill="#FEE2C9"/>
<path d="M49.3658 151.728C48.7601 149.911 49.6687 146.58 51.1829 143.854C51.2838 143.248 51.9095 142.158 53.6054 142.643C55.7254 143.248 55.1197 145.671 54.2111 148.094C53.3026 150.517 53.6054 155.059 53.6054 159.299C53.6054 163.539 52.0912 165.659 49.6684 167.476C47.2456 169.293 43.6114 170.202 40.8857 168.385C38.1601 166.568 38.1601 168.082 36.0401 167.779C31.2241 167.478 30.297 158.202 29.9885 155.115L29.9829 155.059C29.6801 152.031 29.6801 151.425 33.3143 151.122C36.9485 150.819 40.8855 149.608 42.3998 149.305C43.9141 149.002 43.9141 149.002 43.0055 146.277C42.097 143.551 41.1884 133.557 42.3998 131.134C43.6112 128.711 45.4283 132.043 46.3369 137.494C47.2454 142.945 46.6397 141.431 46.6397 145.065C46.6397 148.7 45.7312 149.608 45.7312 151.728C45.7312 153.848 45.4283 152.637 42.7027 154.151C39.977 155.665 39.3713 158.694 39.3713 161.116C39.3713 163.539 41.4913 162.328 41.7941 160.208C42.097 158.088 44.2169 156.876 46.6397 155.059C49.0625 153.242 49.9715 153.545 49.3658 151.728Z" fill="#FEE2C9"/>
<path d="M28.166 141.734C28.166 139.553 28.5698 137.999 28.7717 137.494C28.8727 137.292 29.1351 136.949 29.3774 137.191C29.6803 137.494 29.6803 138.1 29.6803 141.128C29.6803 144.157 30.286 147.488 30.5888 148.397C30.8917 149.305 30.5888 149.305 29.9831 149.608C29.3774 149.911 29.3774 150.214 28.7717 147.488C28.166 144.762 28.166 144.46 28.166 141.734Z" fill="#FEE2C9"/>
</svg>
