<svg width="17" height="17" viewBox="0 0 17 17" fill="none" xmlns="http://www.w3.org/2000/svg">
<path d="M14.0073 2.02527C15.8921 3.62989 17 5.97577 17 8.5C17 13.1944 13.1944 17 8.5 17C3.80558 17 0 13.1944 0 8.5C0 6.01183 1.07627 3.6961 2.91491 2.0923C3.2579 1.79312 3.77848 1.82865 4.07766 2.17162C4.37684 2.51461 4.34133 3.03519 3.99834 3.33437C2.51485 4.62839 1.6482 6.49308 1.6482 8.5C1.6482 12.2841 4.71586 15.3518 8.5 15.3518C12.2841 15.3518 15.3518 12.2841 15.3518 8.5C15.3518 6.46403 14.4597 4.57497 12.9389 3.28027C12.5923 2.98523 12.5506 2.46512 12.8456 2.11856C13.1406 1.772 13.6607 1.73023 14.0073 2.02527ZM8.5 0C8.95059 0 9.31671 0.36162 9.32399 0.810472L9.3241 0.8241V8.09828C9.3241 8.55342 8.95514 8.92238 8.5 8.92238C8.04941 8.92238 7.68329 8.56076 7.67601 8.11191L7.6759 8.09828V0.8241C7.6759 0.368962 8.04486 0 8.5 0Z" fill="#FF001A"/>
</svg>
