<svg width="19" height="17" viewBox="0 0 19 17" fill="none" xmlns="http://www.w3.org/2000/svg">
<path d="M16.5873 1.52203C18.6167 3.55141 18.6167 6.84169 16.5873 8.87107C16.4628 8.99552 16.3336 9.11235 16.2003 9.22154C16.129 9.27772 16.0584 9.32478 15.9886 9.36274C16.0309 9.8406 15.8866 10.2739 15.6252 10.5738C15.2786 10.9716 14.8348 11.2021 14.2938 11.2654C14.2214 11.8129 14.0371 12.2261 13.7411 12.505C13.4451 12.784 13.037 12.9357 12.5168 12.9602C12.5168 13.4083 12.3517 13.814 12.0214 14.1772L12.0153 14.1838L12.0025 14.1973L11.9887 14.2112C11.9863 14.2135 11.9839 14.2159 11.9814 14.2182L11.9662 14.2327L11.9501 14.2474C11.9446 14.2524 11.9389 14.2574 11.9331 14.2624L11.9152 14.2777C11.9121 14.2802 11.909 14.2828 11.9059 14.2854L11.8866 14.301L11.8665 14.3167L11.8455 14.3326L11.8237 14.3486C11.82 14.3513 11.8162 14.354 11.8124 14.3567L11.7893 14.3728L11.7654 14.3889L11.7406 14.4051L11.7151 14.4212C11.7021 14.4292 11.6888 14.4372 11.6753 14.4452L11.6477 14.4611C11.6431 14.4638 11.6384 14.4664 11.6337 14.469L11.605 14.4847L11.5755 14.5002C11.3743 14.6041 11.1221 14.693 10.833 14.724C10.8251 14.8465 10.8045 14.9684 10.7713 15.0875L10.7682 15.1027L10.7643 15.1209L10.7601 15.139C10.7593 15.142 10.7586 15.145 10.7578 15.148L10.7531 15.1661L10.7479 15.1842C10.747 15.1872 10.7461 15.1902 10.7452 15.1932L10.7394 15.2115C10.7384 15.2145 10.7374 15.2176 10.7363 15.2206L10.7298 15.2391C10.7287 15.2422 10.7275 15.2453 10.7264 15.2484L10.719 15.2673C10.7178 15.2705 10.7165 15.2736 10.7152 15.2768L10.7069 15.2962L10.6981 15.3159L10.6886 15.3361L10.6784 15.3568L10.6674 15.3781L10.6557 15.4L10.6432 15.4225L10.6298 15.4457L10.6155 15.4697C10.6131 15.4738 10.6106 15.4779 10.6081 15.482L10.6049 15.4873C10.5637 15.5596 10.517 15.6297 10.4649 15.6969L10.4421 15.7288L10.4172 15.7633L10.3774 15.8176L10.3493 15.8556L10.3198 15.8951L10.273 15.9572L10.24 16.0005C9.66297 16.7569 9.05934 17.0704 8.09079 16.9869L8.02137 16.9485L7.97641 16.9233L7.93252 16.8984L7.88969 16.874L7.84792 16.8498L7.80999 16.8277C7.59777 16.7408 7.39892 16.6113 7.22663 16.439C7.20906 16.4214 7.19193 16.4036 7.17525 16.3855L7.17244 16.3827L7.15672 16.3671C7.15165 16.362 7.14677 16.3569 7.14206 16.3518C7.11167 16.3194 7.08267 16.2822 7.05507 16.2404C6.92009 16.0587 6.8242 15.8572 6.7674 15.6472C6.67891 15.6674 6.58914 15.6807 6.49898 15.6872C6.09494 15.7295 5.69774 15.621 5.30738 15.3617C4.82952 15.0442 4.57201 14.6018 4.53487 14.0346C4.05766 14.0524 3.57464 13.8791 3.21031 13.5148C2.81905 13.1236 2.64812 12.5954 2.69751 12.0845C2.45905 12.0549 2.2254 11.977 2.01241 11.8509C1.85876 11.7648 1.72644 11.6581 1.61547 11.5308C1.22524 11.1118 1.07473 10.5504 1.16396 10.0216C1.17714 9.88782 1.20483 9.74508 1.25127 9.59196C1.29643 9.4431 1.42151 9.26794 1.62653 9.06649L1.6571 9.03683C1.66229 9.03185 1.66753 9.02686 1.67282 9.02185L1.52203 8.87107C-0.507345 6.84169 -0.507345 3.55141 1.52203 1.52203C3.55141 -0.507345 6.84169 -0.507345 8.87107 1.52203C8.90639 1.55736 8.93954 1.59051 8.97052 1.62149L9.00916 1.66013C9.01332 1.66429 9.01744 1.66841 9.02151 1.67248L9.05941 1.71038L9.07877 1.6894L9.1219 1.64317L9.15136 1.61189L9.20288 1.55803L9.23174 1.52859L9.23827 1.52203C11.2676 -0.507345 14.5579 -0.507345 16.5873 1.52203ZM8.80326 14.3394L8.79608 14.3464L8.22311 14.9193C8.17946 14.963 8.149 15.0148 8.13172 15.0699L8.18589 15.2975L8.18955 15.3126L8.19681 15.3414C8.19802 15.346 8.19921 15.3505 8.20041 15.3549L8.20749 15.3804C8.20866 15.3845 8.20982 15.3885 8.21098 15.3924L8.21779 15.4146L8.2195 15.42L8.24064 15.4348L8.26155 15.449L8.2726 15.4565C8.28276 15.4633 8.29325 15.4702 8.30407 15.4773L8.33751 15.4989C8.34324 15.5026 8.34906 15.5063 8.35496 15.51L8.39133 15.5328L8.40756 15.5428C8.52291 15.5672 8.64769 15.5361 8.73908 15.4495L8.74626 15.4425L9.31923 14.8695C9.32599 14.8628 9.33243 14.8558 9.33855 14.8487L9.36074 14.8163L9.37748 14.7913L9.38695 14.7767C9.39033 14.7701 9.3935 14.7635 9.39645 14.7567L9.40956 14.6534L9.41601 14.6047L9.4234 14.5523C9.412 14.477 9.37728 14.4044 9.31923 14.3464C9.17714 14.2043 8.9482 14.2019 8.80326 14.3394ZM6.68941 13.0711L6.68223 13.0781L6.10926 13.651C5.96479 13.7955 5.96479 14.0297 6.10926 14.1742C6.182 14.2469 6.2775 14.283 6.37284 14.2825C6.38405 14.2806 6.39544 14.2779 6.40718 14.2746L6.41493 14.2724L6.56364 14.2284C6.58538 14.2151 6.60604 14.1994 6.62523 14.1812L6.63241 14.1742L7.20538 13.6012C7.34985 13.4567 7.34985 13.2225 7.20538 13.0781C7.06329 12.936 6.83435 12.9336 6.68941 13.0711ZM2.51851 2.51851C1.05426 3.98276 1.03962 6.34768 2.47459 7.82994L2.51851 7.87459L2.76525 8.12124C3.419 7.82932 4.21279 7.95159 4.74924 8.48804C5.14049 8.87929 5.31142 9.40742 5.26204 9.91828C5.64125 9.96541 6.00823 10.1346 6.2994 10.4257C6.61659 10.7429 6.78898 11.1501 6.81656 11.5651C7.31327 11.5296 7.82206 11.7018 8.20186 12.0816C8.42956 12.3093 8.58263 12.5833 8.66109 12.8734C9.23756 12.7421 9.86676 12.9009 10.3157 13.3499L10.3249 13.3592L10.6796 13.3231C10.7676 13.3142 10.8545 13.2868 10.9317 13.2466C10.9539 13.2351 10.9735 13.2233 10.9894 13.2125L10.9998 13.2052L11.0059 13.1982C11.0813 13.1085 11.1058 13.0446 11.1075 12.9687L11.1076 12.9602L11.1075 12.3609L8.61623 9.86952L9.46324 9.02251L12.0138 11.5731L12.4505 11.5525C12.5713 11.5468 12.6608 11.5298 12.7219 11.5071C12.7523 11.4958 12.7662 11.4873 12.7747 11.4794C12.7767 11.4775 12.7797 11.4739 12.7844 11.4672C12.7933 11.4543 12.8034 11.4363 12.8142 11.412C12.8467 11.3392 12.875 11.2355 12.8942 11.0993L12.8968 11.0805L12.9457 10.7111L10.3778 8.14321L11.2248 7.2962L13.8295 9.90089L14.13 9.86574C14.2355 9.85339 14.6185 9.85709 14.7881 9.65887C14.9149 9.51072 14.8944 9.21249 14.8228 9.07283C14.8221 9.07217 14.8215 9.07146 14.8209 9.07075L14.8081 9.05572L11.2112 5.49638L11.1791 5.51521C10.1255 6.12218 8.79521 5.9482 7.93322 5.09066L7.90724 5.06447L6.81493 3.94796L7.97933 2.78775L7.87459 2.51851C6.39555 1.03947 3.99755 1.03947 2.51851 2.51851ZM4.78694 11.4152L4.77977 11.4222L4.20679 11.9952C4.17497 12.027 4.15016 12.0632 4.13236 12.1018L4.1263 12.1851C4.11734 12.3074 4.13903 12.3693 4.22424 12.4616C4.29993 12.5436 4.36867 12.5741 4.51837 12.5758L4.5322 12.5759L4.6556 12.5759C4.67938 12.5619 4.70194 12.5451 4.72277 12.5253L4.72994 12.5183L5.30292 11.9454C5.44738 11.8009 5.44738 11.5667 5.30292 11.4222C5.16082 11.2801 4.93188 11.2778 4.78694 11.4152ZM3.27202 9.44801L3.15894 9.55514L2.65663 10.0575C2.61126 10.1029 2.58013 10.1571 2.56326 10.2146C2.56429 10.2903 2.58274 10.3674 2.62039 10.4724L2.63199 10.5041L2.6447 10.5374L2.65389 10.5609L2.65901 10.5731L2.66356 10.583C2.66516 10.5863 2.66667 10.5891 2.66813 10.5917C2.68363 10.6059 2.70006 10.6186 2.71722 10.6297C2.72595 10.6339 2.73611 10.6382 2.74786 10.6427C2.79234 10.6599 2.84955 10.6751 2.92027 10.6869L2.93147 10.6888C3.01857 10.6856 3.10478 10.6519 3.17261 10.5876L3.17978 10.5806L3.75276 10.0077C3.89722 9.8632 3.89722 9.62898 3.75276 9.48452C3.62171 9.35346 3.41679 9.3413 3.27202 9.44801ZM10.2347 2.51851L10.2176 2.53595L10.1837 2.57123L10.1484 2.60868L10.0888 2.6728L10.0592 2.70483L8.7988 3.96063L8.91457 4.07896C9.32096 4.49435 9.95474 4.58501 10.4603 4.3028L10.4724 4.29592L11.4333 3.73354L15.6042 7.86093L15.6348 7.82994C17.0552 6.36265 17.0552 4.03045 15.6348 2.56316L15.5908 2.51851C14.1118 1.03947 11.7138 1.03947 10.2347 2.51851Z" fill="#0F0F0F"/>
</svg>
