<svg width="14" height="17" viewBox="0 0 14 17" fill="none" xmlns="http://www.w3.org/2000/svg">
<path d="M6.8838 9.26666C10.6856 9.26666 13.7676 12.3486 13.7676 16.1505C13.7676 16.4189 13.7522 16.6838 13.7223 16.9443L13.7157 17L12.558 16.9998L11.6977 16.9992L10.7657 16.9979L10.1511 16.9966L9.5146 16.9949L8.85861 16.9926L8.32134 16.9904L7.77428 16.9877L7.21864 16.9846L6.65562 16.981L6.08642 16.9769L5.65619 16.9735L5.22367 16.9697L4.78937 16.9656L4.35379 16.9611L3.91745 16.9563L3.48085 16.9511L3.0445 16.9455L2.6089 16.9394L2.17457 16.933L1.88597 16.9284L1.59831 16.9237L1.31173 16.9187L1.0264 16.9135L0.742454 16.9081L0.460048 16.9025L0.0396557 16.8937C0.0134455 16.6495 0 16.4016 0 16.1505C0 12.3486 3.08198 9.26666 6.8838 9.26666ZM9.135 11.0651L7.54571 13.6058V15.6632L7.83798 15.6648L8.5155 15.6678L8.97571 15.6695L9.79841 15.672L10.7672 15.6741L11.7685 15.6754L12.4237 15.6759L12.4173 15.6044C12.2191 13.5713 10.9259 11.859 9.135 11.0651ZM1.35975 15.5148L1.35118 15.5957L1.81337 15.6037L2.19442 15.61L2.77145 15.6187L3.16016 15.6241L3.65104 15.6304L4.14794 15.6362L4.55015 15.6405L5.05919 15.6455L5.57568 15.6501L6.10015 15.6542L6.2219 15.6551V13.611L4.59005 11.0842C2.8475 11.8743 1.58483 13.5371 1.35975 15.5148ZM6.8838 10.5905C6.5491 10.5905 6.2213 10.62 5.90287 10.6767L6.8749 12.182L7.82119 10.6692C7.54574 10.6224 7.2634 10.5959 6.97575 10.5912L6.8838 10.5905ZM6.8838 0C9.16855 0 11.0207 1.85215 11.0207 4.1369C11.0207 6.42165 9.16855 8.2738 6.8838 8.2738C4.59906 8.2738 2.7469 6.42165 2.7469 4.1369C2.7469 1.85215 4.59906 0 6.8838 0ZM6.8838 1.32381C5.33018 1.32381 4.07071 2.58327 4.07071 4.1369C4.07071 5.69053 5.33018 6.95 6.8838 6.95C8.43743 6.95 9.6969 5.69053 9.6969 4.1369C9.6969 2.58327 8.43743 1.32381 6.8838 1.32381Z" fill="#0F0F0F"/>
</svg>
