<svg width="17" height="17" viewBox="0 0 17 17" fill="none" xmlns="http://www.w3.org/2000/svg">
<path d="M8.5 0C13.1944 0 17 3.80558 17 8.5C17 13.1944 13.1944 17 8.5 17C3.80558 17 0 13.1944 0 8.5C0 3.80558 3.80558 0 8.5 0ZM8.5 1.32812C4.53908 1.32812 1.32812 4.53908 1.32812 8.5C1.32812 12.4609 4.53908 15.6719 8.5 15.6719C12.4609 15.6719 15.6719 12.4609 15.6719 8.5C15.6719 4.53908 12.4609 1.32812 8.5 1.32812ZM8.5 11.7539C8.95844 11.7539 9.33008 12.1255 9.33008 12.584C9.33008 13.0424 8.95844 13.4141 8.5 13.4141C8.04156 13.4141 7.66992 13.0424 7.66992 12.584C7.66992 12.1255 8.04156 11.7539 8.5 11.7539ZM8.5 4.2832C9.96701 4.2832 11.1562 5.47245 11.1562 6.93945C11.1562 8.16385 10.325 9.20341 9.18505 9.50653L9.16406 9.5119V10.5518C9.16406 10.9148 8.87291 11.2097 8.51144 11.2158L8.5 11.2159C8.13707 11.2159 7.84214 10.9247 7.83603 10.5633L7.83594 10.5518L7.83594 8.96487C7.83554 8.58612 8.13757 8.27631 8.51643 8.26708L8.55906 8.26583L8.58999 8.2645L8.60246 8.26372C9.29122 8.21154 9.82812 7.63496 9.82812 6.93945C9.82812 6.20595 9.2335 5.61133 8.5 5.61133C7.77383 5.61133 7.18378 6.19412 7.17205 6.91749L7.17188 6.93945C7.17188 7.3062 6.87456 7.60352 6.50781 7.60352C6.14106 7.60352 5.84375 7.3062 5.84375 6.93945C5.84375 5.47245 7.03299 4.2832 8.5 4.2832Z" fill="#0F0F0F"/>
</svg>
