<svg width="16" height="17" viewBox="0 0 16 17" fill="none" xmlns="http://www.w3.org/2000/svg">
<path d="M13.2912 0L13.2912 0.0114525C14.6084 0.055826 15.6626 1.13761 15.6626 2.46562V8.72727C15.6626 9.00217 15.4398 9.22502 15.1649 9.22502H11.7785V16.5022C11.7785 16.7771 11.5556 17 11.2807 17H0.497753C0.222852 17 0 16.7771 0 16.5022V2.46562C0 1.10944 1.0994 0.0100367 2.45558 0.0100367L12.6206 0.00996791C12.6801 0.00454613 12.7402 0.00130335 12.8008 0.000320086L12.8403 0H13.2912ZM10.6945 1.33736L2.45558 1.33738C1.8387 1.33738 1.33746 1.83246 1.32749 2.44696L1.32734 2.46562V15.6727H10.4511L10.4511 2.38921C10.4511 2.01175 10.5387 1.65474 10.6945 1.33736ZM2.50536 13.2834C2.78942 13.2834 3.0197 13.5137 3.0197 13.7978C3.0197 14.0819 2.78942 14.3121 2.50536 14.3121C2.22129 14.3121 1.99101 14.0819 1.99101 13.7978C1.99101 13.5137 2.22129 13.2834 2.50536 13.2834ZM9.27479 13.2834C9.55886 13.2834 9.78914 13.5137 9.78914 13.7978C9.78914 14.0819 9.55886 14.3121 9.27479 14.3121H4.49637C4.2123 14.3121 3.98202 14.0819 3.98202 13.7978C3.98202 13.5137 4.2123 13.2834 4.49637 13.2834H9.27479ZM2.50536 11.3256C2.78942 11.3256 3.0197 11.5559 3.0197 11.84C3.0197 12.124 2.78942 12.3543 2.50536 12.3543C2.22129 12.3543 1.99101 12.124 1.99101 11.84C1.99101 11.5559 2.22129 11.3256 2.50536 11.3256ZM9.27479 11.3256C9.55886 11.3256 9.78914 11.5559 9.78914 11.84C9.78914 12.124 9.55886 12.3543 9.27479 12.3543H4.49637C4.2123 12.3543 3.98202 12.124 3.98202 11.84C3.98202 11.5559 4.2123 11.3256 4.49637 11.3256H9.27479ZM2.50536 9.36779C2.78942 9.36779 3.0197 9.59807 3.0197 9.88213C3.0197 10.1662 2.78942 10.3965 2.50536 10.3965C2.22129 10.3965 1.99101 10.1662 1.99101 9.88213C1.99101 9.59807 2.22129 9.36779 2.50536 9.36779ZM9.27479 9.36779C9.55886 9.36779 9.78914 9.59807 9.78914 9.88213C9.78914 10.1662 9.55886 10.3965 9.27479 10.3965H4.49637C4.2123 10.3965 3.98202 10.1662 3.98202 9.88213C3.98202 9.59807 4.2123 9.36779 4.49637 9.36779H9.27479ZM13.207 1.33738L12.694 1.33734C12.1824 1.40785 11.7872 1.84275 11.7786 2.37165L11.7785 2.38921L11.7785 7.89768L14.3353 7.89766V2.46562C14.3353 1.84874 13.8402 1.34749 13.2257 1.33753L13.207 1.33738ZM5.62461 2.36607C7.01744 2.36607 8.14655 3.49518 8.14655 4.88801C8.14655 6.28085 7.01744 7.40996 5.62461 7.40996C4.23177 7.40996 3.10266 6.28085 3.10266 4.88801C3.10266 3.49518 4.23177 2.36607 5.62461 2.36607ZM5.62461 3.69341C4.96484 3.69341 4.43 4.22825 4.43 4.88801C4.43 5.54778 4.96484 6.08262 5.62461 6.08262C6.28437 6.08262 6.81921 5.54778 6.81921 4.88801C6.81921 4.22825 6.28437 3.69341 5.62461 3.69341Z" fill="#0F0F0F"/>
</svg>
