<svg width="17" height="14" viewBox="0 0 17 14" fill="none" xmlns="http://www.w3.org/2000/svg">
<path d="M13.2996 0C13.7997 0 14.2595 0.274189 14.4972 0.714149L16.5393 4.49307C16.8417 5.05268 17 5.67877 17 6.31486C17 7.17673 16.3013 7.87541 15.4395 7.87541V12.1678C15.4395 13.1725 14.5818 13.9626 13.5461 13.9783L13.5146 13.9785H3.51858C2.47934 13.9785 1.61127 13.1985 1.59401 12.1982L1.59375 12.1678V7.87538L1.56055 7.87541C0.698681 7.87541 0 7.17673 0 6.31486C0 5.67838 0.155319 5.05151 0.452479 4.48866L2.4391 0.725754C2.67479 0.279342 3.13815 0 3.64296 0H13.2996ZM8.50003 6.54726L8.49982 6.56308C8.48804 7.28987 7.8952 7.87541 7.16561 7.87541H5.80339C5.07379 7.87541 4.48096 7.28987 4.46918 6.56308L4.46901 6.54749H4.46894L4.46882 6.56308C4.45703 7.28987 3.8642 7.87541 3.1346 7.87541L2.92188 7.87538V12.1678C2.92188 12.4166 3.16977 12.645 3.50651 12.6503L3.51858 12.6504H9.67336L9.67339 10.3001C9.67339 9.42481 10.3759 8.71357 11.2478 8.69943L11.2743 8.69922H12.1671C13.0424 8.69922 13.7537 9.40171 13.7678 10.2737L13.768 10.3001L13.768 12.6047C13.972 12.5264 14.1069 12.3576 14.1113 12.1767V12.1678V7.87538L13.9746 7.87541C13.2287 7.87541 12.6158 7.30594 12.547 6.57806L12.5342 6.57819C12.4653 7.30601 11.8524 7.87541 11.1066 7.87541H9.83439C9.1048 7.87541 8.51196 7.28987 8.50018 6.56308L8.50003 6.54726ZM12.1671 9.69531H11.2743C10.944 9.69531 10.6755 9.96012 10.6696 10.289L10.6695 10.3001L10.6695 12.6504H12.7719V10.3001C12.7719 9.96981 12.5071 9.70134 12.1782 9.69541L12.1671 9.69531ZM7.33789 8.4668C7.57628 8.4668 7.76953 8.66005 7.76953 8.89844V11.7871C7.76953 12.0255 7.57628 12.2188 7.33789 12.2188H4.44922C4.21083 12.2188 4.01758 12.0255 4.01758 11.7871V8.89844C4.01758 8.66005 4.21083 8.4668 4.44922 8.4668H7.33789ZM6.77344 9.46289H5.01367V11.2227H6.77344V9.46289ZM13.2996 1.32813H3.64296C3.63201 1.32813 3.62187 1.33351 3.61571 1.34235L3.61359 1.34583L1.32809 5.67478V6.31486C1.32809 6.44055 1.42789 6.54294 1.55256 6.54715L1.56055 6.54728H3.1346C3.13749 6.54728 3.13992 6.54534 3.14065 6.54268L3.14087 6.54102L3.17101 6.54089C3.17996 5.8426 3.74881 5.2793 4.44922 5.2793C5.14616 5.2793 5.71284 5.83704 5.72726 6.53052L5.79708 6.53026L5.79717 6.54181L5.79747 6.54327C5.79812 6.54493 5.79962 6.54636 5.80146 6.54697L5.80339 6.54728H7.16561C7.16849 6.54728 7.17092 6.54534 7.17165 6.54268L7.17188 6.54102L7.22179 6.54083C7.23078 5.84257 7.79961 5.2793 8.5 5.2793C9.19691 5.2793 9.76357 5.83698 9.77804 6.53043L9.82808 6.53026L9.82816 6.54175L9.82848 6.54327C9.82913 6.54493 9.83062 6.54636 9.83246 6.54697L9.83439 6.54728H11.1066C11.1417 6.54728 11.1729 6.53013 11.1921 6.50383C11.2361 5.79165 11.8276 5.22769 12.5508 5.22769C13.2814 5.22769 13.8776 5.80327 13.9107 6.52573C13.9269 6.53813 13.9469 6.54591 13.9687 6.54712L13.9746 6.54728H15.4395C15.5651 6.54728 15.6675 6.44752 15.6719 6.32285V5.68155L13.3288 1.34554C13.3236 1.336 13.3142 1.32966 13.3036 1.32837L13.2996 1.32813Z" fill="#0F0F0F"/>
</svg>
