<svg width="17" height="17" viewBox="0 0 17 17" fill="none" xmlns="http://www.w3.org/2000/svg">
<path d="M15.0078 0C16.1081 0 17 0.891933 17 1.99219V3.98438C17 4.35113 16.7027 4.64844 16.3359 4.64844V7.30469C16.3359 7.67144 16.0386 7.96875 15.6719 7.96875C15.3089 7.96875 15.014 7.6776 15.0079 7.31613L15.0078 7.30469V4.64844H1.99219V14.3438C1.99219 15.0699 2.57498 15.66 3.29835 15.6717L3.32031 15.6719H7.50391C7.87066 15.6719 8.16797 15.9692 8.16797 16.3359C8.16797 16.6989 7.87682 16.9938 7.51534 17H3.32031C1.86798 17 0.687875 15.8344 0.664418 14.3877L0.664062 14.3438V4.64844C0.297311 4.64844 0 4.35113 0 3.98438V1.99219C0 0.891933 0.891933 0 1.99219 0H15.0078ZM12.5674 8.00195C13.0237 8.00195 13.4716 8.07063 13.8995 8.2042C14.2496 8.31349 14.4448 8.68589 14.3355 9.03598C14.2274 9.38235 13.8617 9.57711 13.5149 9.47538L13.5038 9.47199C13.2036 9.3783 12.8891 9.33008 12.5674 9.33008C10.8345 9.33008 9.42969 10.7349 9.42969 12.4678C9.42969 14.2007 10.8345 15.6055 12.5674 15.6055C14.0687 15.6055 15.3502 14.543 15.6429 13.093L15.6515 13.049C15.7189 12.6885 16.0658 12.4509 16.4263 12.5183C16.7868 12.5858 17.0244 12.9327 16.957 13.2932C16.5645 15.3913 14.7261 16.9336 12.5674 16.9336C10.101 16.9336 8.10156 14.9342 8.10156 12.4678C8.10156 10.0014 10.101 8.00195 12.5674 8.00195ZM16.3184 9.80857C16.5748 10.0649 16.5777 10.4787 16.3272 10.7387L16.3184 10.7477L13.4465 13.6196C12.9844 14.0817 12.238 14.0863 11.7702 13.6334L11.7561 13.6196L10.6777 12.5412C10.4184 12.2819 10.4184 11.8614 10.6777 11.6021C10.9341 11.3457 11.3479 11.3428 11.6079 11.5932L11.6169 11.6021L12.6013 12.5865L15.3793 9.80857C15.6386 9.54924 16.0591 9.54924 16.3184 9.80857ZM9.96094 5.97656C10.3277 5.97656 10.625 6.27387 10.625 6.64062C10.625 7.00738 10.3277 7.30469 9.96094 7.30469H6.97266C6.6059 7.30469 6.30859 7.00738 6.30859 6.64062C6.30859 6.27387 6.6059 5.97656 6.97266 5.97656H9.96094ZM15.0078 1.32812H1.99219C1.62926 1.32812 1.33433 1.61927 1.32812 1.98075V3.32031H15.6719V1.99219C15.6719 1.62926 15.3807 1.33433 15.0193 1.32822L15.0078 1.32812Z" fill="#0F0F0F"/>
</svg>
