<svg width="17" height="17" viewBox="0 0 17 17" fill="none" xmlns="http://www.w3.org/2000/svg">
<path d="M13.5769 1.93316L13.5934 1.93603L15.8935 2.37167C16.1601 2.42216 16.3353 2.67923 16.2848 2.94585C16.235 3.20904 15.9838 3.38315 15.7209 3.33899L15.7107 3.33716L15.1742 3.23549C16.3436 4.71543 17 6.556 17 8.5C17 13.1944 13.1944 17 8.5 17C8.04807 17 7.60033 16.9647 7.15967 16.8948C6.80233 16.8382 6.55856 16.5026 6.6152 16.1452C6.67124 15.7917 7.0004 15.5493 7.35351 15.5991L7.36478 15.6008C7.73766 15.6599 8.11682 15.6898 8.5 15.6898C12.4708 15.6898 15.6898 12.4708 15.6898 8.5C15.6898 6.79545 15.0944 5.18693 14.0369 3.91287L14.092 4.57157C14.1143 4.83851 13.9189 5.07345 13.6537 5.10121L13.6434 5.10219C13.3764 5.12454 13.1415 4.92909 13.1137 4.66394L13.1128 4.65357L12.9349 2.52961C12.9092 2.22315 13.1369 1.95391 13.4433 1.92824C13.4879 1.92451 13.5328 1.9263 13.5769 1.93316ZM8.5 0C9.06886 0 9.63092 0.0559746 10.1803 0.166192C10.5351 0.237355 10.765 0.582616 10.6938 0.937353C10.6226 1.29209 10.2774 1.52197 9.92263 1.45081C9.45794 1.35759 8.98221 1.31021 8.5 1.31021C4.52919 1.31021 1.31021 4.52919 1.31021 8.5C1.31021 10.1748 1.88527 11.7564 2.90659 13.0183L2.86957 12.4583C2.85188 12.191 3.0514 11.9595 3.317 11.9364L3.32738 11.9356C3.59467 11.9179 3.82616 12.1174 3.84929 12.383L3.85009 12.3934L3.99084 14.5201C4.01115 14.827 3.77885 15.0922 3.47199 15.1125C3.42735 15.1155 3.38254 15.113 3.33853 15.1053L3.32206 15.1021L1.02993 14.6264C0.764233 14.5713 0.593549 14.3112 0.648691 14.0455C0.703126 13.7832 0.957286 13.6135 1.2194 13.6622L1.22961 13.6643L1.84812 13.7927C0.665696 12.3092 0 10.4574 0 8.5C0 3.80558 3.80558 0 8.5 0ZM8.5 3.34104C11.3492 3.34104 13.659 5.65079 13.659 8.5C13.659 11.3492 11.3492 13.659 8.5 13.659C5.65079 13.659 3.34104 11.3492 3.34104 8.5C3.34104 5.65079 5.65079 3.34104 8.5 3.34104ZM8.5 4.65125C6.3744 4.65125 4.65125 6.3744 4.65125 8.5C4.65125 10.6256 6.3744 12.3487 8.5 12.3487C10.6256 12.3487 12.3487 10.6256 12.3487 8.5C12.3487 6.3744 10.6256 4.65125 8.5 4.65125ZM8.54035 5.53435C8.76963 5.53435 8.95619 5.71759 8.96155 5.94559L8.96167 5.95568V6.44643C9.15426 6.51031 9.36821 6.62735 9.58203 6.83426C9.74921 6.99609 9.75359 7.26283 9.5918 7.43006C9.43254 7.59458 9.17176 7.60148 9.00405 7.44741L8.99601 7.43983C8.84716 7.29578 8.68958 7.2196 8.54035 7.2196C8.30803 7.2196 8.11902 7.40861 8.11902 7.64093C8.11902 7.86988 8.30259 8.05676 8.53027 8.06213L8.54035 8.06225C9.2373 8.06225 9.80432 8.62927 9.80432 9.32622C9.80432 9.87001 9.45906 10.3344 8.97634 10.5124L8.96167 10.5177V11.0115C8.96167 11.2442 8.773 11.4329 8.54035 11.4329C8.31106 11.4329 8.1245 11.2497 8.11914 11.0217L8.11902 11.0116V10.5199C7.83834 10.4258 7.57349 10.2391 7.34826 9.9711C7.19852 9.79301 7.22148 9.52724 7.39961 9.3775C7.57771 9.22776 7.84348 9.25072 7.99326 9.4289C8.166 9.63438 8.36036 9.74759 8.54035 9.74759C8.77267 9.74759 8.96167 9.55858 8.96167 9.32627C8.96167 9.09731 8.7781 8.91043 8.55042 8.90506L8.54035 8.90494C7.84339 8.90494 7.27638 8.33792 7.27638 7.64097C7.27638 7.09718 7.62164 6.63276 8.10435 6.45477L8.11902 6.44947V5.95568C8.11902 5.72302 8.30769 5.53435 8.54035 5.53435Z" fill="#0F0F0F"/>
</svg>
