<svg width="15" height="18" viewBox="0 0 15 18" fill="none" xmlns="http://www.w3.org/2000/svg">
<path fill-rule="evenodd" clip-rule="evenodd" d="M11.4286 1.92857H11.75H12.3929C13.6355 1.92857 14.6429 2.93594 14.6429 4.17857V9V9.96429V15.75C14.6429 16.9926 13.6355 18 12.3929 18H11.75H3.07143H2.75C1.50737 18 0.5 16.9926 0.5 15.75V9.96429V9V4.17857C0.5 2.93594 1.50737 1.92857 2.75 1.92857H3.71429C3.71429 0.863447 4.57773 0 5.64286 0H7.25H8.21429H9.5C10.5651 0 11.4286 0.863447 11.4286 1.92857ZM5.96429 1.28571C5.43172 1.28571 5 1.71744 5 2.25V2.57143C5 2.92648 5.28782 3.21429 5.64286 3.21429H9.5C9.85503 3.21429 10.1429 2.92648 10.1429 2.57143V2.25C10.1429 1.71744 9.71113 1.28571 9.17857 1.28571H5.96429ZM12.0714 16.7143C12.7815 16.7143 13.3571 16.1386 13.3571 15.4286V4.5C13.3571 3.78993 12.7815 3.21429 12.0714 3.21429H11.4286C11.4286 3.92436 10.8529 4.5 10.1429 4.5H5C4.28991 4.5 3.71429 3.92436 3.71429 3.21429H3.07143C2.36134 3.21429 1.78571 3.78993 1.78571 4.5V15.4286C1.78571 16.1386 2.36134 16.7143 3.07143 16.7143H12.0714ZM4.35714 6.42857H10.7857C11.1407 6.42857 11.4286 6.71637 11.4286 7.07143C11.4286 7.42648 11.1407 7.71429 10.7857 7.71429H4.35714C4.00211 7.71429 3.71429 7.42648 3.71429 7.07143C3.71429 6.71637 4.00211 6.42857 4.35714 6.42857ZM4.35714 9H8.21429C8.56932 9 8.85714 9.2878 8.85714 9.64286C8.85714 9.99791 8.56932 10.2857 8.21429 10.2857H4.35714C4.00211 10.2857 3.71429 9.99791 3.71429 9.64286C3.71429 9.2878 4.00211 9 4.35714 9ZM6.28571 11.5714H4.35714C4.00211 11.5714 3.71429 11.8592 3.71429 12.2143C3.71429 12.5693 4.00211 12.8571 4.35714 12.8571H6.28571C6.64075 12.8571 6.92857 12.5693 6.92857 12.2143C6.92857 11.8592 6.64075 11.5714 6.28571 11.5714Z" fill="#878D9F"/>
</svg>
