<svg width="17" height="17" viewBox="0 0 17 17" fill="none" xmlns="http://www.w3.org/2000/svg">
<path d="M4.64844 8.5C4.64844 6.37626 6.37623 4.64844 8.5 4.64844C10.6238 4.64844 12.3516 6.37626 12.3516 8.5C12.3516 8.86802 12.2996 9.23238 12.1971 9.5829C12.0941 9.9349 11.7254 10.1368 11.3733 10.0339C11.0213 9.93088 10.8194 9.56211 10.9223 9.21007C10.9894 8.98073 11.0234 8.74183 11.0234 8.5C11.0234 7.10855 9.89142 5.97656 8.5 5.97656C7.10858 5.97656 5.97656 7.10855 5.97656 8.5C5.97656 9.89145 7.10858 11.0234 8.5 11.0234C8.76053 11.0234 9.01708 10.9841 9.2625 10.9064C9.61211 10.7957 9.98539 10.9894 10.096 11.3391C10.2067 11.6888 10.013 12.0619 9.66331 12.1726C9.28809 12.2913 8.89669 12.3516 8.5 12.3516C6.37623 12.3516 4.64844 10.6237 4.64844 8.5Z" fill="#0F0F0F"/>
<path fill-rule="evenodd" clip-rule="evenodd" d="M14.6734 6.17581H15.0078C16.1063 6.17581 17 7.06951 17 8.168V8.83206C17 9.93056 16.1063 10.8243 15.0078 10.8243H14.6733C14.5854 10.8243 14.5056 10.8797 14.4702 10.9654L14.4652 10.9776C14.4294 11.0637 14.4465 11.1596 14.5088 11.2218L14.7452 11.4583C15.1215 11.8345 15.3287 12.3348 15.3287 12.867C15.3287 13.399 15.1215 13.8994 14.7452 14.2756L14.2757 14.7452C13.8994 15.1215 13.3991 15.3287 12.867 15.3287C12.3348 15.3287 11.8345 15.1215 11.4583 14.7452L11.2218 14.5087C11.1596 14.4465 11.0637 14.4294 10.9776 14.4652L10.9646 14.4706C10.8796 14.5056 10.8242 14.5854 10.8242 14.6733V15.0078C10.8242 16.1063 9.93052 17 8.83203 17H8.16797C7.06948 17 6.17578 16.1063 6.17578 15.0078V14.6733C6.17578 14.5854 6.1204 14.5056 6.03464 14.4702L6.02212 14.4651C5.93636 14.4294 5.84038 14.4465 5.77819 14.5087L5.54174 14.7452C5.16549 15.1215 4.6652 15.3287 4.13301 15.3287C3.60092 15.3287 3.1006 15.1215 2.72431 14.7452L2.25476 14.2756C1.87851 13.8993 1.67128 13.399 1.67128 12.867C1.67128 12.3348 1.87851 11.8345 2.2548 11.4582L2.49124 11.2217C2.55346 11.1595 2.57055 11.0637 2.53479 10.9776L2.52888 10.9632C2.49432 10.8796 2.41459 10.8242 2.32662 10.8242H1.99219C0.893696 10.8242 0 9.93049 0 8.832V8.16794C0 7.06944 0.893696 6.17575 1.99219 6.17575H2.32665C2.41459 6.17575 2.49438 6.12033 2.52979 6.03457L2.53378 6.02488C2.57055 5.93629 2.5535 5.84044 2.49127 5.77819L2.25483 5.54174C1.47803 4.76494 1.47803 3.50111 2.2548 2.72431L2.72434 2.25483C3.10063 1.87854 3.60092 1.67131 4.13304 1.67131C4.6652 1.67131 5.16552 1.87854 5.54178 2.25483L5.77825 2.4913C5.84044 2.55353 5.93639 2.57062 6.02241 2.53482L6.03541 2.52944C6.12043 2.49435 6.17581 2.41462 6.17581 2.32668V1.99219C6.17581 0.893696 7.06951 0 8.168 0H8.83206C9.93056 0 10.8243 0.893696 10.8243 1.99219V2.32668C10.8243 2.41462 10.8796 2.49435 10.9654 2.52979L10.9779 2.53495C11.0636 2.57058 11.1596 2.55353 11.2218 2.49127L11.4583 2.25483C11.8345 1.87854 12.3348 1.67131 12.867 1.67131C13.3991 1.67131 13.8994 1.87854 14.2757 2.25483L14.7453 2.72437C15.522 3.50115 15.522 4.76501 14.7453 5.54178L14.5088 5.77825C14.4466 5.84048 14.4295 5.93632 14.4652 6.02244L14.4711 6.03681C14.5057 6.1204 14.5854 6.17581 14.6734 6.17581ZM15.0078 9.49609C15.374 9.49609 15.6719 9.19821 15.6719 8.83203V8.16797C15.6719 7.80179 15.374 7.50391 15.0078 7.50391H14.6733C14.0457 7.50391 13.4841 7.12619 13.2427 6.54157L13.2377 6.52947C12.9959 5.94738 13.1258 5.28296 13.5696 4.8391L13.8061 4.60259C14.065 4.34368 14.065 3.92238 13.806 3.66347L13.3365 3.19392C13.2111 3.0685 13.0443 2.9994 12.867 2.9994C12.6895 2.9994 12.5228 3.06847 12.3974 3.19389L12.1609 3.4304C11.717 3.87416 11.0525 4.00402 10.4681 3.76132L10.4591 3.7576C9.87384 3.51593 9.49609 2.95436 9.49609 2.32668V1.99219C9.49609 1.62601 9.19821 1.32812 8.83203 1.32812H8.16797C7.80179 1.32812 7.50391 1.62601 7.50391 1.99219V2.32668C7.50391 2.95436 7.12616 3.51593 6.54153 3.75734L6.5322 3.76123C5.94751 4.00412 5.28303 3.87423 4.83913 3.43046L4.60262 3.19395C4.4772 3.0685 4.31047 2.99944 4.13304 2.99944C3.95568 2.99944 3.78895 3.06853 3.66347 3.19395L3.19395 3.6635C2.93497 3.92241 2.93497 4.34371 3.19395 4.60265L3.4304 4.8391C3.8742 5.28296 4.00409 5.94741 3.76132 6.5319L3.75824 6.53946C3.5159 7.12619 2.95433 7.50391 2.32665 7.50391H1.99219C1.62601 7.50391 1.32812 7.80179 1.32812 8.16797V8.83203C1.32812 9.19821 1.62601 9.49609 1.99219 9.49609H2.32665C2.9543 9.49609 3.51587 9.87381 3.75734 10.4584L3.76165 10.4688C4.00399 11.0532 3.87403 11.7173 3.43043 12.1609L3.19395 12.3974C3.0685 12.5228 2.99944 12.6896 2.99944 12.867C2.99944 13.0443 3.0685 13.2111 3.19395 13.3365L3.6635 13.806C3.78892 13.9315 3.95568 14.0006 4.13304 14.0006C4.31047 14.0006 4.47717 13.9315 4.60262 13.8061L4.8391 13.5696C5.13442 13.2743 5.52754 13.1179 5.92968 13.1179C6.13188 13.1179 6.33632 13.1574 6.53187 13.2386L6.54085 13.2424C7.12616 13.4841 7.50391 14.0456 7.50391 14.6733V15.0078C7.50391 15.374 7.80179 15.6719 8.16797 15.6719H8.83203C9.19821 15.6719 9.49609 15.374 9.49609 15.0078V14.6733C9.49609 14.0456 9.87384 13.4841 10.4585 13.2427L10.4678 13.2388C11.0525 12.9959 11.717 13.1258 12.1609 13.5695L12.3974 13.806C12.5228 13.9315 12.6895 14.0006 12.867 14.0006C13.0443 14.0006 13.2111 13.9315 13.3365 13.806L13.806 13.3365C13.9315 13.2111 14.0006 13.0443 14.0006 12.867C14.0006 12.6896 13.9315 12.5228 13.8061 12.3974L13.5696 12.1609C13.126 11.7173 12.996 11.0532 13.2384 10.4688L13.2427 10.4584C13.4841 9.87381 14.0457 9.49609 14.6733 9.49609H15.0078Z" fill="#0F0F0F"/>
</svg>
