<svg width="17" height="17" viewBox="0 0 17 17" fill="none" xmlns="http://www.w3.org/2000/svg">
<path d="M17 8.5C17 13.1944 13.1944 17 8.5 17C3.80558 17 -2.052e-07 13.1944 0 8.5C2.052e-07 3.80558 3.80558 -2.052e-07 8.5 0C13.1944 2.052e-07 17 3.80558 17 8.5ZM15.5833 8.5C15.5833 4.58798 12.412 1.41667 8.5 1.41667C4.58798 1.41667 1.41667 4.58798 1.41667 8.5C1.41667 12.412 4.58798 15.5833 8.5 15.5833C12.412 15.5833 15.5833 12.412 15.5833 8.5ZM12.9033 9.71854C12.9033 10.0867 12.6224 10.3893 12.2632 10.4236L12.1949 10.4269L6.65881 10.4267L7.27887 11.0473C7.5382 11.3066 7.55441 11.717 7.32749 11.9952L7.27887 12.049C7.01953 12.3084 6.60914 12.3246 6.33093 12.0977L6.27713 12.049L4.52811 10.3C4.38641 10.1583 4.30681 9.96615 4.30681 9.76576C4.30681 9.37166 4.60854 9.04804 4.99359 9.01329L5.06237 9.01021H12.1949C12.5861 9.01021 12.9033 9.32734 12.9033 9.71854ZM12.9033 7.25095C12.9033 7.64505 12.6015 7.96868 12.2165 8.00342L12.1477 8.00651H5.01514C4.62394 8.00651 4.30681 7.68938 4.30681 7.29818C4.30681 6.92999 4.58773 6.62741 4.94693 6.59308L5.01514 6.58984L10.5513 6.59005L9.93122 5.96941C9.67188 5.71007 9.65567 5.29968 9.88259 5.02147L9.93122 4.96767C10.1905 4.70834 10.6009 4.69213 10.8792 4.91905L10.933 4.96767L12.682 6.7167C12.8237 6.85839 12.9033 7.05057 12.9033 7.25095Z" fill="#0F0F0F"/>
</svg>
