<svg width="19" height="18" viewBox="0 0 19 18" fill="none" xmlns="http://www.w3.org/2000/svg">
<path d="M16.5873 2.02203C18.6167 4.05141 18.6167 7.34169 16.5873 9.37107C16.4628 9.49552 16.3336 9.61235 16.2003 9.72154C16.129 9.77772 16.0584 9.82478 15.9886 9.86274C16.0309 10.3406 15.8866 10.7739 15.6252 11.0738C15.2786 11.4716 14.8348 11.7021 14.2938 11.7654C14.2214 12.3129 14.0371 12.7261 13.7411 13.005C13.4451 13.284 13.037 13.4357 12.5168 13.4602C12.5168 13.9083 12.3517 14.314 12.0214 14.6772L12.0153 14.6838L12.0025 14.6973L11.9887 14.7112C11.9863 14.7135 11.9839 14.7159 11.9814 14.7182L11.9662 14.7327L11.9501 14.7474C11.9446 14.7524 11.9389 14.7574 11.9331 14.7624L11.9152 14.7777C11.9121 14.7802 11.909 14.7828 11.9059 14.7854L11.8866 14.801L11.8665 14.8167L11.8455 14.8326L11.8237 14.8486C11.82 14.8513 11.8162 14.854 11.8124 14.8567L11.7893 14.8728L11.7654 14.8889L11.7406 14.9051L11.7151 14.9212C11.7021 14.9292 11.6888 14.9372 11.6753 14.9452L11.6477 14.9611C11.6431 14.9638 11.6384 14.9664 11.6337 14.969L11.605 14.9847L11.5755 15.0002C11.3743 15.1041 11.1221 15.193 10.833 15.224C10.8251 15.3465 10.8045 15.4684 10.7713 15.5875L10.7682 15.6027L10.7643 15.6209L10.7601 15.639C10.7593 15.642 10.7586 15.645 10.7578 15.648L10.7531 15.6661L10.7479 15.6842C10.747 15.6872 10.7461 15.6902 10.7452 15.6932L10.7394 15.7115C10.7384 15.7145 10.7374 15.7176 10.7363 15.7206L10.7298 15.7391C10.7287 15.7422 10.7275 15.7453 10.7264 15.7484L10.719 15.7673C10.7178 15.7705 10.7165 15.7736 10.7152 15.7768L10.7069 15.7962L10.6981 15.8159L10.6886 15.8361L10.6784 15.8568L10.6674 15.8781L10.6557 15.9L10.6432 15.9225L10.6298 15.9457L10.6155 15.9697C10.6131 15.9738 10.6106 15.9779 10.6081 15.982L10.6049 15.9873C10.5637 16.0596 10.517 16.1297 10.4649 16.1969L10.4421 16.2288L10.4172 16.2633L10.3774 16.3176L10.3493 16.3556L10.3198 16.3951L10.273 16.4572L10.24 16.5005C9.66297 17.2569 9.05934 17.5704 8.09079 17.4869L8.02137 17.4485L7.97641 17.4233L7.93252 17.3984L7.88969 17.374L7.84792 17.3498L7.80999 17.3277C7.59777 17.2408 7.39892 17.1113 7.22663 16.939C7.20906 16.9214 7.19193 16.9036 7.17525 16.8855L7.17244 16.8827L7.15672 16.8671C7.15165 16.862 7.14677 16.8569 7.14206 16.8518C7.11167 16.8194 7.08267 16.7822 7.05507 16.7404C6.92009 16.5587 6.8242 16.3572 6.7674 16.1472C6.67891 16.1674 6.58914 16.1807 6.49898 16.1872C6.09494 16.2295 5.69774 16.121 5.30738 15.8617C4.82952 15.5442 4.57201 15.1018 4.53487 14.5346C4.05766 14.5524 3.57464 14.3791 3.21031 14.0148C2.81905 13.6236 2.64812 13.0954 2.69751 12.5845C2.45905 12.5549 2.2254 12.477 2.01241 12.3509C1.85876 12.2648 1.72644 12.1581 1.61547 12.0308C1.22524 11.6118 1.07473 11.0504 1.16396 10.5216C1.17714 10.3878 1.20483 10.2451 1.25127 10.092C1.29643 9.9431 1.42151 9.76794 1.62653 9.56649L1.6571 9.53683C1.66229 9.53185 1.66753 9.52686 1.67282 9.52185L1.52203 9.37107C-0.507345 7.34169 -0.507345 4.05141 1.52203 2.02203C3.55141 -0.00734478 6.84169 -0.00734478 8.87107 2.02203C8.90639 2.05736 8.93954 2.09051 8.97052 2.12149L9.00916 2.16013C9.01332 2.16429 9.01744 2.16841 9.02151 2.17248L9.05941 2.21038L9.07877 2.1894L9.1219 2.14317L9.15136 2.11189L9.20288 2.05803L9.23174 2.02859L9.23827 2.02203C11.2676 -0.00734478 14.5579 -0.00734478 16.5873 2.02203ZM8.80326 14.8394L8.79608 14.8464L8.22311 15.4193C8.17946 15.463 8.149 15.5148 8.13172 15.5699L8.18589 15.7975L8.18955 15.8126L8.19681 15.8414C8.19802 15.846 8.19921 15.8505 8.20041 15.8549L8.20749 15.8804C8.20866 15.8845 8.20982 15.8885 8.21098 15.8924L8.21779 15.9146L8.2195 15.92L8.24064 15.9348L8.26155 15.949L8.2726 15.9565C8.28276 15.9633 8.29325 15.9702 8.30407 15.9773L8.33751 15.9989C8.34324 16.0026 8.34906 16.0063 8.35496 16.01L8.39133 16.0328L8.40756 16.0428C8.52291 16.0672 8.64769 16.0361 8.73908 15.9495L8.74626 15.9425L9.31923 15.3695C9.32599 15.3628 9.33243 15.3558 9.33855 15.3487L9.36074 15.3163L9.37748 15.2913L9.38695 15.2767C9.39033 15.2701 9.3935 15.2635 9.39645 15.2567L9.40956 15.1534L9.41601 15.1047L9.4234 15.0523C9.412 14.977 9.37728 14.9044 9.31923 14.8464C9.17714 14.7043 8.9482 14.7019 8.80326 14.8394ZM6.68941 13.5711L6.68223 13.5781L6.10926 14.151C5.96479 14.2955 5.96479 14.5297 6.10926 14.6742C6.182 14.7469 6.2775 14.783 6.37284 14.7825C6.38405 14.7806 6.39544 14.7779 6.40718 14.7746L6.41493 14.7724L6.56364 14.7284C6.58538 14.7151 6.60604 14.6994 6.62523 14.6812L6.63241 14.6742L7.20538 14.1012C7.34985 13.9567 7.34985 13.7225 7.20538 13.5781C7.06329 13.436 6.83435 13.4336 6.68941 13.5711ZM2.51851 3.01851C1.05426 4.48276 1.03962 6.84768 2.47459 8.32994L2.51851 8.37459L2.76525 8.62124C3.419 8.32932 4.21279 8.45159 4.74924 8.98804C5.14049 9.37929 5.31142 9.90742 5.26204 10.4183C5.64125 10.4654 6.00823 10.6346 6.2994 10.9257C6.61659 11.2429 6.78898 11.6501 6.81656 12.0651C7.31327 12.0296 7.82206 12.2018 8.20186 12.5816C8.42956 12.8093 8.58263 13.0833 8.66109 13.3734C9.23756 13.2421 9.86676 13.4009 10.3157 13.8499L10.3249 13.8592L10.6796 13.8231C10.7676 13.8142 10.8545 13.7868 10.9317 13.7466C10.9539 13.7351 10.9735 13.7233 10.9894 13.7125L10.9998 13.7052L11.0059 13.6982C11.0813 13.6085 11.1058 13.5446 11.1075 13.4687L11.1076 13.4602L11.1075 12.8609L8.61623 10.3695L9.46324 9.52251L12.0138 12.0731L12.4505 12.0525C12.5713 12.0468 12.6608 12.0298 12.7219 12.0071C12.7523 11.9958 12.7662 11.9873 12.7747 11.9794C12.7767 11.9775 12.7797 11.9739 12.7844 11.9672C12.7933 11.9543 12.8034 11.9363 12.8142 11.912C12.8467 11.8392 12.875 11.7355 12.8942 11.5993L12.8968 11.5805L12.9457 11.2111L10.3778 8.64321L11.2248 7.7962L13.8295 10.4009L14.13 10.3657C14.2355 10.3534 14.6185 10.3571 14.7881 10.1589C14.9149 10.0107 14.8944 9.71249 14.8228 9.57283C14.8221 9.57217 14.8215 9.57146 14.8209 9.57075L14.8081 9.55572L11.2112 5.99638L11.1791 6.01521C10.1255 6.62218 8.79521 6.4482 7.93322 5.59066L7.90724 5.56447L6.81493 4.44796L7.97933 3.28775L7.87459 3.01851C6.39555 1.53947 3.99755 1.53947 2.51851 3.01851ZM4.78694 11.9152L4.77977 11.9222L4.20679 12.4952C4.17497 12.527 4.15016 12.5632 4.13236 12.6018L4.1263 12.6851C4.11734 12.8074 4.13903 12.8693 4.22424 12.9616C4.29993 13.0436 4.36867 13.0741 4.51837 13.0758L4.5322 13.0759L4.6556 13.0759C4.67938 13.0619 4.70194 13.0451 4.72277 13.0253L4.72994 13.0183L5.30292 12.4454C5.44738 12.3009 5.44738 12.0667 5.30292 11.9222C5.16082 11.7801 4.93188 11.7778 4.78694 11.9152ZM3.27202 9.94801L3.15894 10.0551L2.65663 10.5575C2.61126 10.6029 2.58013 10.6571 2.56326 10.7146C2.56429 10.7903 2.58274 10.8674 2.62039 10.9724L2.63199 11.0041L2.6447 11.0374L2.65389 11.0609L2.65901 11.0731L2.66356 11.083C2.66516 11.0863 2.66667 11.0891 2.66813 11.0917C2.68363 11.1059 2.70006 11.1186 2.71722 11.1297C2.72595 11.1339 2.73611 11.1382 2.74786 11.1427C2.79234 11.1599 2.84955 11.1751 2.92027 11.1869L2.93147 11.1888C3.01857 11.1856 3.10478 11.1519 3.17261 11.0876L3.17978 11.0806L3.75276 10.5077C3.89722 10.3632 3.89722 10.129 3.75276 9.98452C3.62171 9.85346 3.41679 9.8413 3.27202 9.94801ZM10.2347 3.01851L10.2176 3.03595L10.1837 3.07123L10.1484 3.10868L10.0888 3.1728L10.0592 3.20483L8.7988 4.46063L8.91457 4.57896C9.32096 4.99435 9.95474 5.08501 10.4603 4.8028L10.4724 4.79592L11.4333 4.23354L15.6042 8.36093L15.6348 8.32994C17.0552 6.86265 17.0552 4.53045 15.6348 3.06316L15.5908 3.01851C14.1118 1.53947 11.7138 1.53947 10.2347 3.01851Z" fill="#E60023"/>
</svg>
