<svg width="17" height="18" viewBox="0 0 17 18" fill="none" xmlns="http://www.w3.org/2000/svg">
<path d="M15.98 6.62C15.64 6.28 15.47 5.855 15.47 5.43C15.47 3.56 13.94 2.03 12.07 2.03C11.645 2.03 11.22 1.86 10.88 1.52C9.52 0.16 7.395 0.16 6.035 1.52C5.78 1.86 5.355 2.03 4.93 2.03C3.06 2.03 1.53 3.56 1.53 5.43C1.53 5.855 1.36 6.28 1.02 6.62C-0.34 7.98 -0.34 10.105 1.02 11.465C1.36 11.805 1.53 12.23 1.53 12.655C1.53 14.525 3.06 16.055 4.93 16.055C5.355 16.055 5.78 16.225 6.12 16.565C6.8 17.16 7.65 17.5 8.5 17.5C9.35 17.5 10.285 17.16 10.88 16.48C11.22 16.14 11.645 15.97 12.07 15.97C13.94 15.97 15.47 14.44 15.47 12.57C15.47 12.145 15.64 11.72 15.895 11.38C17.34 10.105 17.34 7.895 15.98 6.62ZM14.79 10.19C14.11 10.87 13.77 11.72 13.77 12.57C13.77 13.505 13.005 14.27 12.07 14.27C11.135 14.27 10.285 14.61 9.69 15.29C9.01 15.97 7.99 15.97 7.31 15.29C6.63 14.61 5.78 14.27 4.93 14.27C3.995 14.27 3.23 13.505 3.23 12.57C3.23 11.635 2.89 10.785 2.21 10.19C1.53 9.51 1.53 8.49 2.21 7.81C2.89 7.13 3.23 6.28 3.23 5.43C3.23 4.495 3.995 3.73 4.93 3.73C5.865 3.73 6.715 3.39 7.31 2.71C7.65 2.37 8.075 2.2 8.5 2.2C8.925 2.2 9.35 2.37 9.69 2.71C10.37 3.39 11.22 3.73 12.07 3.73C13.005 3.73 13.77 4.495 13.77 5.43C13.77 6.365 14.11 7.215 14.79 7.81C15.47 8.49 15.47 9.51 14.79 10.19L15.385 10.785L14.79 10.19Z" fill="#E60023"/>
<path d="M10.1996 11.5525C10.6691 11.5525 11.0496 11.172 11.0496 10.7025C11.0496 10.2331 10.6691 9.85254 10.1996 9.85254C9.73017 9.85254 9.34961 10.2331 9.34961 10.7025C9.34961 11.172 9.73017 11.5525 10.1996 11.5525Z" fill="#E60023"/>
<path d="M6.79824 8.14922C7.26768 8.14922 7.64824 7.76866 7.64824 7.29922C7.64824 6.82978 7.26768 6.44922 6.79824 6.44922C6.3288 6.44922 5.94824 6.82978 5.94824 7.29922C5.94824 7.76866 6.3288 8.14922 6.79824 8.14922Z" fill="#E60023"/>
<path d="M9.60324 6.70422L6.20324 10.1042C5.86324 10.4442 5.86324 10.9542 6.20324 11.2942C6.37324 11.4642 6.54324 11.5492 6.79824 11.5492C7.05324 11.5492 7.22324 11.4642 7.39324 11.2942L10.7932 7.89422C11.1332 7.55422 11.1332 7.04422 10.7932 6.70422C10.4532 6.36422 9.94324 6.36422 9.60324 6.70422Z" fill="#E60023"/>
</svg>
