<svg width="15" height="20" viewBox="0 0 15 20" fill="none" xmlns="http://www.w3.org/2000/svg">
<path d="M7.5 10.8354C11.6421 10.8354 15 14.1933 15 18.3354C15 18.6279 14.9833 18.9165 14.9507 19.2003L14.9435 19.261L13.6821 19.2608L12.7448 19.2602L11.7293 19.2587L11.0597 19.2573L10.3663 19.2554L9.65158 19.2529L9.06622 19.2505L8.47019 19.2476L7.86481 19.2442L7.25139 19.2403L6.63123 19.2358L6.16249 19.2321L5.69126 19.228L5.21808 19.2235L4.74352 19.2187L4.26812 19.2134L3.79243 19.2077L3.31702 19.2016L2.84244 19.195L2.36923 19.188L2.05479 19.183L1.74138 19.1778L1.42915 19.1724L1.11828 19.1668L0.808914 19.1609L0.501229 19.1548L0.0432054 19.1452C0.014649 18.8792 0 18.609 0 18.3354C0 14.1933 3.35786 10.8354 7.5 10.8354ZM9.9527 12.7948L8.22115 15.5629V17.8046L8.53959 17.8063L9.27775 17.8095L9.77916 17.8114L10.6755 17.8141L11.731 17.8164L12.8219 17.8178L13.5358 17.8184L13.5288 17.7405C13.3129 15.5254 11.9039 13.6599 9.9527 12.7948ZM1.48146 17.6429L1.47213 17.7309L1.97569 17.7398L2.39085 17.7465L3.01953 17.756L3.44304 17.7619L3.97786 17.7687L4.51924 17.7751L4.95745 17.7798L5.51205 17.7853L6.07478 17.7902L6.6462 17.7947L6.77885 17.7957V15.5686L5.00093 12.8156C3.10239 13.6765 1.72669 15.4881 1.48146 17.6429ZM7.5 12.2777C7.13533 12.2777 6.77819 12.3099 6.43126 12.3717L7.4903 14.0117L8.52129 12.3634C8.22119 12.3125 7.91357 12.2836 7.60017 12.2785L7.5 12.2777ZM7.5 0.739258C9.98926 0.739258 12.0072 2.75721 12.0072 5.24647C12.0072 7.73573 9.98926 9.75368 7.5 9.75368C5.01074 9.75368 2.99279 7.73573 2.99279 5.24647C2.99279 2.75721 5.01074 0.739258 7.5 0.739258ZM7.5 2.18157C5.8073 2.18157 4.4351 3.55377 4.4351 5.24647C4.4351 6.93917 5.8073 8.31137 7.5 8.31137C9.1927 8.31137 10.5649 6.93917 10.5649 5.24647C10.5649 3.55377 9.1927 2.18157 7.5 2.18157Z" fill="#E60023"/>
</svg>
