<svg width="18" height="18" viewBox="0 0 18 18" fill="none" xmlns="http://www.w3.org/2000/svg">
<path fill-rule="evenodd" clip-rule="evenodd" d="M1.59109 7.79515H5.75679C6.17848 7.79463 6.58275 7.62688 6.88093 7.3287C7.17911 7.03052 7.34686 6.62625 7.34738 6.20456V2.09059C7.34686 1.6689 7.17911 1.26463 6.88093 0.96645C6.58275 0.668269 6.17848 0.500522 5.75679 0.5H1.59109C1.16931 0.500391 0.764913 0.668081 0.466625 0.966276C0.168337 1.26447 0.00052182 1.66882 0 2.09059V6.20456C0.00052182 6.62633 0.168337 7.03068 0.466625 7.32888C0.764913 7.62707 1.16931 7.79476 1.59109 7.79515ZM1.3374 1.83705C1.40473 1.76982 1.49594 1.732 1.59109 1.73187H5.75679C5.85189 1.732 5.94305 1.76984 6.0103 1.83708C6.07754 1.90433 6.11538 1.9955 6.11551 2.09059V6.20456C6.11538 6.29966 6.07754 6.39082 6.0103 6.45807C5.94305 6.52531 5.85189 6.56315 5.75679 6.56328H1.59109C1.49594 6.56315 1.40473 6.52533 1.3374 6.4581C1.27008 6.39087 1.23213 6.2997 1.23187 6.20456V2.09059C1.23213 1.99545 1.27008 1.90428 1.3374 1.83705ZM1.61159 17.5002H5.7773C6.1989 17.4994 6.60299 17.3315 6.90098 17.0333C7.19896 16.735 7.36651 16.3307 7.3669 15.9091V11.7957C7.36638 11.3742 7.19877 10.97 6.9008 10.6719C6.60284 10.3737 6.19882 10.2059 5.7773 10.2051H1.61159C1.18982 10.2055 0.78542 10.3732 0.487133 10.6714C0.188845 10.9696 0.0210296 11.3739 0.0205078 11.7957V15.9091C0.0210294 16.331 0.188829 16.7354 0.487103 17.0336C0.785376 17.3319 1.18977 17.4997 1.61159 17.5002ZM1.35791 11.5421C1.42523 11.4749 1.51645 11.4371 1.61159 11.437H5.7773C5.87239 11.4371 5.96356 11.4749 6.03081 11.5422C6.09805 11.6094 6.13589 11.7006 6.13602 11.7957V15.9091C6.13589 16.0043 6.09807 16.0955 6.03084 16.1628C5.96361 16.2302 5.87244 16.2681 5.7773 16.2684H1.61159C1.51637 16.2682 1.42507 16.2303 1.35774 16.163C1.2904 16.0957 1.25251 16.0044 1.25238 15.9091V11.7957C1.25264 11.7005 1.29059 11.6094 1.35791 11.5421ZM15.4091 17.5002H11.2434C10.8216 17.4997 10.4172 17.3319 10.1189 17.0336C9.82066 16.7354 9.65287 16.331 9.65234 15.9091V11.7957C9.65287 11.3739 9.82068 10.9696 10.119 10.6714C10.4173 10.3732 10.8217 10.2055 11.2434 10.2051H15.4091C15.8308 10.2056 16.2351 10.3733 16.5333 10.6715C16.8315 10.9697 16.9992 11.374 16.9997 11.7957V15.9091C16.9993 16.3309 16.8316 16.7353 16.5335 17.0336C16.2353 17.3319 15.8309 17.4997 15.4091 17.5002ZM11.2434 11.4394C11.1483 11.4395 11.0571 11.4774 10.9897 11.5446C10.9224 11.6118 10.8845 11.703 10.8842 11.7981V15.9116C10.8843 16.0068 10.9222 16.0981 10.9896 16.1655C11.0569 16.2328 11.1482 16.2707 11.2434 16.2708H15.4091C15.5043 16.2706 15.5954 16.2326 15.6627 16.1653C15.7299 16.098 15.7677 16.0068 15.7679 15.9116V11.7957C15.7677 11.7006 15.7299 11.6094 15.6626 11.5422C15.5954 11.4749 15.5042 11.4371 15.4091 11.437L11.2434 11.4394ZM11.3108 7.16787C11.9069 7.57177 12.6092 7.79017 13.3292 7.79552C14.2995 7.79788 15.2311 7.41533 15.9198 6.73178C16.6084 6.04822 16.9978 5.11946 17.0027 4.14917C17.0026 3.42915 16.7894 2.72526 16.39 2.12622C15.9905 1.52718 15.4226 1.05982 14.7579 0.783062C14.0932 0.506301 13.3614 0.432526 12.6548 0.571038C11.9483 0.70955 11.2985 1.05415 10.7875 1.56139C10.2765 2.06863 9.9271 2.71581 9.78336 3.42134C9.63962 4.12687 9.70798 4.85916 9.97981 5.52589C10.2516 6.19263 10.7148 6.76396 11.3108 7.16787ZM11.9953 2.15472C12.3887 1.88619 12.8529 1.74005 13.3292 1.7347V1.73224C13.9733 1.72962 14.5921 1.98263 15.0498 2.43576C15.5076 2.88888 15.7669 3.5051 15.7708 4.14917C15.7707 4.62555 15.6298 5.09127 15.3657 5.48772C15.1015 5.88417 14.726 6.19363 14.2864 6.37714C13.8468 6.56066 13.3628 6.61003 12.8951 6.51904C12.4275 6.42806 11.9973 6.20078 11.6586 5.86581C11.3198 5.53085 11.0878 5.10317 10.9916 4.63661C10.8954 4.17005 10.9393 3.68545 11.1179 3.24382C11.2965 2.80219 11.6018 2.42326 11.9953 2.15472Z" fill="#E60023"/>
</svg>
