<svg width="25" height="20" viewBox="0 0 25 20" fill="none" xmlns="http://www.w3.org/2000/svg">
<path d="M9.56448 6.77815V6.18752H11.252C11.9979 6.18752 12.7133 5.89121 13.2407 5.36376C13.7682 4.83631 14.0645 4.12094 14.0645 3.37501V2.25001C14.0645 2.10082 14.0052 1.95775 13.8997 1.85226C13.7943 1.74677 13.6512 1.68751 13.502 1.68751H11.252C10.6429 1.6842 10.0498 1.88192 9.56448 2.25001V0.562502C9.56448 0.413317 9.50522 0.270243 9.39973 0.164753C9.29424 0.0592635 9.15117 0 9.00198 0C8.8528 0 8.70972 0.0592635 8.60423 0.164753C8.49874 0.270243 8.43948 0.413317 8.43948 0.562502V1.125C7.9542 0.756916 7.36105 0.559198 6.75197 0.562502H4.50196C4.35278 0.562502 4.2097 0.621766 4.10421 0.727255C3.99872 0.832745 3.93946 0.97582 3.93946 1.125V2.25001C3.93946 2.99593 4.23578 3.71131 4.76323 4.23875C5.29067 4.7662 6.00605 5.06252 6.75197 5.06252H8.43948V6.77815C7.00362 6.92246 5.67814 7.6131 4.73718 8.70724C3.79622 9.80137 3.31177 11.2153 3.38401 12.6566C3.45626 14.0979 4.07968 15.4563 5.12533 16.4508C6.17098 17.4454 7.55888 18 9.00198 18C10.4451 18 11.833 17.4454 12.8786 16.4508C13.9243 15.4563 14.5477 14.0979 14.62 12.6566C14.6922 11.2153 14.2077 9.80137 13.2668 8.70724C12.3258 7.6131 11.0003 6.92246 9.56448 6.77815ZM11.252 2.84064H12.9395V3.37501C12.9395 3.82257 12.7617 4.25179 12.4452 4.56826C12.1288 4.88473 11.6995 5.06252 11.252 5.06252H9.56448V4.50002C9.56448 4.05246 9.74227 3.62324 10.0587 3.30677C10.3752 2.9903 10.8044 2.81251 11.252 2.81251V2.84064ZM5.06447 2.25001V1.68751H6.75197C7.19953 1.68751 7.62875 1.8653 7.94522 2.18177C8.26169 2.49823 8.43948 2.92746 8.43948 3.37501V3.93752H6.75197C6.30442 3.93752 5.87519 3.75973 5.55872 3.44326C5.24226 3.12679 5.06447 2.69756 5.06447 2.25001ZM9.00198 16.8751C8.11196 16.8751 7.24193 16.6111 6.50191 16.1167C5.76188 15.6222 5.1851 14.9194 4.84451 14.0971C4.50391 13.2749 4.4148 12.3701 4.58843 11.4971C4.76206 10.6242 5.19065 9.82239 5.81999 9.19306C6.44933 8.56372 7.25115 8.13513 8.12407 7.9615C8.99699 7.78786 9.90179 7.87698 10.7241 8.21757C11.5463 8.55817 12.2491 9.13495 12.7436 9.87497C13.2381 10.615 13.502 11.485 13.502 12.375C13.502 13.5685 13.0279 14.7131 12.184 15.557C11.3401 16.401 10.1955 16.8751 9.00198 16.8751Z" fill="#E60023"/>
<path d="M9.00196 10.6875H10.127C10.2761 10.6875 10.4192 10.6282 10.5247 10.5228C10.6302 10.4173 10.6895 10.2742 10.6895 10.125C10.6895 9.97582 10.6302 9.83274 10.5247 9.72725C10.4192 9.62177 10.2761 9.5625 10.127 9.5625H9.56446C9.56446 9.41332 9.5052 9.27024 9.39971 9.16475C9.29422 9.05926 9.15114 9 9.00196 9C8.85277 9 8.7097 9.05926 8.60421 9.16475C8.49872 9.27024 8.43946 9.41332 8.43946 9.5625V9.66375C8.06744 9.79874 7.75469 10.0602 7.5559 10.4024C7.3571 10.7446 7.2849 11.1458 7.35192 11.5358C7.41893 11.9259 7.6209 12.2799 7.92252 12.5362C8.22414 12.7924 8.60622 12.9344 9.00196 12.9375C9.15114 12.9375 9.29422 12.9968 9.39971 13.1023C9.5052 13.2078 9.56446 13.3508 9.56446 13.5C9.56446 13.6492 9.5052 13.7923 9.39971 13.8978C9.29422 14.0033 9.15114 14.0625 9.00196 14.0625H7.87696C7.72777 14.0625 7.5847 14.1218 7.47921 14.2273C7.37372 14.3328 7.31445 14.4758 7.31445 14.625C7.31445 14.7742 7.37372 14.9173 7.47921 15.0228C7.5847 15.1283 7.72777 15.1875 7.87696 15.1875H8.43946C8.43946 15.3367 8.49872 15.4798 8.60421 15.5853C8.7097 15.6908 8.85277 15.75 9.00196 15.75C9.15114 15.75 9.29422 15.6908 9.39971 15.5853C9.5052 15.4798 9.56446 15.3367 9.56446 15.1875V15.0863C9.93648 14.9513 10.2492 14.6898 10.448 14.3476C10.6468 14.0054 10.719 13.6042 10.652 13.2142C10.585 12.8242 10.383 12.4701 10.0814 12.2139C9.77978 11.9576 9.3977 11.8156 9.00196 11.8125C8.85277 11.8125 8.7097 11.7532 8.60421 11.6478C8.49872 11.5423 8.43946 11.3992 8.43946 11.25C8.43946 11.1008 8.49872 10.9577 8.60421 10.8523C8.7097 10.7468 8.85277 10.6875 9.00196 10.6875Z" fill="#E60023"/>
<path d="M3.21419 4.10096L2.08918 2.97596C2.03689 2.92324 1.97468 2.88139 1.90613 2.85283C1.83759 2.82427 1.76407 2.80957 1.68981 2.80957C1.61555 2.80957 1.54203 2.82427 1.47348 2.85283C1.40494 2.88139 1.34272 2.92324 1.29043 2.97596L0.165427 4.10096C0.0595059 4.20688 -1.11606e-09 4.35054 0 4.50034C1.11606e-09 4.65013 0.0595059 4.79379 0.165427 4.89972C0.271348 5.00564 0.415008 5.06514 0.564804 5.06514C0.714599 5.06514 0.858259 5.00564 0.96418 4.89972L1.12731 4.73096V6.18785C1.12731 6.33703 1.18657 6.4801 1.29206 6.58559C1.39755 6.69108 1.54062 6.75035 1.68981 6.75035C1.83899 6.75035 1.98207 6.69108 2.08756 6.58559C2.19305 6.4801 2.25231 6.33703 2.25231 6.18785V4.73096L2.41544 4.89972C2.46773 4.95244 2.52994 4.99428 2.59849 5.02284C2.66703 5.0514 2.74056 5.0661 2.81481 5.0661C2.88907 5.0661 2.96259 5.0514 3.03114 5.02284C3.09968 4.99428 3.1619 4.95244 3.21419 4.89972C3.26691 4.84742 3.30876 4.78521 3.33732 4.71666C3.36587 4.64812 3.38058 4.5746 3.38058 4.50034C3.38058 4.42608 3.36587 4.35256 3.33732 4.28401C3.30876 4.21547 3.26691 4.15325 3.21419 4.10096Z" fill="#E60023"/>
<path d="M17.8392 7.47596L16.7142 6.35096C16.6619 6.29824 16.5997 6.25639 16.5311 6.22783C16.4626 6.19927 16.3891 6.18457 16.3148 6.18457C16.2406 6.18457 16.167 6.19927 16.0985 6.22783C16.0299 6.25639 15.9677 6.29824 15.9154 6.35096L14.7904 7.47596C14.738 7.52841 14.6964 7.59067 14.668 7.6592C14.6396 7.72772 14.625 7.80117 14.625 7.87534C14.625 8.02513 14.6845 8.16879 14.7904 8.27472C14.8963 8.38064 15.04 8.44014 15.1898 8.44014C15.264 8.44014 15.3374 8.42553 15.4059 8.39715C15.4745 8.36877 15.5367 8.32716 15.5892 8.27472L15.7523 8.10596V9.56285C15.7523 9.71203 15.8116 9.85511 15.9171 9.96059C16.0225 10.0661 16.1656 10.1253 16.3148 10.1253C16.464 10.1253 16.6071 10.0661 16.7126 9.96059C16.818 9.85511 16.8773 9.71203 16.8773 9.56285V8.10596L17.0404 8.27472C17.0927 8.32744 17.1549 8.36928 17.2235 8.39784C17.292 8.4264 17.3656 8.4411 17.4398 8.4411C17.5141 8.4411 17.5876 8.4264 17.6561 8.39784C17.7247 8.36928 17.7869 8.32744 17.8392 8.27472C17.8919 8.22242 17.9338 8.16021 17.9623 8.09166C17.9909 8.02312 18.0056 7.9496 18.0056 7.87534C18.0056 7.80108 17.9909 7.72756 17.9623 7.65901C17.9338 7.59047 17.8919 7.52825 17.8392 7.47596Z" fill="#E60023"/>
</svg>
