<svg width="14" height="14" viewBox="0 0 14 14" fill="none" xmlns="http://www.w3.org/2000/svg">
<path d="M10.3125 7.9375H9.375V6.0625H10.3125C11.8655 6.0625 13.125 4.80297 13.125 3.25C13.125 1.69703 11.8655 0.4375 10.3125 0.4375C8.75953 0.4375 7.5 1.69703 7.5 3.25V4.1875H5.625V3.25C5.625 1.69703 4.36547 0.4375 2.8125 0.4375C1.25953 0.4375 0 1.69703 0 3.25C0 4.80297 1.25953 6.0625 2.8125 6.0625H3.75V7.9375H2.8125C1.25953 7.9375 0 9.19703 0 10.75C0 12.303 1.25953 13.5625 2.8125 13.5625C4.36547 13.5625 5.625 12.303 5.625 10.75V9.8125H7.5V10.75C7.5 12.303 8.75953 13.5625 10.3125 13.5625C11.8655 13.5625 13.125 12.303 13.125 10.75C13.125 9.19703 11.8655 7.9375 10.3125 7.9375ZM10.3125 2.3125C10.83 2.3125 11.25 2.7325 11.25 3.25C11.25 3.7675 10.83 4.1875 10.3125 4.1875H9.375V3.25C9.375 2.7325 9.795 2.3125 10.3125 2.3125ZM1.875 3.25C1.875 2.7325 2.295 2.3125 2.8125 2.3125C3.33 2.3125 3.75 2.7325 3.75 3.25V4.1875H2.8125C2.295 4.1875 1.875 3.7675 1.875 3.25ZM2.8125 11.6875C2.295 11.6875 1.875 11.2675 1.875 10.75C1.875 10.2325 2.295 9.8125 2.8125 9.8125H3.75V10.75C3.75 11.2675 3.33 11.6875 2.8125 11.6875ZM5.625 7.9375V6.0625H7.5V7.9375H5.625ZM10.3125 11.6875C9.795 11.6875 9.375 11.2675 9.375 10.75V9.8125H10.3125C10.83 9.8125 11.25 10.2325 11.25 10.75C11.25 11.2675 10.83 11.6875 10.3125 11.6875Z" fill="#E60023"/>
</svg>
