<svg width="16" height="16" viewBox="0 0 16 16" fill="none" xmlns="http://www.w3.org/2000/svg">
<path d="M11.8827 0.496094H8.75768C8.59192 0.496094 8.43295 0.561942 8.31574 0.679152C8.19853 0.796362 8.13268 0.955333 8.13268 1.12109C8.13268 1.28685 8.19853 1.44583 8.31574 1.56304C8.43295 1.68025 8.59192 1.74609 8.75768 1.74609H11.8827C12.1611 1.74717 12.4357 1.81127 12.6858 1.93359L0.190805 14.4292C0.131111 14.4869 0.0834974 14.5558 0.0507418 14.6321C0.0179861 14.7083 0.000744733 14.7904 2.3598e-05 14.8733C-0.000697537 14.9563 0.015116 15.0386 0.0465416 15.1154C0.0779671 15.1923 0.124375 15.262 0.183058 15.3207C0.241741 15.3794 0.311524 15.4258 0.388334 15.4572C0.465144 15.4887 0.547444 15.5045 0.630431 15.5038C0.713418 15.503 0.79543 15.4858 0.871683 15.453C0.947936 15.4203 1.0169 15.3727 1.07456 15.313L13.5702 2.81797C13.6925 3.06809 13.7566 3.34266 13.7577 3.62109V6.74609C13.7577 6.91185 13.8235 7.07083 13.9407 7.18804C14.058 7.30525 14.2169 7.37109 14.3827 7.37109C14.5484 7.37109 14.7074 7.30525 14.8246 7.18804C14.9418 7.07083 15.0077 6.91185 15.0077 6.74609V3.62109C15.0067 2.7926 14.6771 1.99832 14.0913 1.41248C13.5055 0.826645 12.7112 0.497086 11.8827 0.496094Z" fill="#E60023"/>
<path d="M3.75768 6.74609C4.25213 6.74609 4.73548 6.59947 5.14661 6.32477C5.55773 6.05006 5.87816 5.65962 6.06738 5.2028C6.2566 4.74599 6.30611 4.24332 6.20964 3.75837C6.11318 3.27342 5.87508 2.82796 5.52545 2.47833C5.17582 2.1287 4.73036 1.89059 4.24541 1.79413C3.76045 1.69767 3.25779 1.74718 2.80097 1.9364C2.34416 2.12561 1.95371 2.44605 1.67901 2.85717C1.4043 3.26829 1.25768 3.75164 1.25768 4.24609C1.25768 4.90914 1.52107 5.54502 1.98991 6.01386C2.45875 6.4827 3.09464 6.74609 3.75768 6.74609ZM3.75768 2.99609C4.00491 2.99609 4.24658 3.06941 4.45214 3.20676C4.6577 3.34411 4.81792 3.53933 4.91253 3.76774C5.00714 3.99615 5.03189 4.24748 4.98366 4.48996C4.93543 4.73243 4.81638 4.95516 4.64156 5.12998C4.46675 5.30479 4.24402 5.42384 4.00154 5.47208C3.75907 5.52031 3.50773 5.49555 3.27933 5.40094C3.05092 5.30633 2.8557 5.14612 2.71834 4.94056C2.58099 4.73499 2.50768 4.49332 2.50768 4.24609C2.50768 3.91457 2.63938 3.59663 2.8738 3.36221C3.10822 3.12779 3.42616 2.99609 3.75768 2.99609Z" fill="#E60023"/>
<path d="M11.2577 9.24609C10.7632 9.24609 10.2799 9.39272 9.86876 9.66742C9.45763 9.94212 9.1372 10.3326 8.94798 10.7894C8.75876 11.2462 8.70925 11.7489 8.80572 12.2338C8.90218 12.7188 9.14028 13.1642 9.48991 13.5139C9.83955 13.8635 10.285 14.1016 10.77 14.1981C11.2549 14.2945 11.7576 14.245 12.2144 14.0558C12.6712 13.8666 13.0617 13.5461 13.3364 13.135C13.6111 12.7239 13.7577 12.2405 13.7577 11.7461C13.7577 11.0831 13.4943 10.4472 13.0254 9.97833C12.5566 9.50949 11.9207 9.24609 11.2577 9.24609ZM11.2577 12.9961C11.0105 12.9961 10.7688 12.9228 10.5632 12.7854C10.3577 12.6481 10.1974 12.4529 10.1028 12.2244C10.0082 11.996 9.98347 11.7447 10.0317 11.5022C10.0799 11.2598 10.199 11.037 10.3738 10.8622C10.5486 10.6874 10.7713 10.5683 11.0138 10.5201C11.2563 10.4719 11.5076 10.4966 11.736 10.5912C11.9644 10.6859 12.1597 10.8461 12.297 11.0516C12.4344 11.2572 12.5077 11.4989 12.5077 11.7461C12.5077 12.0776 12.376 12.3956 12.1416 12.63C11.9071 12.8644 11.5892 12.9961 11.2577 12.9961Z" fill="#E60023"/>
</svg>
