<svg width="17" height="14" viewBox="0 0 17 14" fill="none" xmlns="http://www.w3.org/2000/svg">
<path d="M14.8065 0.967773C16.0179 0.967773 17 1.94986 17 3.16132V10.8387C17 12.0502 16.0179 13.0323 14.8065 13.0323H2.19355C0.982085 13.0323 0 12.0502 0 10.8387V3.16132C0 1.94986 0.982085 0.967773 2.19355 0.967773H14.8065ZM14.8065 2.61293H2.19355C1.91232 2.61293 1.68053 2.82463 1.64885 3.09737L1.64516 3.16132V10.8387C1.64516 11.12 1.85686 11.3518 2.1296 11.3834L2.19355 11.3871H14.8065C15.0877 11.3871 15.3195 11.1754 15.3511 10.9027L15.3548 10.8387V3.16132C15.3548 2.88009 15.1431 2.6483 14.8704 2.61662L14.8065 2.61293ZM4.3871 8.64519C4.68996 8.64519 4.93548 8.89071 4.93548 9.19358V9.74197C4.93548 10.0448 4.68996 10.2904 4.3871 10.2904H2.74194C2.43907 10.2904 2.19355 10.0448 2.19355 9.74197V9.19358C2.19355 8.89071 2.43907 8.64519 2.74194 8.64519H4.3871ZM7.67742 8.64519C7.98029 8.64519 8.22581 8.89071 8.22581 9.19358V9.74197C8.22581 10.0448 7.98029 10.2904 7.67742 10.2904H6.03226C5.72939 10.2904 5.48387 10.0448 5.48387 9.74197V9.19358C5.48387 8.89071 5.72939 8.64519 6.03226 8.64519H7.67742ZM10.9677 8.64519C11.2706 8.64519 11.5161 8.89071 11.5161 9.19358V9.74197C11.5161 10.0448 11.2706 10.2904 10.9677 10.2904H9.32258C9.01972 10.2904 8.77419 10.0448 8.77419 9.74197V9.19358C8.77419 8.89071 9.01972 8.64519 9.32258 8.64519H10.9677ZM14.2581 8.64519C14.5609 8.64519 14.8065 8.89071 14.8065 9.19358V9.74197C14.8065 10.0448 14.5609 10.2904 14.2581 10.2904H12.6129C12.31 10.2904 12.0645 10.0448 12.0645 9.74197V9.19358C12.0645 8.89071 12.31 8.64519 12.6129 8.64519H14.2581ZM6.58065 3.16132C6.88351 3.16132 7.12903 3.40684 7.12903 3.70971V5.90326C7.12903 6.20612 6.88351 6.45164 6.58065 6.45164H2.74194C2.43907 6.45164 2.19355 6.20612 2.19355 5.90326V3.70971C2.19355 3.40684 2.43907 3.16132 2.74194 3.16132H6.58065ZM6.03226 4.2581H3.29032V5.35487H6.03226V4.2581Z" fill="#E60023"/>
</svg>
