<svg width="22" height="23" viewBox="0 0 22 23" fill="none" xmlns="http://www.w3.org/2000/svg">
<path d="M15.0078 0.5C16.1081 0.5 17 1.39193 17 2.49219V4.48438C17 4.85113 16.7027 5.14844 16.3359 5.14844V7.80469C16.3359 8.17144 16.0386 8.46875 15.6719 8.46875C15.3089 8.46875 15.014 8.1776 15.0079 7.81613L15.0078 7.80469V5.14844H1.99219V14.8438C1.99219 15.5699 2.57498 16.16 3.29835 16.1717L3.32031 16.1719H7.50391C7.87066 16.1719 8.16797 16.4692 8.16797 16.8359C8.16797 17.1989 7.87682 17.4938 7.51534 17.5H3.32031C1.86798 17.5 0.687875 16.3344 0.664418 14.8877L0.664062 14.8438V5.14844C0.297311 5.14844 0 4.85113 0 4.48438V2.49219C0 1.39193 0.891933 0.5 1.99219 0.5H15.0078ZM12.5674 8.50195C13.0237 8.50195 13.4716 8.57063 13.8995 8.7042C14.2496 8.81349 14.4448 9.18589 14.3355 9.53598C14.2274 9.88235 13.8617 10.0771 13.5149 9.97538L13.5038 9.97199C13.2036 9.8783 12.8891 9.83008 12.5674 9.83008C10.8345 9.83008 9.42969 11.2349 9.42969 12.9678C9.42969 14.7007 10.8345 16.1055 12.5674 16.1055C14.0687 16.1055 15.3502 15.043 15.6429 13.593L15.6515 13.549C15.7189 13.1885 16.0658 12.9509 16.4263 13.0183C16.7868 13.0858 17.0244 13.4327 16.957 13.7932C16.5645 15.8913 14.7261 17.4336 12.5674 17.4336C10.101 17.4336 8.10156 15.4342 8.10156 12.9678C8.10156 10.5014 10.101 8.50195 12.5674 8.50195ZM16.3184 10.3086C16.5748 10.5649 16.5777 10.9787 16.3272 11.2387L16.3184 11.2477L13.4465 14.1196C12.9844 14.5817 12.238 14.5863 11.7702 14.1334L11.7561 14.1196L10.6777 13.0412C10.4184 12.7819 10.4184 12.3614 10.6777 12.1021C10.9341 11.8457 11.3479 11.8428 11.6079 12.0932L11.6169 12.1021L12.6013 13.0865L15.3793 10.3086C15.6386 10.0492 16.0591 10.0492 16.3184 10.3086ZM9.96094 6.47656C10.3277 6.47656 10.625 6.77387 10.625 7.14062C10.625 7.50738 10.3277 7.80469 9.96094 7.80469H6.97266C6.6059 7.80469 6.30859 7.50738 6.30859 7.14062C6.30859 6.77387 6.6059 6.47656 6.97266 6.47656H9.96094ZM15.0078 1.82812H1.99219C1.62926 1.82812 1.33433 2.11927 1.32812 2.48075V3.82031H15.6719V2.49219C15.6719 2.12926 15.3807 1.83433 15.0193 1.82822L15.0078 1.82812Z" fill="#E60023"/>
</svg>
