<svg width="17" height="18" viewBox="0 0 17 18" fill="none" xmlns="http://www.w3.org/2000/svg">
<path d="M13.5769 2.43316L13.5934 2.43603L15.8935 2.87167C16.1601 2.92216 16.3353 3.17923 16.2848 3.44585C16.235 3.70904 15.9838 3.88315 15.7209 3.83899L15.7107 3.83716L15.1742 3.73549C16.3436 5.21543 17 7.056 17 9C17 13.6944 13.1944 17.5 8.5 17.5C8.04807 17.5 7.60033 17.4647 7.15967 17.3948C6.80233 17.3382 6.55856 17.0026 6.6152 16.6452C6.67124 16.2917 7.0004 16.0493 7.35351 16.0991L7.36478 16.1008C7.73766 16.1599 8.11682 16.1898 8.5 16.1898C12.4708 16.1898 15.6898 12.9708 15.6898 9C15.6898 7.29545 15.0944 5.68693 14.0369 4.41287L14.092 5.07157C14.1143 5.33851 13.9189 5.57345 13.6537 5.60121L13.6434 5.60219C13.3764 5.62454 13.1415 5.42909 13.1137 5.16394L13.1128 5.15357L12.9349 3.02961C12.9092 2.72315 13.1369 2.45391 13.4433 2.42824C13.4879 2.42451 13.5328 2.4263 13.5769 2.43316ZM8.5 0.5C9.06886 0.5 9.63092 0.555975 10.1803 0.666192C10.5351 0.737355 10.765 1.08262 10.6938 1.43735C10.6226 1.79209 10.2774 2.02197 9.92263 1.95081C9.45794 1.85759 8.98221 1.81021 8.5 1.81021C4.52919 1.81021 1.31021 5.02919 1.31021 9C1.31021 10.6748 1.88527 12.2564 2.90659 13.5183L2.86957 12.9583C2.85188 12.691 3.0514 12.4595 3.317 12.4364L3.32738 12.4356C3.59467 12.4179 3.82616 12.6174 3.84929 12.883L3.85009 12.8934L3.99084 15.0201C4.01115 15.327 3.77885 15.5922 3.47199 15.6125C3.42735 15.6155 3.38254 15.613 3.33853 15.6053L3.32206 15.6021L1.02993 15.1264C0.764233 15.0713 0.593549 14.8112 0.648691 14.5455C0.703126 14.2832 0.957286 14.1135 1.2194 14.1622L1.22961 14.1643L1.84812 14.2927C0.665696 12.8092 0 10.9574 0 9C0 4.30558 3.80558 0.5 8.5 0.5ZM8.5 3.84104C11.3492 3.84104 13.659 6.15079 13.659 9C13.659 11.8492 11.3492 14.159 8.5 14.159C5.65079 14.159 3.34104 11.8492 3.34104 9C3.34104 6.15079 5.65079 3.84104 8.5 3.84104ZM8.5 5.15125C6.3744 5.15125 4.65125 6.8744 4.65125 9C4.65125 11.1256 6.3744 12.8487 8.5 12.8487C10.6256 12.8487 12.3487 11.1256 12.3487 9C12.3487 6.8744 10.6256 5.15125 8.5 5.15125ZM8.54035 6.03435C8.76963 6.03435 8.95619 6.21759 8.96155 6.44559L8.96167 6.45568V6.94643C9.15426 7.01031 9.36821 7.12735 9.58203 7.33426C9.74921 7.49609 9.75359 7.76283 9.5918 7.93006C9.43254 8.09458 9.17176 8.10148 9.00405 7.94741L8.99601 7.93983C8.84716 7.79578 8.68958 7.7196 8.54035 7.7196C8.30803 7.7196 8.11902 7.90861 8.11902 8.14093C8.11902 8.36988 8.30259 8.55676 8.53027 8.56213L8.54035 8.56225C9.2373 8.56225 9.80432 9.12927 9.80432 9.82622C9.80432 10.37 9.45906 10.8344 8.97634 11.0124L8.96167 11.0177V11.5115C8.96167 11.7442 8.773 11.9329 8.54035 11.9329C8.31106 11.9329 8.1245 11.7497 8.11914 11.5217L8.11902 11.5116V11.0199C7.83834 10.9258 7.57349 10.7391 7.34826 10.4711C7.19852 10.293 7.22148 10.0272 7.39961 9.8775C7.57771 9.72776 7.84348 9.75072 7.99326 9.9289C8.166 10.1344 8.36036 10.2476 8.54035 10.2476C8.77267 10.2476 8.96167 10.0586 8.96167 9.82627C8.96167 9.59731 8.7781 9.41043 8.55042 9.40506L8.54035 9.40494C7.84339 9.40494 7.27638 8.83792 7.27638 8.14097C7.27638 7.59718 7.62164 7.13276 8.10435 6.95477L8.11902 6.94947V6.45568C8.11902 6.22302 8.30769 6.03435 8.54035 6.03435Z" fill="#E60023"/>
</svg>
