<svg width="17" height="18" viewBox="0 0 17 18" fill="none" xmlns="http://www.w3.org/2000/svg">
<path d="M17 9C17 13.6944 13.1944 17.5 8.5 17.5C3.80558 17.5 -2.052e-07 13.6944 0 9C2.052e-07 4.30558 3.80558 0.5 8.5 0.5C13.1944 0.5 17 4.30558 17 9ZM15.5833 9C15.5833 5.08798 12.412 1.91667 8.5 1.91667C4.58798 1.91667 1.41667 5.08798 1.41667 9C1.41667 12.912 4.58798 16.0833 8.5 16.0833C12.412 16.0833 15.5833 12.912 15.5833 9ZM12.9033 10.2185C12.9033 10.5867 12.6224 10.8893 12.2632 10.9236L12.1949 10.9269L6.65881 10.9267L7.27887 11.5473C7.5382 11.8066 7.55441 12.217 7.32749 12.4952L7.27887 12.549C7.01953 12.8084 6.60914 12.8246 6.33093 12.5977L6.27713 12.549L4.52811 10.8C4.38641 10.6583 4.30681 10.4661 4.30681 10.2658C4.30681 9.87166 4.60854 9.54804 4.99359 9.51329L5.06237 9.51021H12.1949C12.5861 9.51021 12.9033 9.82734 12.9033 10.2185ZM12.9033 7.75095C12.9033 8.14505 12.6015 8.46868 12.2165 8.50342L12.1477 8.50651H5.01514C4.62394 8.50651 4.30681 8.18938 4.30681 7.79818C4.30681 7.42999 4.58773 7.12741 4.94693 7.09308L5.01514 7.08984L10.5513 7.09005L9.93122 6.46941C9.67188 6.21007 9.65567 5.79968 9.88259 5.52147L9.93122 5.46767C10.1905 5.20834 10.6009 5.19213 10.8792 5.41905L10.933 5.46767L12.682 7.2167C12.8237 7.35839 12.9033 7.55057 12.9033 7.75095Z" fill="#E60023"/>
</svg>
